<svg width="429.525" height="579.476" viewBox="0 0 429.525 579.476" fill="none" xmlns="http://www.w3.org/2000/svg"><path opacity=".5" d="m308.247 125.234-295.23 332.48c-18.26 20.37-18.79 31.07 7.93 36.95l380.28 83.65c26.72 5.87 29.41-11.44 28-30.77-8.53-113.22-60.21-408.95-60.21-408.95-8.16-26.6-25.41-44.01-60.77-13.36z" fill="#ffccfd"/><path d="M385.251 390.361c17.99-66.078-19.265-133.758-83.211-151.168-63.947-17.41-130.37 22.043-148.36 88.121-17.99 66.079 19.265 133.759 83.211 151.169 63.947 17.41 130.37-22.044 148.36-88.122z" fill="#50deb6"/><path d="M199.68 401.648c-30-11.95-56.94-30.47-84.39-47.64-2.42-1.51-5-3-7.8-3.29-2.8-.29-6.09 1.22-7.05 4.06-1 3 .82 6.12 2.6 8.63a319.83 319.83 0 0 0 50.16 55.66c10.42 9.12 22.05 17.82 35.66 19.6a142.14 142.14 0 0 0 10.82-37.02z" fill="#50deb6"/><path d="M178.51 405.618c-6.69 31.53-20 61.18-32 91.1-1.06 2.64-2.12 5.39-1.92 8.22.2 2.83 2.07 5.77 4.88 6.21 3 .48 5.62-1.86 7.71-4a325.024 325.024 0 0 0 44.68-58.9c7-11.81 13.4-24.74 13-38.41a128.988 128.988 0 0 0-36.35-4.22z" fill="#50deb6"/><path d="M203.28 438.108c-.89 32.22-9 63.82-15.77 95.44-.59 2.78-1.16 5.69-.41 8.43.75 2.74 3.28 5.29 6.29 5.21 3.21-.09 5.51-2.87 7.27-5.41a318.43 318.43 0 0 0 35.23-66.13c5-12.9 9.2-26.78 6.16-40.15a144.504 144.504 0 0 0-38.77 2.61zM360 401.718c11.76 30 29.76 57.08 46.47 84.64 1.47 2.43 3 5 3.24 7.8.24 2.8-1.1 6-3.79 6.92-2.87 1-5.85-.91-8.28-2.73a324.196 324.196 0 0 1-53.71-50.8c-8.84-10.51-17.27-22.2-19.14-35.76a129.225 129.225 0 0 1 35.21-10.07z" fill="#50deb6"/><path d="M329.79 428.658c10.43 30.49 27.21 58.32 42.72 86.59 1.36 2.49 2.75 5.1 2.89 7.93.14 2.83-1.36 6-4.09 6.75-2.91.84-5.81-1.17-8.15-3.09a324.702 324.702 0 0 1-51.44-53.1c-8.36-10.88-16.28-22.94-17.55-36.56a128.885 128.885 0 0 1 35.62-8.52z" fill="#50deb6"/><path d="M306 449.338c-1.56 32.2 4.19 64.32 8.49 96.36.38 2.82.74 5.76-.23 8.44-.97 2.68-3.66 5-6.66 4.72-3.2-.33-5.27-3.28-6.84-5.94a318.872 318.872 0 0 1-30.12-68.61c-4-13.24-7.15-27.4-3.11-40.51a145.199 145.199 0 0 1 38.47 5.54z" fill="#50deb6"/><path d="m253.89 354.208 20.48 1.86 17.73 6.26M233.48 369.078c11.046 0 20-8.954 20-20s-8.954-20-20-20-20 8.954-20 20 8.954 20 20 20z" fill="#fff"/><path d="M310.31 380.908c11.046 0 20-8.954 20-20 0-11.045-8.954-20-20-20s-20 8.955-20 20c0 11.046 8.954 20 20 20z" fill="#fff"/><path fill-rule="evenodd" clip-rule="evenodd" d="M233.48 333.078c-8.837 0-16 7.164-16 16 0 8.837 7.163 16 16 16s16-7.163 16-16c0-8.836-7.163-16-16-16zm-24 16c0-13.255 10.745-24 24-24s24 10.745 24 24c0 .482-.014.961-.042 1.436l17.792 1.616 11.541 4.074c2.186-11.002 11.894-19.296 23.539-19.296 13.255 0 24 10.745 24 24s-10.745 24-24 24c-11.99 0-21.927-8.792-23.714-20.281l-13.086-4.621-17.899-1.625c-3.635 8.635-12.175 14.697-22.131 14.697-13.255 0-24-10.745-24-24zm100.83-4.17c-8.836 0-16 7.164-16 16 0 8.837 7.164 16 16 16 8.837 0 16-7.163 16-16 0-8.836-7.163-16-16-16z" fill="#333"/><path d="M329.06 264.198c-45.47 13.79-77.51-12.86-77.51-12.86l55.38-73.54z" fill="#ffa15e"/><path d="M115.91 159.978s-5.52 194.92-3.7 206.82c.31 2 3 3.59 2 8-.82 3.6-3.62 5.35-5.26 8.07-1.64 2.72-.3 5.94 1.86 8.43" stroke="#333" stroke-width="3" stroke-miterlimit="10"/><path d="M101.89 361.658c-3.34-7.58 4.83-15.11 12.31-11.57a57 57 0 0 1 13.3 8.89c11.43 10.11-10.88 15.74-19.27 9.83a17.822 17.822 0 0 1-6.34-7.15z" fill="#50deb6"/><path d="M106.71 161.978c9.48 3.84 19.52-1 19.52-1s-68.63-49.16-68.63-97.36S97.5.718 118.52.018c21.02-.7 57.65 19.17 51.25 72.51-6.28 52.33-63.06 89.45-63.06 89.45Z" fill="#ffa15e"/></svg>