<?xml version="1.0" encoding="UTF-8" standalone="no"?>
<svg
   width="429.52524"
   height="579.47607"
   viewBox="0 0 429.52524 579.47607"
   fill="none"
   version="1.1"
   id="svg34"
   sodipodi:docname="ballon.svg"
   inkscape:version="1.1.1 (3bf5ae0d25, 2021-09-20, custom)"
   xmlns:inkscape="http://www.inkscape.org/namespaces/inkscape"
   xmlns:sodipodi="http://sodipodi.sourceforge.net/DTD/sodipodi-0.dtd"
   xmlns="http://www.w3.org/2000/svg"
   xmlns:svg="http://www.w3.org/2000/svg">
  <defs
     id="defs38" />
  <sodipodi:namedview
     id="namedview36"
     pagecolor="#ffffff"
     bordercolor="#666666"
     borderopacity="1.0"
     inkscape:pageshadow="2"
     inkscape:pageopacity="0.0"
     inkscape:pagecheckerboard="0"
     showgrid="false"
     inkscape:zoom="0.3575"
     inkscape:cx="-738.46154"
     inkscape:cy="78.321678"
     inkscape:window-width="1920"
     inkscape:window-height="1038"
     inkscape:window-x="1920"
     inkscape:window-y="20"
     inkscape:window-maximized="1"
     inkscape:current-layer="svg34" />
  <path
     opacity="0.5"
     d="M 308.247,125.234 13.017301,457.714 c -18.2599898,20.37 -18.7899998,31.07 7.93,36.95 L 401.227,578.314 c 26.72,5.87 29.41,-11.44 28,-30.77 -8.53,-113.22 -60.21,-408.95 -60.21,-408.95 -8.16,-26.6 -25.41,-44.009997 -60.77,-13.36 z"
     fill="#ffccfd"
     id="path2" />
  <path
     d="m 385.251,390.361 c 17.99,-66.078 -19.265,-133.758 -83.211,-151.168 -63.947,-17.41 -130.37,22.043 -148.36,88.121 -17.99,66.079 19.265,133.759 83.211,151.169 63.947,17.41 130.37,-22.044 148.36,-88.122 z"
     fill="#50deb6"
     id="path4" />
  <path
     d="m 199.68,401.648 c -30,-11.95 -56.94,-30.47 -84.39,-47.64 -2.42,-1.51 -5,-3 -7.8,-3.29 -2.8,-0.29 -6.09,1.22 -7.05,4.06 -1.000199,3 0.82,6.12 2.6,8.63 14.481,20.454 31.317,39.136 50.16,55.66 10.42,9.12 22.05,17.82 35.66,19.6 5.272,-11.791 8.912,-24.246 10.82,-37.02 z"
     fill="#50deb6"
     id="path6" />
  <path
     d="m 178.51,405.618 c -6.69,31.53 -20,61.18 -32,91.1 -1.06,2.64 -2.12,5.39 -1.92,8.22 0.2,2.83 2.07,5.77 4.88,6.21 3,0.48 5.62,-1.86 7.71,-4 17.085,-17.87 32.075,-37.631 44.68,-58.9 7,-11.81 13.4,-24.74 13,-38.41 -11.855,-3.127 -24.094,-4.548 -36.35,-4.22 z"
     fill="#50deb6"
     id="path8" />
  <path
     d="m 203.28,438.108 c -0.89,32.22 -9,63.82 -15.77,95.44 -0.59,2.78 -1.16,5.69 -0.41,8.43 0.75,2.74 3.28,5.29 6.29,5.21 3.21,-0.09 5.51,-2.87 7.27,-5.41 14.305,-20.58 26.13,-42.777 35.23,-66.13 5,-12.9 9.2,-26.78 6.16,-40.15 -12.982,-0.879 -26.023,-0.002 -38.77,2.61 z"
     fill="#50deb6"
     id="path10" />
  <path
     d="m 360,401.718 c 11.76,30 29.76,57.08 46.47,84.64 1.47,2.43 3,5 3.24,7.8 0.24,2.8 -1.1,6 -3.79,6.92 -2.87,1 -5.85,-0.91 -8.28,-2.73 -19.782,-14.83 -37.802,-31.874 -53.71,-50.8 -8.84,-10.51 -17.27,-22.2 -19.14,-35.76 11.199,-5.011 23.055,-8.402 35.21,-10.07 z"
     fill="#50deb6"
     id="path12" />
  <path
     d="m 329.79,428.658 c 10.43,30.49 27.21,58.32 42.72,86.59 1.36,2.49 2.75,5.1 2.89,7.93 0.14,2.83 -1.36,6 -4.09,6.75 -2.91,0.84 -5.81,-1.17 -8.15,-3.09 -19.112,-15.684 -36.371,-33.499 -51.44,-53.1 -8.36,-10.88 -16.28,-22.94 -17.55,-36.56 11.407,-4.521 23.401,-7.39 35.62,-8.52 z"
     fill="#50deb6"
     id="path14" />
  <path
     d="m 306,449.338 c -1.56,32.2 4.19,64.32 8.49,96.36 0.38,2.82 0.74,5.76 -0.23,8.44 -0.97,2.68 -3.66,5 -6.66,4.72 -3.2,-0.33 -5.27,-3.28 -6.84,-5.94 -12.702,-21.607 -22.811,-44.636 -30.12,-68.61 -4,-13.24 -7.15,-27.4 -3.11,-40.51 13.014,0.114 25.953,1.978 38.47,5.54 z"
     fill="#50deb6"
     id="path16" />
  <path
     d="m 253.89,354.208 20.48,1.86 17.73,6.26"
     fill="#ffffff"
     id="path18" />
  <path
     d="m 233.48,369.078 c 11.046,0 20,-8.954 20,-20 0,-11.046 -8.954,-20 -20,-20 -11.046,0 -20,8.954 -20,20 0,11.046 8.954,20 20,20 z"
     fill="#ffffff"
     id="path20" />
  <path
     d="m 310.31,380.908 c 11.046,0 20,-8.954 20,-20 0,-11.045 -8.954,-20 -20,-20 -11.046,0 -20,8.955 -20,20 0,11.046 8.954,20 20,20 z"
     fill="#ffffff"
     id="path22" />
  <path
     fill-rule="evenodd"
     clip-rule="evenodd"
     d="m 233.48,333.078 c -8.837,0 -16,7.164 -16,16 0,8.837 7.163,16 16,16 8.837,0 16,-7.163 16,-16 0,-8.836 -7.163,-16 -16,-16 z m -24,16 c 0,-13.255 10.745,-24 24,-24 13.255,0 24,10.745 24,24 0,0.482 -0.014,0.961 -0.042,1.436 l 17.792,1.616 11.541,4.074 c 2.186,-11.002 11.894,-19.296 23.539,-19.296 13.255,0 24,10.745 24,24 0,13.255 -10.745,24 -24,24 -11.99,0 -21.927,-8.792 -23.714,-20.281 l -13.086,-4.621 -17.899,-1.625 c -3.635,8.635 -12.175,14.697 -22.131,14.697 -13.255,0 -24,-10.745 -24,-24 z m 100.83,-4.17 c -8.836,0 -16,7.164 -16,16 0,8.837 7.164,16 16,16 8.837,0 16,-7.163 16,-16 0,-8.836 -7.163,-16 -16,-16 z"
     fill="#333333"
     id="path24" />
  <path
     d="m 329.06,264.198 c -45.47,13.79 -77.51,-12.86 -77.51,-12.86 l 55.38,-73.54 z"
     fill="#ffa15e"
     id="path26" />
  <path
     d="m 115.91,159.978 c 0,0 -5.52,194.92 -3.7,206.82 0.31,2 3,3.59 2,8 -0.82,3.6 -3.62,5.35 -5.26,8.07 -1.64,2.72 -0.3,5.94 1.86,8.43"
     stroke="#333333"
     stroke-width="3"
     stroke-miterlimit="10"
     id="path28" />
  <path
     d="m 101.89,361.658 c -3.340099,-7.58 4.83,-15.11 12.31,-11.57 4.829,2.323 9.306,5.316 13.3,8.89 11.43,10.11 -10.88,15.74 -19.27,9.83 -2.725,-1.762 -4.917,-4.234 -6.34,-7.15 z"
     fill="#50deb6"
     id="path30" />
  <path
     d="m 106.71,161.978 c 9.48,3.84 19.52,-1 19.52,-1 0,0 -68.629899,-49.16 -68.629899,-97.360197 0,-48.2 39.9,-62.90000022 60.919899,-63.60000022 21.02,-0.7 57.65,19.17000022 51.25,72.51000022 C 163.49,124.858 106.71,161.978 106.71,161.978 Z"
     fill="#ffa15e"
     id="path32" />
</svg>
