<?xml version="1.0" encoding="UTF-8" standalone="no"?>
<svg
   width="571.71997"
   height="377.88"
   viewBox="0 0 571.71997 377.88"
   fill="none"
   version="1.1"
   id="svg36"
   sodipodi:docname="coffee.svg"
   inkscape:version="1.1.1 (3bf5ae0d25, 2021-09-20, custom)"
   xmlns:inkscape="http://www.inkscape.org/namespaces/inkscape"
   xmlns:sodipodi="http://sodipodi.sourceforge.net/DTD/sodipodi-0.dtd"
   xmlns="http://www.w3.org/2000/svg"
   xmlns:svg="http://www.w3.org/2000/svg">
  <defs
     id="defs40" />
  <sodipodi:namedview
     id="namedview38"
     pagecolor="#ffffff"
     bordercolor="#666666"
     borderopacity="1.0"
     inkscape:pageshadow="2"
     inkscape:pageopacity="0.0"
     inkscape:pagecheckerboard="0"
     showgrid="false"
     inkscape:zoom="0.17875"
     inkscape:cx="234.96503"
     inkscape:cy="307.69231"
     inkscape:window-width="959"
     inkscape:window-height="1058"
     inkscape:window-x="2880"
     inkscape:window-y="0"
     inkscape:window-maximized="1"
     inkscape:current-layer="svg36" />
  <path
     opacity="0.5"
     d="m 0,0 c 80.22,1.746 160.203,9.393 239.3,22.88 12.83,2.18 28.37,7.35 31.06,22.16 1.64,9.06 -2.51,18 -6.52,26 l -63.6,126.84 C 321.616,165.618 446.214,147.003 571.72,142.38 491.62,213.66 406.72,277.63 318.62,332 267.19,325.94 215.04,319.69 166.8,298 118.56,276.31 73.86,237 53.6,181.47 42.95,152.28 39.54,120.35 33.65,89.38 27.76,58.41 18.67,26.88 0,0 Z"
     fill="#e6b881"
     id="path2" />
  <path
     d="m 215.34,297 c -2.89,-2.74 -5.45,-3.65 -7.93,-3.25 -5.67,-1.88 -8.68,-12.81 -12.9,-9.29 -4.61,3.83 -42.42,45.48 -47.86,51.22 -5.44,5.74 -4.13,8.79 4.69,2.74 2.91,-2 7.11,0.68 9.71,2.81 -1.78,3.44 -1.5,6.69 2.48,10.47 l 24.43,20.18 c 3.155,2.992 7.37,4.609 11.717,4.494 4.346,-0.114 8.47,-1.95 11.463,-5.104 l 29.55,-32.21 c 6.24,-6.57 4.19,-14.32 -2.38,-20.55 z"
     fill="#e6e6e6"
     id="path4" />
  <path
     d="m 193.95,346.94 c 6.77,-12.25 18.94,-7.07 23.68,-15.64 5.86,-10.61 13.22,-13.21 18.7,-8 5.48,5.21 2.47,9.79 -1.07,15 -3.54,5.21 -18.14,18.35 -25.61,26.23 -7.47,7.88 -17.13,3.37 -21.57,-0.31 -3,-2.46 -11.42,-9.83 -16.7,-14.45 -0.15,-0.136 -0.249,-0.319 -0.281,-0.519 -0.032,-0.2 0.005,-0.405 0.106,-0.581 0.1,-0.176 0.257,-0.313 0.445,-0.387 0.189,-0.075 0.397,-0.083 0.59,-0.023 4.89,1.47 16.66,7.82 21.71,-1.32 z"
     fill="#4f361d"
     id="path6" />
  <path
     d="m 157.8,339.04 c 0.08,-0.49 50.7,-53.15 56.87,-58.78 6.17,-5.63 31.74,11.14 32.93,19.62 0.67,4.86 -22.23,-8.61 -29.36,-12.91 -0.598,-0.363 -1.302,-0.512 -1.996,-0.423 -0.694,0.089 -1.337,0.411 -1.824,0.913 0,0 -53.12,54.77 -53.42,54.66"
     fill="#000000"
     id="path8" />
  <path
     d="M 312.221,215.047 C 346.157,155.43 325.751,79.824 266.642,46.178 207.534,12.531 132.106,33.585 98.17,93.202 c -33.9357,59.617 -13.5296,135.222 45.579,168.869 59.108,33.646 134.536,12.593 168.472,-47.024 z"
     fill="#50deb6"
     id="path10" />
  <path
     d="m 96.749,167.25 c -19.0595,26 -43.5895,47.53 -66.9995,69.85 -2.06,2 -4.18,4 -5.14,6.72 -0.96,2.72 -0.39,6.13 2.06,7.72 2.61,1.69 6,0.65 8.88,-0.47 23.2298,-9.125 45.3293,-20.899 65.8595,-35.09 11.35,-7.86 22.61,-17 27.8,-29.65 -9.884,-7.833 -20.808,-14.254 -32.46,-19.08 z"
     fill="#50deb6"
     id="path12" />
  <path
     d="m 105.76,205.49 c -15.13,28.46 -36.3004,53.22 -56.2204,78.62 -1.75,2.23 -3.55,4.58 -4.12,7.37 -0.57,2.79 0.48,6.14 3.13,7.38 2.82,1.31 6.05,-0.19 8.71,-1.7 21.6321,-12.301 41.7664,-27.066 60.0004,-44 10.09,-9.38 19.91,-20 23.24,-33.28 -10.861,-6.378 -22.552,-11.22 -34.74,-14.39 z"
     fill="#50deb6"
     id="path14" />
  <path
     d="m 137.48,240.17 c -10.39,30.52 -27.73,58.19 -43.65,86.32 -1.4,2.48 -2.82,5.07 -2.89,7.94 -0.07,2.87 1.64,6.07 4.61,6.93 3.17,0.92 6.24,-1 8.71,-2.9 20.032,-15.182 38.162,-32.722 54,-52.24 8.72,-10.77 16.93,-22.73 17.9,-36.46 -12.418,-4.877 -25.423,-8.102 -38.68,-9.59 z"
     fill="#50deb6"
     id="path16" />
  <path
     d="m 268.48,199.68 c -10.14,30.83 -27.35,58.67 -43.11,87 -1.39,2.5 -2.8,5.11 -2.83,8 -0.03,2.89 1.73,6.18 4.75,7.09 3.22,1 6.3,-1 8.78,-2.83 20.083,-15.149 38.22,-32.719 54,-52.31 8.7,-10.81 16.85,-22.84 17.67,-36.75 -12.591,-5.082 -25.788,-8.51 -39.26,-10.2 z"
     fill="#50deb6"
     id="path18" />
  <path
     d="m 321.28,148.28 c 5.544,11.356 11.828,22.336 18.81,32.87 10.74,16.43 22.69,32.19 34.17,48.16 1.66,2.31 3.36,4.74 3.81,7.55 0.45,2.81 -0.74,6.1 -3.44,7.2 -2.88,1.18 -6.05,-0.47 -8.65,-2.1 -21.141,-13.272 -40.684,-28.936 -58.24,-46.68 -9.72,-9.82 -19.1,-20.87 -21.88,-34.27 11.163,-5.858 23.082,-10.142 35.42,-12.73 z"
     fill="#50deb6"
     id="path20" />
  <path
     d="m 311.269,189.76 c 10.89,30.34 28.29,57.89 44.36,85.9 1.41,2.47 2.85,5.05 3,7.89 0.15,2.84 -1.36,6 -4.15,6.84 -3,0.89 -6,-1.06 -8.38,-2.94 -19.658,-15.282 -37.48,-32.788 -53.11,-52.17 -8.65,-10.74 -16.84,-22.66 -18.23,-36.28 11.684,-4.756 23.971,-7.866 36.51,-9.24 z"
     fill="#50deb6"
     id="path22" />
  <path
     d="m 171.76,197.68 21.16,-1.31 19.05,3.58"
     fill="#ffffff"
     id="path24" />
  <path
     d="m 150.15,216.17 c 11.388,0 20.62,-9.178 20.62,-20.5 0,-11.322 -9.232,-20.5 -20.62,-20.5 -11.388,0 -20.62,9.178 -20.62,20.5 0,11.322 9.232,20.5 20.62,20.5 z"
     fill="#ffffff"
     id="path26" />
  <path
     d="m 230.3,216.17 c 11.388,0 20.62,-9.178 20.62,-20.5 0,-11.322 -9.232,-20.5 -20.62,-20.5 -11.388,0 -20.62,9.178 -20.62,20.5 0,11.322 9.232,20.5 20.62,20.5 z"
     fill="#ffffff"
     id="path28" />
  <path
     fill-rule="evenodd"
     clip-rule="evenodd"
     d="m 150.15,179.17 c -9.201,0 -16.62,7.409 -16.62,16.5 0,9.091 7.419,16.5 16.62,16.5 9.201,0 16.62,-7.409 16.62,-16.5 0,-9.091 -7.419,-16.5 -16.62,-16.5 z m -24.62,16.5 c 0,-13.553 11.045,-24.5 24.62,-24.5 12.84,0 23.416,9.793 24.524,22.322 l 18.495,-1.145 12.53,2.355 c 0.511,-13.103 11.35,-23.532 24.601,-23.532 13.575,0 24.62,10.947 24.62,24.5 0,13.553 -11.045,24.5 -24.62,24.5 -10.998,0 -20.334,-7.184 -23.484,-17.118 l -14.146,-2.659 -18.612,1.152 c -2.646,10.706 -12.362,18.625 -23.908,18.625 -13.575,0 -24.62,-10.947 -24.62,-24.5 z m 104.77,-16.5 c -9.201,0 -16.62,7.409 -16.62,16.5 0,9.091 7.419,16.5 16.62,16.5 9.201,0 16.62,-7.409 16.62,-16.5 0,-9.091 -7.419,-16.5 -16.62,-16.5 z"
     fill="#000000"
     id="path30" />
  <path
     d="m 112.33,319.2 -8.54,9.88 c 0,0 -9.32,-13.56 -18.5996,-2.07 -9.28,11.49 4.9996,18.4 4.9996,18.4 l -7.1696,8.88 29.1096,23.59 31.52,-32.53 c 0,0 -6.1,-7.44 -8.24,-9.82 -3.743,-4.16 -8.075,-7.748 -12.86,-10.65 -2.49,-1.56 -10.22,-5.68 -10.22,-5.68 z m -19.27,22.51 c 0,0 -10.1596,-1.41 -4.51,-10.64 6.28,-10.26 12.08,1.26 12.08,1.26 z"
     fill="#78a3c2"
     id="path32" />
  <path
     d="m 91,337.78 c -0.55,-6.36 4.85,-11 8.19,-7.15 2.243,2.655 4.098,5.614 5.51,8.79 4.36,9.5 -8.08,10.6 -11.51,4.79 -1.201,-1.953 -1.949,-4.15 -2.19,-6.43 z"
     fill="#50deb6"
     id="path34" />
</svg>
