<svg width="571.72" height="377.88" viewBox="0 0 571.72 377.88" fill="none" xmlns="http://www.w3.org/2000/svg"><path opacity=".5" d="M0 0a1635.39 1635.39 0 0 1 239.3 22.88c12.83 2.18 28.37 7.35 31.06 22.16 1.64 9.06-2.51 18-6.52 26l-63.6 126.84a1687.99 1687.99 0 0 1 371.48-55.5c-80.1 71.28-165 135.25-253.1 189.62-51.43-6.06-103.58-12.31-151.82-34-48.24-21.69-92.94-61-113.2-116.53-10.65-29.19-14.06-61.12-19.95-92.09C27.76 58.41 18.67 26.88 0 0Z" fill="#e6b881"/><path d="M215.34 297c-2.89-2.74-5.45-3.65-7.93-3.25-5.67-1.88-8.68-12.81-12.9-9.29-4.61 3.83-42.42 45.48-47.86 51.22-5.44 5.74-4.13 8.79 4.69 2.74 2.91-2 7.11.68 9.71 2.81-1.78 3.44-1.5 6.69 2.48 10.47l24.43 20.18a16.399 16.399 0 0 0 23.18-.61l29.55-32.21c6.24-6.57 4.19-14.32-2.38-20.55z" fill="#e6e6e6"/><path d="M193.95 346.94c6.77-12.25 18.94-7.07 23.68-15.64 5.86-10.61 13.22-13.21 18.7-8 5.48 5.21 2.47 9.79-1.07 15-3.54 5.21-18.14 18.35-25.61 26.23-7.47 7.88-17.13 3.37-21.57-.31-3-2.46-11.42-9.83-16.7-14.45a.89.89 0 0 1 .86-1.51c4.89 1.47 16.66 7.82 21.71-1.32z" fill="#4f361d"/><path d="M157.8 339.04c.08-.49 50.7-53.15 56.87-58.78 6.17-5.63 31.74 11.14 32.93 19.62.67 4.86-22.23-8.61-29.36-12.91a3.09 3.09 0 0 0-3.82.49S161.3 342.23 161 342.12" fill="#000"/><path d="M312.221 215.047c33.936-59.617 13.53-135.223-45.579-168.869C207.534 12.531 132.106 33.585 98.17 93.202c-33.936 59.617-13.53 135.222 45.579 168.869 59.108 33.646 134.536 12.593 168.472-47.024z" fill="#50deb6"/><path d="M96.749 167.25c-19.06 26-43.59 47.53-67 69.85-2.06 2-4.18 4-5.14 6.72-.96 2.72-.39 6.13 2.06 7.72 2.61 1.69 6 .65 8.88-.47a324.444 324.444 0 0 0 65.86-35.09c11.35-7.86 22.61-17 27.8-29.65a136.128 136.128 0 0 0-32.46-19.08z" fill="#50deb6"/><path d="M105.76 205.49c-15.13 28.46-36.3 53.22-56.22 78.62-1.75 2.23-3.55 4.58-4.12 7.37-.57 2.79.48 6.14 3.13 7.38 2.82 1.31 6.05-.19 8.71-1.7a322.254 322.254 0 0 0 60-44c10.09-9.38 19.91-20 23.24-33.28a136.412 136.412 0 0 0-34.74-14.39zM137.48 240.17c-10.39 30.52-27.73 58.19-43.65 86.32-1.4 2.48-2.82 5.07-2.89 7.94-.07 2.87 1.64 6.07 4.61 6.93 3.17.92 6.24-1 8.71-2.9a313.056 313.056 0 0 0 54-52.24c8.72-10.77 16.93-22.73 17.9-36.46a152.28 152.28 0 0 0-38.68-9.59zM268.48 199.68c-10.14 30.83-27.35 58.67-43.11 87-1.39 2.5-2.8 5.11-2.83 8-.03 2.89 1.73 6.18 4.75 7.09 3.22 1 6.3-1 8.78-2.83a305.814 305.814 0 0 0 54-52.31c8.7-10.81 16.85-22.84 17.67-36.75a157.158 157.158 0 0 0-39.26-10.2zM321.28 148.28a288.946 288.946 0 0 0 18.81 32.87c10.74 16.43 22.69 32.19 34.17 48.16 1.66 2.31 3.36 4.74 3.81 7.55.45 2.81-.74 6.1-3.44 7.2-2.88 1.18-6.05-.47-8.65-2.1a325.064 325.064 0 0 1-58.24-46.68c-9.72-9.82-19.1-20.87-21.88-34.27a136.551 136.551 0 0 1 35.42-12.73z" fill="#50deb6"/><path d="M311.269 189.76c10.89 30.34 28.29 57.89 44.36 85.9 1.41 2.47 2.85 5.05 3 7.89.15 2.84-1.36 6-4.15 6.84-3 .89-6-1.06-8.38-2.94a322.51 322.51 0 0 1-53.11-52.17c-8.65-10.74-16.84-22.66-18.23-36.28a136.185 136.185 0 0 1 36.51-9.24z" fill="#50deb6"/><path d="m171.76 197.68 21.16-1.31 19.05 3.58M150.15 216.17c11.388 0 20.62-9.178 20.62-20.5s-9.232-20.5-20.62-20.5c-11.388 0-20.62 9.178-20.62 20.5s9.232 20.5 20.62 20.5z" fill="#fff"/><path d="M230.3 216.17c11.388 0 20.62-9.178 20.62-20.5s-9.232-20.5-20.62-20.5c-11.388 0-20.62 9.178-20.62 20.5s9.232 20.5 20.62 20.5z" fill="#fff"/><path fill-rule="evenodd" clip-rule="evenodd" d="M150.15 179.17c-9.201 0-16.62 7.409-16.62 16.5 0 9.091 7.419 16.5 16.62 16.5s16.62-7.409 16.62-16.5c0-9.091-7.419-16.5-16.62-16.5zm-24.62 16.5c0-13.553 11.045-24.5 24.62-24.5 12.84 0 23.416 9.793 24.524 22.322l18.495-1.145 12.53 2.355c.511-13.103 11.35-23.532 24.601-23.532 13.575 0 24.62 10.947 24.62 24.5s-11.045 24.5-24.62 24.5c-10.998 0-20.334-7.184-23.484-17.118l-14.146-2.659-18.612 1.152c-2.646 10.706-12.362 18.625-23.908 18.625-13.575 0-24.62-10.947-24.62-24.5zm104.77-16.5c-9.201 0-16.62 7.409-16.62 16.5 0 9.091 7.419 16.5 16.62 16.5s16.62-7.409 16.62-16.5c0-9.091-7.419-16.5-16.62-16.5z" fill="#000"/><path d="m112.33 319.2-8.54 9.88s-9.32-13.56-18.6-2.07c-9.28 11.49 5 18.4 5 18.4l-7.17 8.88 29.11 23.59 31.52-32.53s-6.1-7.44-8.24-9.82a57.199 57.199 0 0 0-12.86-10.65c-2.49-1.56-10.22-5.68-10.22-5.68zm-19.27 22.51s-10.16-1.41-4.51-10.64c6.28-10.26 12.08 1.26 12.08 1.26z" fill="#78a3c2"/><path d="M91 337.78c-.55-6.36 4.85-11 8.19-7.15a36.76 36.76 0 0 1 5.51 8.79c4.36 9.5-8.08 10.6-11.51 4.79a15.356 15.356 0 0 1-2.19-6.43z" fill="#50deb6"/></svg>