<?xml version="1.0" encoding="UTF-8" standalone="no"?>
<svg
   viewBox="0 0 593.87091 525.83362"
   height="525.83362"
   width="593.87091"
   xml:space="preserve"
   id="svg2"
   version="1.1"
   sodipodi:docname="crutches.svg"
   inkscape:version="1.1.1 (3bf5ae0d25, 2021-09-20, custom)"
   xmlns:inkscape="http://www.inkscape.org/namespaces/inkscape"
   xmlns:sodipodi="http://sodipodi.sourceforge.net/DTD/sodipodi-0.dtd"
   xmlns="http://www.w3.org/2000/svg"
   xmlns:svg="http://www.w3.org/2000/svg"
   xmlns:rdf="http://www.w3.org/1999/02/22-rdf-syntax-ns#"
   xmlns:cc="http://creativecommons.org/ns#"
   xmlns:dc="http://purl.org/dc/elements/1.1/"><sodipodi:namedview
     id="namedview58"
     pagecolor="#ffffff"
     bordercolor="#666666"
     borderopacity="1.0"
     inkscape:pageshadow="2"
     inkscape:pageopacity="0.0"
     inkscape:pagecheckerboard="0"
     showgrid="false"
     inkscape:zoom="1.1171875"
     inkscape:cx="297.17483"
     inkscape:cy="263.16084"
     inkscape:window-width="944"
     inkscape:window-height="1038"
     inkscape:window-x="2884"
     inkscape:window-y="8"
     inkscape:window-maximized="1"
     inkscape:current-layer="svg2" /><metadata
     id="metadata8"><rdf:RDF><cc:Work
         rdf:about=""><dc:format>image/svg+xml</dc:format><dc:type
           rdf:resource="http://purl.org/dc/dcmitype/StillImage" /></cc:Work></rdf:RDF></metadata><defs
     id="defs6"><clipPath
       id="clipPath18"
       clipPathUnits="userSpaceOnUse"><path
         id="path16"
         d="M 0,576 H 576 V 0 H 0 Z" /></clipPath></defs><g
     transform="matrix(1.3333333,0,0,-1.3333333,-87.064637,646.91676)"
     id="g10"><g
       id="g12"><g
         clip-path="url(#clipPath18)"
         id="g14"><g
           transform="translate(107.2172,329.7257)"
           id="g20"><path
             id="path22"
             style="fill:#6b4e8a;fill-opacity:1;fill-rule:nonzero;stroke:none"
             d="m 0,0 c 57.312,-68.238 82.348,-73.374 114.463,-50.503 32.114,22.871 34.809,29.652 52.208,44.382 17.399,14.73 36.849,-9.831 83.224,-44.144 35.046,-25.931 54.511,-15.592 135.058,58.831 40.953,37.84 10.651,71.673 -57.742,134.625 C 272.242,193.786 197.597,69.116 152.453,106.892 88.019,160.809 72.527,161.584 40.352,139.753 -56.454,74.07 -53.503,63.703 0,0" /></g><g
           transform="translate(97.617,299.8057)"
           id="g24"><path
             id="path26"
             style="fill:#50deb6;fill-opacity:1;fill-rule:nonzero;stroke:none"
             d="M 0,0 C 7.938,68.047 69.25,117.151 136.943,109.678 204.637,102.206 253.079,40.985 245.141,-27.062 237.203,-95.108 175.891,-144.213 108.197,-136.74 40.504,-129.267 -7.938,-68.047 0,0" /></g><g
           transform="translate(203.6271,266.3987)"
           id="g28"><path
             id="path30"
             style="fill:#50deb6;fill-opacity:1;fill-rule:nonzero;stroke:#000000;stroke-width:8;stroke-linecap:butt;stroke-linejoin:miter;stroke-miterlimit:10;stroke-dasharray:none;stroke-opacity:1"
             d="M 0,0 19.223,1.965 40.091,-2.213" /></g><g
           transform="translate(120.1732,215.8534)"
           id="g32"><path
             id="path34"
             style="fill:#50deb6;fill-opacity:1;fill-rule:nonzero;stroke:none"
             d="m 0,0 c 1.222,-32.21 -4.635,-64.25 -9.084,-96.219 -0.392,-2.818 -0.764,-5.751 0.147,-8.445 0.911,-2.695 3.505,-5.067 6.413,-4.803 3.099,0.282 5.136,3.203 6.674,5.843 12.549,21.538 22.566,44.463 29.791,68.182 4.015,13.182 7.168,27.296 3.369,40.451 C 24.486,4.961 11.66,3.407 0,0" /></g><g
           transform="translate(151.02,204.3404)"
           id="g36"><path
             id="path38"
             style="fill:#50deb6;fill-opacity:1;fill-rule:nonzero;stroke:none"
             d="m 0,0 c 4.146,-31.981 0.794,-64.455 -1.076,-96.727 -0.164,-2.844 -0.297,-5.801 0.904,-8.401 1.202,-2.6 4.153,-4.721 7.203,-4.185 3.25,0.571 5.145,3.673 6.536,6.447 11.354,22.636 19.909,46.417 25.444,70.728 3.076,13.511 5.157,27.87 -0.023,40.622 C 25.439,7.236 12.021,4.487 0,0" /></g><g
           transform="translate(301.5829,207.096)"
           id="g40"><path
             id="path42"
             style="fill:#50deb6;fill-opacity:1;fill-rule:nonzero;stroke:none"
             d="m 0,0 c 5.212,-31.812 17.329,-62.059 28.052,-92.514 0.945,-2.684 1.893,-5.485 1.536,-8.306 -0.357,-2.821 -2.427,-5.659 -5.33,-5.975 -3.093,-0.336 -5.671,2.125 -7.704,4.408 -16.586,18.63 -30.965,39.12 -42.767,60.94 -6.559,12.127 -12.458,25.338 -11.352,38.982 C -24.986,0.023 -12.106,1.035 0,0" /></g><g
           transform="translate(276.5447,200.8082)"
           id="g44"><path
             id="path46"
             style="fill:#50deb6;fill-opacity:1;fill-rule:nonzero;stroke:none"
             d="m 0,0 c -3.335,-32.07 0.837,-64.455 3.522,-96.672 0.237,-2.839 0.445,-5.792 -0.691,-8.42 -1.135,-2.628 -4.032,-4.819 -7.094,-4.356 -3.264,0.493 -5.236,3.548 -6.698,6.288 -11.923,22.358 -21.077,45.927 -27.225,70.098 -3.417,13.433 -5.861,27.738 -1.004,40.61 C -25.614,6.625 -12.131,4.198 0,0" /></g><g
           transform="translate(161.5293,268.3639)"
           id="g48"><path
             id="path50"
             style="fill:#ffffff;fill-opacity:1;fill-rule:nonzero;stroke:none"
             d="M 0,0 C 0,5.475 16.416,20 20.56,20 31.914,20 41.119,11.046 41.119,0 41.119,-11.046 31.914,-20 20.56,-20 9.205,-20 0,-11.046 0,0" /></g><g
           transform="translate(161.5293,268.3639)"
           id="g52"><path
             id="path54"
             style="fill:none;stroke:#000000;stroke-width:8;stroke-linecap:butt;stroke-linejoin:miter;stroke-miterlimit:10;stroke-dasharray:none;stroke-opacity:1"
             d="M 0,0 C 0,5.475 16.416,20 20.56,20 31.914,20 41.119,11.046 41.119,0 41.119,-11.046 31.914,-20 20.56,-20 9.205,-20 0,-11.046 0,0 Z" /></g><g
           transform="translate(241.4374,268.3639)"
           id="g56"><path
             id="path58"
             style="fill:#ffffff;fill-opacity:1;fill-rule:nonzero;stroke:none"
             d="M 0,0 C 0,11.046 9.205,20 20.56,20 24.703,20 41.119,3.784 41.119,0 41.119,-11.046 31.914,-20 20.56,-20 9.205,-20 0,-11.046 0,0" /></g><g
           transform="translate(241.4374,268.3639)"
           id="g60"><path
             id="path62"
             style="fill:none;stroke:#000000;stroke-width:8;stroke-linecap:butt;stroke-linejoin:miter;stroke-miterlimit:10;stroke-dasharray:none;stroke-opacity:1"
             d="M 0,0 C 0,11.046 9.205,20 20.56,20 24.703,20 41.119,3.784 41.119,0 41.119,-11.046 31.914,-20 20.56,-20 9.205,-20 0,-11.046 0,0 Z" /></g><g
           transform="translate(309.6201,247.0718)"
           id="g64"><path
             id="path66"
             style="fill:#50deb6;fill-opacity:1;fill-rule:nonzero;stroke:none"
             d="m 0,0 c 8.316,-9.424 -0.516,-38.874 6.093,-61.124 0.928,-3.126 2.767,-6.054 5.337,-8.059 2.571,-2.006 6.4,-2.714 9.105,-0.895 1.506,1.013 2.471,2.636 3.337,4.23 6.82,12.544 10.612,26.722 10.965,40.996 0.147,5.937 -0.324,12.022 -2.704,17.463 C 29.753,-1.948 25.205,2.791 19.438,4.207 13.671,5.623 -4.288,4.859 0,0" /></g><g
           transform="translate(276.3326,170.1582)"
           id="g68"><path
             id="path70"
             style="fill:#c7c8bb;fill-opacity:1;fill-rule:nonzero;stroke:none"
             d="M 0,0 C 0,0 -19.49,-1.772 -33.423,-11.195 L -30.604,-21.503 0,-14.738 Z" /></g><g
           transform="translate(277.0929,159.7548)"
           id="g72"><path
             id="path74"
             style="fill:#d3d4c6;fill-opacity:1;fill-rule:nonzero;stroke:none"
             d="m 0,0 c -7.445,1.947 -25.377,3.77 -37.004,-0.674 l 6.051,-18.739 c 6.952,2.912 25.763,1.87 32.207,-0.429 z" /></g><g
           transform="translate(280.0775,108.2254)"
           id="g76"><path
             id="path78"
             style="fill:#e0e0d1;fill-opacity:1;fill-rule:nonzero;stroke:none"
             d="m 0,0 c 0,0 1.289,-8.478 -0.201,-12.322 -1.572,-4.053 -5.954,-6.092 -9.343,-4.606 -4.6,2.019 -8.942,12.873 -8.942,12.873 0,0 10.533,5.303 18.486,4.055" /></g><g
           transform="translate(278.3464,130.8563)"
           id="g80"><path
             id="path82"
             style="fill:#e4e9dd;fill-opacity:1;fill-rule:nonzero;stroke:none"
             d="m 0,0 c -7.327,3.056 -21.826,-2.174 -27.021,-5.141 l 10.266,-22.585 c 6.952,3.981 13.638,4.787 18.951,4.37 z" /></g><g
           transform="translate(278.3464,144.4632)"
           id="g84"><path
             id="path86"
             style="fill:#e0e0d1;fill-opacity:1;fill-rule:nonzero;stroke:none"
             d="m 0,0 c -7.445,1.947 -22.038,1.387 -33.665,-3.057 l 6.846,-17.154 c 6.952,2.912 20.858,6.648 27.302,4.349 z" /></g><g
           transform="translate(312.6196,208.1549)"
           id="g88"><path
             id="path90"
             style="fill:#c7c8bb;fill-opacity:1;fill-rule:nonzero;stroke:none"
             d="M 0,0 C 0,0 21.186,10.096 29.041,4.054 L 18.357,14.183 0.255,8.468 Z" /></g><g
           transform="translate(312.9565,230.3226)"
           id="g92"><path
             id="path94"
             style="fill:#d3d4c6;fill-opacity:1;fill-rule:nonzero;stroke:none"
             d="M 0,0 C 0,0 14.674,13.114 31.812,-11.07 L 30.67,-21.414 c 0,0 -12.058,16.86 -31.26,5.763 z" /></g><g
           transform="translate(312.778,234.6366)"
           id="g96"><path
             id="path98"
             style="fill:#e0e0d1;fill-opacity:1;fill-rule:nonzero;stroke:none"
             d="m 0,0 c 0,0 12.444,13.015 31.231,-0.759 l 0.844,-15.563 c 0,0 -9.081,16.247 -32.32,10.548 z" /></g><g
           transform="translate(113.8554,96.349)"
           id="g100"><path
             id="path102"
             style="fill:#333333;fill-opacity:1;fill-rule:nonzero;stroke:none"
             d="M 0,0 -1.706,4.633 C -2.221,6.03 -3.468,7.029 -4.944,7.226 -6.42,7.423 -7.884,6.786 -8.748,5.573 L -11.61,1.55 c -0.816,-1.146 -0.973,-2.637 -0.412,-3.928 0.56,-1.291 1.757,-2.195 3.152,-2.381 l 4.569,-0.61 c 1.396,-0.186 2.786,0.372 3.667,1.47 C 0.245,-2.801 0.486,-1.321 0,0" /></g><g
           transform="translate(124.6202,152.3379)"
           id="g104"><path
             id="path106"
             style="fill:#b3b3b3;fill-opacity:1;fill-rule:nonzero;stroke:none"
             d="m 0,0 c -0.35,-2.619 -1.699,-4.945 -3.798,-6.55 l -6.988,-5.342 -5.343,6.988 c -1.604,2.1 -2.295,4.698 -1.946,7.317 l 1.184,8.864 L 1.205,9.029 Z M 10.83,58.354 C 9.181,58.575 7.666,57.417 7.446,55.767 l -5.407,-40.491 -18.096,2.248 5.428,40.657 c 0.22,1.649 -0.938,3.164 -2.587,3.384 -1.649,0.22 -3.164,-0.938 -3.384,-2.587 L -24.046,3.211 c -0.563,-4.215 0.55,-8.395 3.132,-11.773 l 6.414,-8.39 -4.323,-32.375 5.971,-0.797 4.323,32.375 8.39,6.413 c 3.377,2.582 5.548,6.325 6.11,10.539 l 7.446,55.767 c 0.22,1.649 -0.937,3.164 -2.587,3.384" /></g><g
           transform="translate(146.8747,210.268)"
           id="g108"><path
             id="path110"
             style="fill:#808080;fill-opacity:1;fill-rule:nonzero;stroke:none"
             d="m 0,0 c -0.314,2.191 -2.351,3.712 -4.541,3.405 -0.069,-0.01 -6.958,-0.945 -18.64,0.615 -11.61,1.55 -18.006,4.235 -18.148,4.296 -2.029,0.881 -4.393,-0.051 -5.279,-2.082 -0.885,-2.034 0.045,-4.4 2.079,-5.286 0.295,-0.129 7.372,-3.166 20.285,-4.89 12.912,-1.724 20.538,-0.65 20.855,-0.603 C -1.197,-4.224 0.316,-2.192 0,0" /></g><g
           transform="translate(153.574,237.6652)"
           id="g112"><path
             id="path114"
             style="fill:#50deb6;fill-opacity:1;fill-rule:nonzero;stroke:none"
             d="m 0,0 c -26.892,-17.805 -49.552,-41.279 -72.967,-63.563 -2.064,-1.964 -4.233,-3.979 -6.951,-4.81 -2.718,-0.83 -6.146,-0.102 -7.614,2.422 -1.563,2.689 -0.367,6.054 0.889,8.848 10.25,22.795 23.093,44.338 38.196,64.068 8.393,10.966 18.044,21.773 30.936,26.356 C -10.132,22.845 -3.975,11.489 0,0" /></g></g></g></g></svg>
