<?xml version="1.0" encoding="UTF-8" standalone="no"?>
<svg
   width="482.19592"
   height="370.91876"
   viewBox="0 0 482.19592 370.91876"
   fill="none"
   version="1.1"
   id="svg40"
   sodipodi:docname="exercise.svg"
   inkscape:version="1.1.1 (3bf5ae0d25, 2021-09-20, custom)"
   xmlns:inkscape="http://www.inkscape.org/namespaces/inkscape"
   xmlns:sodipodi="http://sodipodi.sourceforge.net/DTD/sodipodi-0.dtd"
   xmlns="http://www.w3.org/2000/svg"
   xmlns:svg="http://www.w3.org/2000/svg">
  <defs
     id="defs44" />
  <sodipodi:namedview
     id="namedview42"
     pagecolor="#ffffff"
     bordercolor="#666666"
     borderopacity="1.0"
     inkscape:pageshadow="2"
     inkscape:pageopacity="0.0"
     inkscape:pagecheckerboard="0"
     showgrid="false"
     inkscape:zoom="1.0337349"
     inkscape:cx="200.24476"
     inkscape:cy="181.8648"
     inkscape:window-width="1920"
     inkscape:window-height="1038"
     inkscape:window-x="1920"
     inkscape:window-y="20"
     inkscape:window-maximized="1"
     inkscape:current-layer="svg40" />
  <path
     opacity="0.5"
     d="m 471.12702,159.85102 c 38.18,66.37 -28.89,227.77 -102.35,209.66 -35.87,-8.84 -180.26,-334.2402 -214.52,-348.2402 C 95.547018,-2.7291804 -28.593282,141.14102 5.9767177,215.87102 69.007018,352.07102 396.42702,29.91082 471.12702,159.85102 Z"
     fill="#eb807c"
     id="path2" />
  <path
     d="m 246.15702,270.16802 c 65.941,-6.64 113.834,-67.26 106.973,-135.399 -6.861,-68.1388 -65.879,-117.9935 -131.82,-111.3536 -65.94,6.6399 -113.834,67.2596 -106.973,135.3986 6.862,68.139 65.879,117.994 131.82,111.354 z"
     fill="#50deb6"
     id="path4" />
  <path
     d="m 155.93702,231.38102 c -1.38,32.2 -9.62,63.65 -16.49,95.14 -0.6,2.77 -1.2,5.66 -0.53,8.43 0.67,2.77 3,5.34 5.83,5.31 3,0 5.24,-2.76 6.94,-5.27 13.902,-20.447 25.42,-42.416 34.33,-65.48 4.94,-12.8 9.13,-26.61 6.5,-40 -12.22,-1.118 -24.538,-0.488 -36.58,1.87 z"
     fill="#50deb6"
     id="path6" />
  <path
     d="m 66.127018,254.55102 -21.59,-27.32 c 0,0 -11.1103,4.3 -15.7503,-1.69 -5.19,-6.69 -3.66,-14.88 5.65,-22.6 9.1603,-7.58 17.9403,-5.25 22.9203,1.3 4.98,6.55 -3.83,16.94 -3.83,16.94 l 19.87,27.07 c 0,0 13.86,-6.95 20.73,0.13 7.290002,7.49 2.11,20.35 -5.51,26 -11.43,8.52 -21.67,7.26 -27.45,-0.61 -6.04,-8.1 4.96,-19.22 4.96,-19.22 z"
     fill="#676b6a"
     id="path8" />
  <path
     d="m 191.21702,242.67102 c 6,31.68 4.68,64.29 4.82,96.61 0,2.85 0.06,5.81 1.39,8.34 1.33,2.53 4.32,4.46 7.25,3.75 3.12,-0.76 4.77,-4 5.95,-6.82 9.617,-23.147 16.471,-47.348 20.42,-72.1 2.16,-13.67 3.31,-28.13 -2.49,-40.55 -12.873,1.9 -25.432,5.523 -37.34,10.77 z"
     fill="#50deb6"
     id="path10" />
  <path
     d="m 310.71702,158.32102 c 29.68,-12.57 56.26,-31.28 83.36,-48.73 2.39,-1.54 4.89,-3.11 7.71,-3.45 2.82,-0.34 6.05,0.94 7,3.61 1,2.84 -0.76,5.87 -2.51,8.34 -14.294,20.174 -30.849,38.647 -49.34,55.06 -10.26,9.12 -21.73,17.86 -35.23,20.09 -5.308,-11.058 -9.008,-22.816 -10.99,-34.92 z"
     fill="#50deb6"
     id="path12" />
  <path
     d="m 331.36702,194.76102 c 15,28.52 35.88,53.44 55.54,79 1.73,2.25 3.5,4.61 4.08,7.4 0.58,2.79 -0.43,6.1 -3,7.29 -2.74,1.27 -5.91,-0.26 -8.52,-1.8 -21.3,-12.554 -41.095,-27.501 -59,-44.55 -9.94,-9.47 -19.62,-20.16 -23,-33.42 10.578,-6.234 21.994,-10.921 33.9,-13.92 z"
     fill="#50deb6"
     id="path14" />
  <path
     d="m 309.89702,232.72102 c 8.37,31.12 23.69,60 37.59,89.13 1.22,2.57 2.46,5.26 2.36,8.11 -0.1,2.85 -2,5.9 -4.9,6.52 -3.14,0.67 -6,-1.5 -8.32,-3.56 -18.71,-16.679 -35.389,-35.506 -49.69,-56.09 -7.88,-11.37 -15.19,-23.9 -15.36,-37.61 12.424,-3.875 25.313,-6.061 38.32,-6.5 z"
     fill="#50deb6"
     id="path16" />
  <path
     d="m 137.78702,219.38102 c -28.11,5.36 -55.840002,14.2 -79.940002,28.4 -6.05,3.57 -15.13,-9.15 -10.56,-14.38 14.05,-16.07 30.19,-27.06 48,-38.59 9.900002,-6.42 20.900002,-12.21 33.550002,-11.31 4.478,11.537 7.485,23.592 8.95,35.88 z"
     fill="#50deb6"
     id="path18" />
  <path
     d="m 220.30702,124.84102 20.33,-3.1 18.71,1.83"
     fill="#000000"
     id="path20" />
  <path
     fill-rule="evenodd"
     clip-rule="evenodd"
     d="m 240.52902,117.71102 19.207,1.879 -0.778,7.962 -18.212,-1.782 -19.836,3.025 -1.206,-7.909 z"
     fill="#000000"
     id="path22" />
  <path
     d="m 199.25702,144.75102 c 11.046,0 20,-8.954 20,-20 0,-11.046 -8.954,-20 -20,-20 -11.046,0 -20,8.954 -20,20 0,11.046 8.954,20 20,20 z"
     fill="#ffffff"
     id="path24" />
  <path
     d="m 276.68702,137.83102 c 11.046,0 20,-8.954 20,-20 0,-11.046 -8.954,-20 -20,-20 -11.046,0 -20,8.954 -20,20 0,11.046 8.954,20 20,20 z"
     fill="#ffffff"
     id="path26" />
  <path
     fill-rule="evenodd"
     clip-rule="evenodd"
     d="m 276.68702,101.83102 c -8.837,0 -16,7.163 -16,16 0,8.837 7.163,16 16,16 8.837,0 16,-7.163 16,-16 0,-8.837 -7.163,-16 -16,-16 z m -24,16 c 0,-13.255 10.745,-24 24,-24 13.255,0 24,10.745 24,24 0,13.255 -10.745,24 -24,24 -13.255,0 -24,-10.745 -24,-24 z m -53.43,-9.08 c -8.837,0 -16,7.163 -16,16 0,8.837 7.163,16 16,16 8.836,0 16,-7.163 16,-16 0,-8.837 -7.164,-16 -16,-16 z m -24,16 c 0,-13.255 10.745,-24 24,-24 13.255,0 24,10.745 24,24 0,13.255 -10.745,24 -24,24 -13.255,0 -24,-10.745 -24,-24 z"
     fill="#000000"
     id="path28" />
  <path
     d="m 410.60702,124.38102 -32,-13.79 c 0,0 -6.48,11.21 -13.48,8.15 -7.74,-3.43 -10.33,-12.47 -5.79,-23.69 4.46,-11 12.5,-16.69 20,-13.3 7.5,3.39 4.32,19.2 4.32,19.2 l 30.36,14.43 c 0,0 7.91,-13.8 17.32,-10.84 10,3.14 8.91,17.67 4.9,26.28 -6,12.93 -13.31,18.84 -22.14,14.67 -9.11,-4.35 -3.49,-21.11 -3.49,-21.11 z"
     fill="#676b6a"
     id="path30" />
  <path
     d="m 408.49702,112.17102 c 3.5,-7.43 -3.39,-15.26 -10.36,-12 -4.563,2.154 -8.793,4.952 -12.56,8.31 -11,9.63 8.81,16.12 16.76,10.55 2.622,-1.704 4.747,-4.071 6.16,-6.86 z"
     fill="#50deb6"
     id="path32" />
  <path
     d="m 330.26702,21.38102 c 0,0 4.66,-28.9000004 16.6,-17.0000004 9.99,10.0000004 -16.6,17.0000004 -16.6,17.0000004 z"
     fill="#29abe2"
     id="path34" />
  <path
     d="m 304.82702,22.92092 c 0,0 -6.52,-28.5300004 9,-21.9300004 13.03,5.5 -9,21.9300004 -9,21.9300004 z"
     fill="#29abe2"
     id="path36" />
  <path
     d="m 332.45702,40.21092 c 0,0 23.72,-17.14 23.72,-0.24 0,14.12 -23.72,0.24 -23.72,0.24 z"
     fill="#29abe2"
     id="path38" />
</svg>
