<svg width="482.196" height="370.919" viewBox="0 0 482.196 370.919" fill="none" xmlns="http://www.w3.org/2000/svg"><path opacity=".5" d="M471.127 159.851c38.18 66.37-28.89 227.77-102.35 209.66-35.87-8.84-180.26-334.24-214.52-348.24-58.71-24-182.85 119.87-148.28 194.6 63.03 136.2 390.45-185.96 465.15-56.02Z" fill="#eb807c"/><path d="M246.157 270.168c65.941-6.64 113.834-67.26 106.973-135.399-6.861-68.139-65.879-117.993-131.82-111.354-65.94 6.64-113.834 67.26-106.973 135.399 6.862 68.139 65.879 117.994 131.82 111.354z" fill="#50deb6"/><path d="M155.937 231.381c-1.38 32.2-9.62 63.65-16.49 95.14-.6 2.77-1.2 5.66-.53 8.43.67 2.77 3 5.34 5.83 5.31 3 0 5.24-2.76 6.94-5.27a324.325 324.325 0 0 0 34.33-65.48c4.94-12.8 9.13-26.61 6.5-40a129.137 129.137 0 0 0-36.58 1.87z" fill="#50deb6"/><path d="m66.127 254.551-21.59-27.32s-11.11 4.3-15.75-1.69c-5.19-6.69-3.66-14.88 5.65-22.6 9.16-7.58 17.94-5.25 22.92 1.3s-3.83 16.94-3.83 16.94l19.87 27.07s13.86-6.95 20.73.13c7.29 7.49 2.11 20.35-5.51 26-11.43 8.52-21.67 7.26-27.45-.61-6.04-8.1 4.96-19.22 4.96-19.22z" fill="#676b6a"/><path d="M191.217 242.671c6 31.68 4.68 64.29 4.82 96.61 0 2.85.06 5.81 1.39 8.34 1.33 2.53 4.32 4.46 7.25 3.75 3.12-.76 4.77-4 5.95-6.82a318.85 318.85 0 0 0 20.42-72.1c2.16-13.67 3.31-28.13-2.49-40.55a145.176 145.176 0 0 0-37.34 10.77zM310.717 158.321c29.68-12.57 56.26-31.28 83.36-48.73 2.39-1.54 4.89-3.11 7.71-3.45 2.82-.34 6.05.94 7 3.61 1 2.84-.76 5.87-2.51 8.34a324.361 324.361 0 0 1-49.34 55.06c-10.26 9.12-21.73 17.86-35.23 20.09a128.781 128.781 0 0 1-10.99-34.92zM331.367 194.761c15 28.52 35.88 53.44 55.54 79 1.73 2.25 3.5 4.61 4.08 7.4.58 2.79-.43 6.1-3 7.29-2.74 1.27-5.91-.26-8.52-1.8a324.488 324.488 0 0 1-59-44.55c-9.94-9.47-19.62-20.16-23-33.42a128.669 128.669 0 0 1 33.9-13.92zM309.897 232.721c8.37 31.12 23.69 60 37.59 89.13 1.22 2.57 2.46 5.26 2.36 8.11-.1 2.85-2 5.9-4.9 6.52-3.14.67-6-1.5-8.32-3.56a318.902 318.902 0 0 1-49.69-56.09c-7.88-11.37-15.19-23.9-15.36-37.61a145.142 145.142 0 0 1 38.32-6.5zM137.787 219.381c-28.11 5.36-55.84 14.2-79.94 28.4-6.05 3.57-15.13-9.15-10.56-14.38 14.05-16.07 30.19-27.06 48-38.59 9.9-6.42 20.9-12.21 33.55-11.31a147.377 147.377 0 0 1 8.95 35.88z" fill="#50deb6"/><path d="m220.307 124.841 20.33-3.1 18.71 1.83" fill="#000"/><path fill-rule="evenodd" clip-rule="evenodd" d="m240.529 117.711 19.207 1.879-.778 7.962-18.212-1.782-19.836 3.025-1.206-7.909z" fill="#000"/><path d="M199.257 144.751c11.046 0 20-8.954 20-20s-8.954-20-20-20-20 8.954-20 20 8.954 20 20 20zM276.687 137.831c11.046 0 20-8.954 20-20s-8.954-20-20-20-20 8.954-20 20 8.954 20 20 20z" fill="#fff"/><path fill-rule="evenodd" clip-rule="evenodd" d="M276.687 101.831c-8.837 0-16 7.163-16 16s7.163 16 16 16 16-7.163 16-16-7.163-16-16-16zm-24 16c0-13.255 10.745-24 24-24s24 10.745 24 24-10.745 24-24 24-24-10.745-24-24zm-53.43-9.08c-8.837 0-16 7.163-16 16s7.163 16 16 16c8.836 0 16-7.163 16-16s-7.164-16-16-16zm-24 16c0-13.255 10.745-24 24-24s24 10.745 24 24-10.745 24-24 24-24-10.745-24-24z" fill="#000"/><path d="m410.607 124.381-32-13.79s-6.48 11.21-13.48 8.15c-7.74-3.43-10.33-12.47-5.79-23.69 4.46-11 12.5-16.69 20-13.3 7.5 3.39 4.32 19.2 4.32 19.2l30.36 14.43s7.91-13.8 17.32-10.84c10 3.14 8.91 17.67 4.9 26.28-6 12.93-13.31 18.84-22.14 14.67-9.11-4.35-3.49-21.11-3.49-21.11z" fill="#676b6a"/><path d="M408.497 112.171c3.5-7.43-3.39-15.26-10.36-12a52.651 52.651 0 0 0-12.56 8.31c-11 9.63 8.81 16.12 16.76 10.55a17.747 17.747 0 0 0 6.16-6.86z" fill="#50deb6"/><path d="M330.267 21.381s4.66-28.9 16.6-17c9.99 10-16.6 17-16.6 17zM304.827 22.92s-6.52-28.53 9-21.93c13.03 5.5-9 21.93-9 21.93zM332.457 40.21s23.72-17.14 23.72-.24c0 14.12-23.72.24-23.72.24z" fill="#29abe2"/></svg>