<?xml version="1.0" encoding="UTF-8" standalone="no"?>
<svg
   width="506.40509"
   height="438.66055"
   viewBox="0 0 506.40509 438.66055"
   fill="none"
   version="1.1"
   id="svg46"
   sodipodi:docname="experiment.svg"
   inkscape:version="1.1.1 (3bf5ae0d25, 2021-09-20, custom)"
   xmlns:inkscape="http://www.inkscape.org/namespaces/inkscape"
   xmlns:sodipodi="http://sodipodi.sourceforge.net/DTD/sodipodi-0.dtd"
   xmlns="http://www.w3.org/2000/svg"
   xmlns:svg="http://www.w3.org/2000/svg">
  <defs
     id="defs50" />
  <sodipodi:namedview
     id="namedview48"
     pagecolor="#ffffff"
     bordercolor="#666666"
     borderopacity="1.0"
     inkscape:pageshadow="2"
     inkscape:pageopacity="0.0"
     inkscape:pagecheckerboard="0"
     showgrid="false"
     inkscape:zoom="0.69099957"
     inkscape:cx="69.464588"
     inkscape:cy="166.42557"
     inkscape:window-width="1920"
     inkscape:window-height="1038"
     inkscape:window-x="1920"
     inkscape:window-y="20"
     inkscape:window-maximized="1"
     inkscape:current-layer="svg46" />
  <path
     opacity="0.5"
     d="M 504.56797,375.559 C 524.83797,262.819 372.33797,9.1692576 294.95797,0.37925961 190.02797,-11.520702 2.6076719,260.569 2.6076719,260.569 c -5.59,7.74 -1.74000003,18.36 7.24,20 0,0 312.4702981,113.48 423.1502981,122.55 46.48,3.8 68.16,-8.57 71.57,-27.56 z"
     fill="#a8dcff"
     id="path2" />
  <path
     d="m 152.73797,141.379 c 8.974,0 16.25,-7.275 16.25,-16.25 0,-8.974 -7.276,-16.25 -16.25,-16.25 -8.975,0 -16.25,7.276 -16.25,16.25 0,8.975 7.275,16.25 16.25,16.25 z"
     fill="#ffffff"
     id="path4" />
  <path
     d="m 177.72797,108.88 c 5.484,0 9.93,-4.446 9.93,-9.930502 0,-5.4842 -4.446,-9.93 -9.93,-9.93 -5.484,0 -9.93,4.4458 -9.93,9.93 0,5.484502 4.446,9.930502 9.93,9.930502 z"
     fill="#ffffff"
     id="path6" />
  <path
     d="m 395.23297,261.759 c 7.717,-68.047 -39.411,-129.264 -105.263,-136.732 -65.852,-7.468 -125.491,41.641 -133.208,109.689 -7.717,68.047 39.411,129.264 105.263,136.732 65.852,7.468 125.491,-41.641 133.208,-109.689 z"
     fill="#50deb6"
     id="path8" />
  <path
     d="m 198.06797,251.859 c -26.74,18 -56.93,30 -86.35,43.22 -2.59,1.16 -5.27,2.39 -7.1,4.57 -1.83,2.18 -2.52,5.58 -0.81,7.85 1.71,2.27 5.33,2.57 8.36,2.46 24.706,-0.96 49.221,-4.738 73.07,-11.26 13.24,-3.62 26.83,-8.45 36.07,-18.54 -6.363,-10.489 -14.189,-20.018 -23.24,-28.3 z"
     fill="#50deb6"
     id="path10" />
  <path
     d="m 359.46797,248.31 c 29.49,13 61.34,19.5 92.62,27.26 2.76,0.68 5.62,1.43 7.8,3.25 2.18,1.82 3.46,5 2.19,7.58 -1.36,2.7 -4.8,3.47 -7.8,3.89 -24.483,3.429 -49.277,4.05 -73.9,1.85 -13.68,-1.22 -27.91,-3.57 -38.79,-11.87 4.41,-11.45 10.43,-22.212 17.88,-31.96 z"
     fill="#50deb6"
     id="path12" />
  <path
     d="m 364.20797,282.949 c 23.73,21.8 51.78,38.23 78.9,55.66 2.38,1.53 4.85,3.16 6.33,5.58 1.48,2.42 1.65,5.9 -0.37,7.89 -2.02,1.99 -5.66,1.74 -8.63,1.17 -24.287,-4.647 -47.963,-12.052 -70.57,-22.07 -12.54,-5.56 -25.26,-12.37 -32.88,-23.73 7.859,-9.422 17.025,-17.673 27.22,-24.5 z"
     fill="#50deb6"
     id="path14" />
  <path
     d="m 349.42797,314 c 15.25,28.4 36.73,53 56.92,78.21 1.78,2.22 3.6,4.56 4.16,7.35 0.56,2.79 -0.56,6.189 -3.29,7.479 -2.91,1.36 -6.21,-0.089 -8.92,-1.569 -22.021,-11.97 -42.55,-26.501 -61.16,-43.29 -10.27,-9.27 -20.25,-19.8 -23.53,-33.11 11.21,-6.608 23.258,-11.677 35.82,-15.07 z"
     fill="#50deb6"
     id="path16" />
  <path
     d="m 318.69797,334.77 c 8.38,31.13 23.69,60 37.59,89.13 1.23,2.57 2.47,5.26 2.37,8.11 -0.1,2.85 -1.95,5.9 -4.9,6.53 -3.14,0.66 -6,-1.511 -8.33,-3.561 -18.73,-16.674 -35.422,-35.505 -49.73,-56.099 -7.89,-11.37 -15.2,-23.89 -15.36,-37.6 12.435,-3.888 25.338,-6.078 38.36,-6.51 z"
     fill="#50deb6"
     id="path18" />
  <path
     d="m 188.69797,431.039 -52.06,-59 c -0.154,-0.174 -0.254,-0.388 -0.288,-0.617 -0.033,-0.229 0,-0.463 0.098,-0.673 l 4.83,-10.63 c 0.103,-0.224 0.134,-0.473 0.089,-0.715 -0.045,-0.242 -0.163,-0.464 -0.339,-0.635 l -4.39,-4.31 c -0.118,-0.116 -0.211,-0.255 -0.273,-0.408 -0.062,-0.154 -0.091,-0.318 -0.087,-0.483 0.005,-0.165 0.044,-0.328 0.114,-0.478 0.071,-0.149 0.171,-0.282 0.296,-0.391 l 12,-10.42 c 0.132,-0.113 0.287,-0.196 0.454,-0.243 0.168,-0.047 0.343,-0.058 0.515,-0.032 0.172,0.027 0.336,0.09 0.481,0.186 0.145,0.096 0.268,0.221 0.36,0.369 l 3.34,5.39 c 0.136,0.216 0.336,0.384 0.574,0.479 0.237,0.095 0.498,0.113 0.746,0.051 l 10.95,-2.87 c 0.218,-0.058 0.449,-0.053 0.664,0.014 0.216,0.067 0.409,0.194 0.556,0.366 l 50.79,59.34 c 0.204,0.239 0.306,0.55 0.284,0.864 -0.023,0.315 -0.168,0.607 -0.404,0.816 l -27.6,24.15 c -0.119,0.105 -0.257,0.186 -0.408,0.237 -0.15,0.052 -0.309,0.072 -0.468,0.061 -0.158,-0.011 -0.313,-0.054 -0.454,-0.126 -0.142,-0.072 -0.268,-0.171 -0.37,-0.292 z"
     fill="#ebf0ef"
     id="path20" />
  <path
     d="m 155.01797,352.929 c 2.9,-1.62 9.21,-2.41 9.21,-2.41 0.059,-0.014 0.121,-0.012 0.179,0.005 0.058,0.018 0.11,0.051 0.151,0.095 l 8.2,9.48 c 0.056,0.06 0.088,0.138 0.088,0.22 0,0.082 -0.032,0.161 -0.088,0.22 l -11.78,11.84 c -0.048,0.062 -0.073,0.138 -0.07,0.217 0.003,0.078 0.034,0.152 0.086,0.21 0.053,0.058 0.125,0.095 0.202,0.104 0.078,0.01 0.156,-0.008 0.222,-0.051 l 12.79,-10.68 c 0.062,-0.06 0.144,-0.093 0.23,-0.093 0.086,0 0.168,0.033 0.23,0.093 l 37.94,44 c 0.06,0.062 0.093,0.144 0.093,0.23 0,0.086 -0.033,0.169 -0.093,0.23 l -21.56,18.87 c -0.062,0.06 -0.144,0.094 -0.23,0.094 -0.086,0 -0.168,-0.034 -0.23,-0.094 l -33.73,-38.13 c -0.057,-0.061 -0.089,-0.141 -0.089,-0.225 0,-0.083 0.032,-0.164 0.089,-0.225 l 11.48,-11.17 c 0.058,-0.06 0.092,-0.14 0.094,-0.223 0.001,-0.084 -0.029,-0.165 -0.085,-0.228 -0.056,-0.062 -0.133,-0.101 -0.217,-0.108 -0.083,-0.007 -0.166,0.018 -0.232,0.069 l -12.31,10 c -0.061,0.057 -0.142,0.089 -0.225,0.089 -0.084,0 -0.164,-0.032 -0.225,-0.089 l -6.31,-7.08 c -0.056,-0.059 -0.088,-0.138 -0.088,-0.22 0,-0.082 0.032,-0.16 0.088,-0.22 l 9.87,-10.28 c 0.056,-0.061 0.087,-0.141 0.086,-0.224 -0.001,-0.083 -0.032,-0.163 -0.089,-0.224 -0.057,-0.06 -0.135,-0.097 -0.217,-0.103 -0.083,-0.006 -0.165,0.019 -0.23,0.071 l -10.94,9.2 c -0.062,0.06 -0.144,0.094 -0.23,0.094 -0.086,0 -0.168,-0.034 -0.23,-0.094 l -5.34,-6 c -0.043,-0.048 -0.072,-0.107 -0.082,-0.171 -0.011,-0.064 -0.003,-0.129 0.022,-0.189 1.041,-3.086 2.381,-6.063 4,-8.89"
     fill="#29abe2"
     id="path22" />
  <path
     d="m 155.01797,352.929 c 2.9,-1.62 9.21,-2.41 9.21,-2.41 0.059,-0.014 0.121,-0.012 0.179,0.005 0.058,0.018 0.11,0.051 0.151,0.095 l 8.2,9.48 c 0.056,0.06 0.088,0.138 0.088,0.22 0,0.082 -0.032,0.161 -0.088,0.22 l -11.78,11.84 c -0.048,0.062 -0.073,0.138 -0.07,0.217 0.003,0.078 0.034,0.152 0.086,0.21 0.053,0.058 0.125,0.095 0.202,0.104 0.078,0.01 0.156,-0.008 0.222,-0.051 l 12.79,-10.68 c 0.062,-0.06 0.144,-0.093 0.23,-0.093 0.086,0 0.168,0.033 0.23,0.093 l 37.94,44 c 0.06,0.062 0.093,0.144 0.093,0.23 0,0.086 -0.033,0.169 -0.093,0.23 l -21.56,18.87 c -0.062,0.06 -0.144,0.094 -0.23,0.094 -0.086,0 -0.168,-0.034 -0.23,-0.094 l -33.73,-38.13 c -0.057,-0.061 -0.089,-0.141 -0.089,-0.225 0,-0.083 0.032,-0.164 0.089,-0.225 l 11.48,-11.17 c 0.058,-0.06 0.092,-0.14 0.094,-0.223 0.001,-0.084 -0.029,-0.165 -0.085,-0.228 -0.056,-0.062 -0.133,-0.101 -0.217,-0.108 -0.083,-0.007 -0.166,0.018 -0.232,0.069 l -12.31,10 c -0.061,0.057 -0.142,0.089 -0.225,0.089 -0.084,0 -0.164,-0.032 -0.225,-0.089 l -6.31,-7.08 c -0.056,-0.059 -0.088,-0.138 -0.088,-0.22 0,-0.082 0.032,-0.16 0.088,-0.22 l 9.87,-10.28 c 0.056,-0.061 0.087,-0.141 0.086,-0.224 -0.001,-0.083 -0.032,-0.163 -0.089,-0.224 -0.057,-0.06 -0.135,-0.097 -0.217,-0.103 -0.083,-0.006 -0.165,0.019 -0.23,0.071 l -10.94,9.2 c -0.062,0.06 -0.144,0.094 -0.23,0.094 -0.086,0 -0.168,-0.034 -0.23,-0.094 l -5.34,-6 c -0.043,-0.048 -0.072,-0.107 -0.082,-0.171 -0.011,-0.064 -0.003,-0.129 0.022,-0.189 1.041,-3.086 2.381,-6.063 4,-8.89"
     fill="#29abe2"
     id="path24" />
  <path
     d="m 225.93797,322.489 c -18.84,26.14 -43,47.89 -66,70.44 -2,2 -4.11,4.07 -5.07,6.75 -0.96,2.68 -0.43,6.1 1.95,7.64 2.55,1.65 5.9,0.57 8.69,-0.59 22.85,-9.448 44.545,-21.479 64.66,-35.86 11.17,-8 22.24,-17.22 27.42,-29.88 -9.616,-7.642 -20.274,-13.871 -31.65,-18.5 z"
     fill="#50deb6"
     id="path26" />
  <path
     d="m 218.39797,231.75 -18.48,-6.24 -17.99,-0.221"
     fill="#ffffff"
     id="path28" />
  <path
     d="m 257.50397,239.2 c 3.242,-12.853 -2.555,-25.397 -12.949,-28.02 -10.395,-2.622 -21.449,5.671 -24.692,18.523 -3.242,12.852 2.555,25.397 12.949,28.019 10.394,2.622 21.449,-5.67 24.692,-18.522 z"
     fill="#ffffff"
     id="path30" />
  <path
     d="m 183.12897,225.586 c 3.243,-12.852 -0.892,-24.977 -9.235,-27.082 -8.343,-2.105 -17.735,6.607 -20.978,19.46 -3.242,12.852 0.893,24.977 9.236,27.082 8.343,2.105 17.735,-6.608 20.977,-19.46 z"
     fill="#ffffff"
     id="path32" />
  <path
     fill-rule="evenodd"
     clip-rule="evenodd"
     d="m 164.21297,205.557 c -3.151,2.923 -5.958,7.597 -7.418,13.385 -1.461,5.787 -1.207,11.233 0.18,15.301 1.402,4.112 3.733,6.313 6.155,6.924 2.423,0.611 5.518,-0.221 8.703,-3.175 3.151,-2.923 5.958,-7.597 7.418,-13.385 1.46,-5.787 1.207,-11.234 -0.181,-15.301 -1.402,-4.112 -3.732,-6.313 -6.155,-6.924 -2.422,-0.611 -5.518,0.221 -8.702,3.175 z m -5.441,-5.865 c 4.408,-4.089 10.18,-6.561 16.1,-5.067 5.921,1.494 9.83,6.408 11.77,12.099 1.473,4.32 1.946,9.383 1.327,14.639 l 12.629,0.154 15.907,5.371 c 4.169,-13.246 16.342,-22.787 29.028,-19.586 13.265,3.346 19.428,18.691 15.849,32.876 -3.579,14.184 -16.284,24.769 -29.548,21.422 -11.37,-2.868 -17.522,-14.551 -16.794,-26.763 l -15.803,-5.336 -13.034,-0.159 c -1.932,5.883 -5.081,10.945 -8.929,14.515 -4.408,4.089 -10.18,6.56 -16.101,5.067 -5.92,-1.494 -9.829,-6.408 -11.77,-12.099 -1.955,-5.734 -2.148,-12.776 -0.365,-19.84 1.782,-7.065 5.292,-13.173 9.734,-17.293 z m 84.804,15.367 c -7.524,-1.899 -16.928,4.102 -19.834,15.622 -2.907,11.52 2.525,21.264 10.049,23.162 7.523,1.898 16.928,-4.103 19.834,-15.622 2.906,-11.52 -2.525,-21.264 -10.049,-23.162 z"
     fill="#000000"
     id="path34" />
  <path
     d="m 118.41797,334.049 -25.239998,-67.67 c -0.073,-0.199 -0.088,-0.415 -0.042,-0.623 0.046,-0.207 0.151,-0.397 0.302,-0.547 l 7.689998,-7.51 c 0.161,-0.158 0.269,-0.362 0.31,-0.584 0.041,-0.221 0.013,-0.45 -0.08,-0.656 l -2.349998,-5.13 c -0.065,-0.138 -0.099,-0.288 -0.102,-0.441 -0.003,-0.152 0.026,-0.303 0.086,-0.444 0.059,-0.14 0.147,-0.266 0.259,-0.371 0.111,-0.104 0.243,-0.184 0.387,-0.234 l 13.779998,-5 c 0.151,-0.055 0.311,-0.076 0.471,-0.063 0.16,0.013 0.315,0.061 0.455,0.139 0.14,0.079 0.261,0.188 0.355,0.318 0.094,0.13 0.158,0.279 0.189,0.436 l 1.09,5.71 c 0.044,0.239 0.166,0.456 0.347,0.617 0.181,0.161 0.411,0.257 0.653,0.273 l 10.38,1.16 c 0.206,0.024 0.402,0.105 0.564,0.234 0.163,0.129 0.286,0.301 0.356,0.496 l 24,67.57 c 0.049,0.135 0.071,0.279 0.064,0.423 -0.006,0.144 -0.041,0.285 -0.103,0.415 -0.061,0.13 -0.147,0.247 -0.254,0.343 -0.107,0.097 -0.232,0.171 -0.367,0.219 l -31.78,11.57 c -0.275,0.101 -0.578,0.089 -0.844,-0.033 -0.266,-0.121 -0.473,-0.343 -0.576,-0.617 z"
     fill="#ebf0ef"
     id="path36" />
  <path
     d="m 115.34797,256.049 c 3,-0.43 8.73,1 8.73,1 0.056,0.007 0.109,0.029 0.154,0.064 0.044,0.036 0.077,0.083 0.096,0.136 l 3.91,10.81 c 0.024,0.072 0.021,0.151 -0.008,0.221 -0.03,0.07 -0.084,0.127 -0.152,0.159 l -14.07,6.26 c -0.075,0.03 -0.134,0.087 -0.166,0.16 -0.032,0.073 -0.034,0.156 -0.004,0.23 0.029,0.075 0.086,0.134 0.159,0.166 0.074,0.032 0.156,0.034 0.231,0.004 l 14.57,-4.93 c 0.074,-0.023 0.154,-0.017 0.225,0.016 0.07,0.033 0.125,0.092 0.155,0.164 l 18.08,50.17 c 0.014,0.037 0.02,0.076 0.019,0.116 -0.002,0.039 -0.011,0.077 -0.028,0.113 -0.017,0.036 -0.041,0.067 -0.07,0.093 -0.03,0.026 -0.064,0.046 -0.101,0.058 l -24.83,9 c -0.075,0.026 -0.156,0.022 -0.227,-0.012 -0.071,-0.034 -0.126,-0.094 -0.153,-0.168 l -16.38,-43.75 c -0.025,-0.074 -0.021,-0.155 0.01,-0.227 0.032,-0.072 0.088,-0.13 0.16,-0.163 l 13.59,-5.77 c 0.074,-0.029 0.134,-0.086 0.165,-0.159 0.032,-0.074 0.034,-0.156 0.005,-0.231 -0.03,-0.074 -0.087,-0.133 -0.16,-0.165 -0.073,-0.032 -0.156,-0.034 -0.23,-0.005 l -13.92,4.49 c -0.036,0.013 -0.075,0.018 -0.113,0.016 -0.038,-0.002 -0.075,-0.012 -0.11,-0.029 -0.034,-0.016 -0.065,-0.04 -0.09,-0.068 -0.026,-0.029 -0.045,-0.062 -0.057,-0.099 l -3.04,-8.12 c -0.025,-0.072 -0.022,-0.15 0.007,-0.22 0.03,-0.07 0.084,-0.127 0.153,-0.16 l 11.9,-5.5 c 0.061,-0.036 0.107,-0.094 0.13,-0.161 0.022,-0.068 0.02,-0.141 -0.006,-0.207 -0.027,-0.066 -0.076,-0.121 -0.139,-0.154 -0.063,-0.034 -0.136,-0.043 -0.205,-0.028 l -12.48,4.26 c -0.075,0.024 -0.155,0.018 -0.226,-0.015 -0.07,-0.034 -0.125,-0.092 -0.154,-0.165 l -2.669998,-6.87 c -0.02,-0.054 -0.023,-0.113 -0.011,-0.17 0.012,-0.056 0.04,-0.108 0.081,-0.15 1.933998,-2.296 4.087998,-4.4 6.429998,-6.28"
     fill="#29abe2"
     id="path38" />
  <path
     d="m 115.34797,256.049 c 3,-0.43 8.73,1 8.73,1 0.056,0.007 0.109,0.029 0.154,0.064 0.044,0.036 0.077,0.083 0.096,0.136 l 3.91,10.81 c 0.024,0.072 0.021,0.151 -0.008,0.221 -0.03,0.07 -0.084,0.127 -0.152,0.159 l -14.07,6.26 c -0.075,0.03 -0.134,0.087 -0.166,0.16 -0.032,0.073 -0.034,0.156 -0.004,0.23 0.029,0.075 0.086,0.134 0.159,0.166 0.074,0.032 0.156,0.034 0.231,0.004 l 14.57,-4.93 c 0.074,-0.023 0.154,-0.017 0.225,0.016 0.07,0.033 0.125,0.092 0.155,0.164 l 18.08,50.17 c 0.014,0.037 0.02,0.076 0.019,0.116 -0.002,0.039 -0.011,0.077 -0.028,0.113 -0.017,0.036 -0.041,0.067 -0.07,0.093 -0.03,0.026 -0.064,0.046 -0.101,0.058 l -24.83,9 c -0.075,0.026 -0.156,0.022 -0.227,-0.012 -0.071,-0.034 -0.126,-0.094 -0.153,-0.168 l -16.38,-43.75 c -0.025,-0.074 -0.021,-0.155 0.01,-0.227 0.032,-0.072 0.088,-0.13 0.16,-0.163 l 13.59,-5.77 c 0.074,-0.029 0.134,-0.086 0.165,-0.159 0.032,-0.074 0.034,-0.156 0.005,-0.231 -0.03,-0.074 -0.087,-0.133 -0.16,-0.165 -0.073,-0.032 -0.156,-0.034 -0.23,-0.005 l -13.92,4.49 c -0.036,0.013 -0.075,0.018 -0.113,0.016 -0.038,-0.002 -0.075,-0.012 -0.11,-0.029 -0.034,-0.016 -0.065,-0.04 -0.09,-0.068 -0.026,-0.029 -0.045,-0.062 -0.057,-0.099 l -3.04,-8.12 c -0.025,-0.072 -0.022,-0.15 0.007,-0.22 0.03,-0.07 0.084,-0.127 0.153,-0.16 l 11.9,-5.5 c 0.061,-0.036 0.107,-0.094 0.13,-0.161 0.022,-0.068 0.02,-0.141 -0.006,-0.207 -0.027,-0.066 -0.076,-0.121 -0.139,-0.154 -0.063,-0.034 -0.136,-0.043 -0.205,-0.028 l -12.48,4.26 c -0.075,0.024 -0.155,0.018 -0.226,-0.015 -0.07,-0.034 -0.125,-0.092 -0.154,-0.165 l -2.669998,-6.87 c -0.02,-0.054 -0.023,-0.113 -0.011,-0.17 0.012,-0.056 0.04,-0.108 0.081,-0.15 1.933998,-2.296 4.087998,-4.4 6.429998,-6.28"
     fill="#29abe2"
     id="path40" />
  <path
     d="m 96.567972,307.229 c -2.6,-7.87 6.259998,-14.58 13.369998,-10.33 4.583,2.762 8.751,6.159 12.38,10.09 10.41,11.16 -12.34,14.63 -20.12,7.93 -2.543998,-2 -4.490998,-4.66 -5.629998,-7.69 z"
     fill="#50deb6"
     id="path42" />
  <path
     d="m 171.18797,164.07 c 5.037,0 9.12,-4.084 9.12,-9.12 0,-5.037 -4.083,-9.12 -9.12,-9.12 -5.037,0 -9.12,4.083 -9.12,9.12 0,5.036 4.083,9.12 9.12,9.12 z"
     fill="#ffffff"
     id="path44" />
</svg>
