<svg width="506.405" height="438.661" viewBox="0 0 506.405 438.661" fill="none" xmlns="http://www.w3.org/2000/svg"><path opacity=".5" d="M504.568 375.559c20.27-112.74-132.23-366.39-209.61-375.18-104.93-11.9-292.35 260.19-292.35 260.19-5.59 7.74-1.74 18.36 7.24 20 0 0 312.47 113.48 423.15 122.55 46.48 3.8 68.16-8.57 71.57-27.56z" fill="#a8dcff"/><path d="M152.738 141.379c8.974 0 16.25-7.275 16.25-16.25 0-8.974-7.276-16.25-16.25-16.25-8.975 0-16.25 7.276-16.25 16.25 0 8.975 7.275 16.25 16.25 16.25zM177.728 108.88c5.484 0 9.93-4.446 9.93-9.93 0-5.485-4.446-9.93-9.93-9.93s-9.93 4.445-9.93 9.93c0 5.484 4.446 9.93 9.93 9.93z" fill="#fff"/><path d="M395.233 261.759c7.717-68.047-39.411-129.264-105.263-136.732-65.852-7.468-125.491 41.641-133.208 109.689-7.717 68.047 39.411 129.264 105.263 136.732 65.852 7.468 125.491-41.641 133.208-109.689z" fill="#50deb6"/><path d="M198.068 251.859c-26.74 18-56.93 30-86.35 43.22-2.59 1.16-5.27 2.39-7.1 4.57s-2.52 5.58-.81 7.85c1.71 2.27 5.33 2.57 8.36 2.46a324.815 324.815 0 0 0 73.07-11.26c13.24-3.62 26.83-8.45 36.07-18.54a129.175 129.175 0 0 0-23.24-28.3zM359.468 248.31c29.49 13 61.34 19.5 92.62 27.26 2.76.68 5.62 1.43 7.8 3.25 2.18 1.82 3.46 5 2.19 7.58-1.36 2.7-4.8 3.47-7.8 3.89a324.556 324.556 0 0 1-73.9 1.85c-13.68-1.22-27.91-3.57-38.79-11.87a128.966 128.966 0 0 1 17.88-31.96z" fill="#50deb6"/><path d="M364.208 282.949c23.73 21.8 51.78 38.23 78.9 55.66 2.38 1.53 4.85 3.16 6.33 5.58 1.48 2.42 1.65 5.9-.37 7.89-2.02 1.99-5.66 1.74-8.63 1.17a324.887 324.887 0 0 1-70.57-22.07c-12.54-5.56-25.26-12.37-32.88-23.73a128.695 128.695 0 0 1 27.22-24.5z" fill="#50deb6"/><path d="M349.428 314c15.25 28.4 36.73 53 56.92 78.21 1.78 2.22 3.6 4.56 4.16 7.35s-.56 6.189-3.29 7.479c-2.91 1.36-6.21-.089-8.92-1.569a318.097 318.097 0 0 1-61.16-43.29c-10.27-9.27-20.25-19.8-23.53-33.11a144.987 144.987 0 0 1 35.82-15.07z" fill="#50deb6"/><path d="M318.698 334.77c8.38 31.13 23.69 60 37.59 89.13 1.23 2.57 2.47 5.26 2.37 8.11-.1 2.85-1.95 5.9-4.9 6.53-3.14.66-6-1.511-8.33-3.561a318.13 318.13 0 0 1-49.73-56.099c-7.89-11.37-15.2-23.89-15.36-37.6a144.61 144.61 0 0 1 38.36-6.51z" fill="#50deb6"/><path d="m188.698 431.039-52.06-59a1.19 1.19 0 0 1-.19-1.29l4.83-10.63a1.189 1.189 0 0 0-.25-1.35l-4.39-4.31a1.21 1.21 0 0 1-.36-.891 1.206 1.206 0 0 1 .41-.869l12-10.42a1.197 1.197 0 0 1 .969-.275 1.21 1.21 0 0 1 .841.555l3.34 5.39a1.207 1.207 0 0 0 1.32.53l10.95-2.87a1.2 1.2 0 0 1 1.22.38l50.79 59.34a1.203 1.203 0 0 1-.12 1.68l-27.6 24.15a1.194 1.194 0 0 1-1.7-.12z" fill="#ebf0ef"/><path d="M155.018 352.929c2.9-1.62 9.21-2.41 9.21-2.41a.35.35 0 0 1 .179.005c.058.018.11.051.151.095l8.2 9.48a.32.32 0 0 1 0 .44l-11.78 11.84a.332.332 0 0 0 .016.427.328.328 0 0 0 .424.053l12.79-10.68a.33.33 0 0 1 .46 0l37.94 44a.33.33 0 0 1 0 .46l-21.56 18.87a.33.33 0 0 1-.46 0l-33.73-38.13a.329.329 0 0 1 0-.45l11.48-11.17a.334.334 0 0 0 .094-.223.329.329 0 0 0-.534-.267l-12.31 10a.33.33 0 0 1-.45 0l-6.31-7.08a.32.32 0 0 1 0-.44l9.87-10.28a.333.333 0 0 0-.003-.448.334.334 0 0 0-.447-.032l-10.94 9.2a.33.33 0 0 1-.46 0l-5.34-6a.34.34 0 0 1-.06-.36 50.132 50.132 0 0 1 4-8.89" fill="#29abe2"/><path d="M155.018 352.929c2.9-1.62 9.21-2.41 9.21-2.41a.35.35 0 0 1 .179.005c.058.018.11.051.151.095l8.2 9.48a.32.32 0 0 1 0 .44l-11.78 11.84a.332.332 0 0 0 .016.427.328.328 0 0 0 .424.053l12.79-10.68a.33.33 0 0 1 .46 0l37.94 44a.33.33 0 0 1 0 .46l-21.56 18.87a.33.33 0 0 1-.46 0l-33.73-38.13a.329.329 0 0 1 0-.45l11.48-11.17a.334.334 0 0 0 .094-.223.329.329 0 0 0-.534-.267l-12.31 10a.33.33 0 0 1-.45 0l-6.31-7.08a.32.32 0 0 1 0-.44l9.87-10.28a.333.333 0 0 0-.003-.448.334.334 0 0 0-.447-.032l-10.94 9.2a.33.33 0 0 1-.46 0l-5.34-6a.34.34 0 0 1-.06-.36 50.132 50.132 0 0 1 4-8.89" fill="#29abe2"/><path d="M225.938 322.489c-18.84 26.14-43 47.89-66 70.44-2 2-4.11 4.07-5.07 6.75-.96 2.68-.43 6.1 1.95 7.64 2.55 1.65 5.9.57 8.69-.59a324.132 324.132 0 0 0 64.66-35.86c11.17-8 22.24-17.22 27.42-29.88a129.041 129.041 0 0 0-31.65-18.5z" fill="#50deb6"/><path d="m218.398 231.75-18.48-6.24-17.99-.221M257.504 239.2c3.242-12.853-2.555-25.397-12.949-28.02-10.395-2.622-21.449 5.671-24.692 18.523-3.242 12.852 2.555 25.397 12.949 28.019s21.449-5.67 24.692-18.522z" fill="#fff"/><path d="M183.129 225.586c3.243-12.852-.892-24.977-9.235-27.082-8.343-2.105-17.735 6.607-20.978 19.46-3.242 12.852.893 24.977 9.236 27.082 8.343 2.105 17.735-6.608 20.977-19.46z" fill="#fff"/><path fill-rule="evenodd" clip-rule="evenodd" d="M164.213 205.557c-3.151 2.923-5.958 7.597-7.418 13.385-1.461 5.787-1.207 11.233.18 15.301 1.402 4.112 3.733 6.313 6.155 6.924 2.423.611 5.518-.221 8.703-3.175 3.151-2.923 5.958-7.597 7.418-13.385 1.46-5.787 1.207-11.234-.181-15.301-1.402-4.112-3.732-6.313-6.155-6.924-2.422-.611-5.518.221-8.702 3.175zm-5.441-5.865c4.408-4.089 10.18-6.561 16.1-5.067 5.921 1.494 9.83 6.408 11.77 12.099 1.473 4.32 1.946 9.383 1.327 14.639l12.629.154 15.907 5.371c4.169-13.246 16.342-22.787 29.028-19.586 13.265 3.346 19.428 18.691 15.849 32.876-3.579 14.184-16.284 24.769-29.548 21.422-11.37-2.868-17.522-14.551-16.794-26.763l-15.803-5.336-13.034-.159c-1.932 5.883-5.081 10.945-8.929 14.515-4.408 4.089-10.18 6.56-16.101 5.067-5.92-1.494-9.829-6.408-11.77-12.099-1.955-5.734-2.148-12.776-.365-19.84 1.782-7.065 5.292-13.173 9.734-17.293zm84.804 15.367c-7.524-1.899-16.928 4.102-19.834 15.622-2.907 11.52 2.525 21.264 10.049 23.162 7.523 1.898 16.928-4.103 19.834-15.622 2.906-11.52-2.525-21.264-10.049-23.162z" fill="#000"/><path d="m118.418 334.049-25.24-67.67a1.111 1.111 0 0 1 .26-1.17l7.69-7.51a1.097 1.097 0 0 0 .23-1.24l-2.35-5.13a1.083 1.083 0 0 1-.016-.885 1.087 1.087 0 0 1 .646-.605l13.78-5a1.11 1.11 0 0 1 1.47.83l1.09 5.71a1.09 1.09 0 0 0 1 .89l10.38 1.16a1.113 1.113 0 0 1 .92.73l24 67.57a1.086 1.086 0 0 1-.039.838 1.072 1.072 0 0 1-.621.562l-31.78 11.57a1.107 1.107 0 0 1-1.42-.65z" fill="#ebf0ef"/><path d="M115.348 256.049c3-.43 8.73 1 8.73 1a.314.314 0 0 1 .154.064.311.311 0 0 1 .096.136l3.91 10.81a.31.31 0 0 1-.16.38l-14.07 6.26a.303.303 0 0 0-.17.39.298.298 0 0 0 .39.17l14.57-4.93a.313.313 0 0 1 .38.18l18.08 50.17a.298.298 0 0 1-.079.322.292.292 0 0 1-.101.058l-24.83 9a.298.298 0 0 1-.38-.18l-16.38-43.75a.318.318 0 0 1 .17-.39l13.59-5.77a.303.303 0 0 0 .17-.39.304.304 0 0 0-.39-.17l-13.92 4.49a.29.29 0 0 1-.37-.18l-3.04-8.12a.309.309 0 0 1 .16-.38l11.9-5.5a.3.3 0 0 0-.22-.55l-12.48 4.26a.31.31 0 0 1-.38-.18l-2.67-6.87a.307.307 0 0 1 .07-.32 46.323 46.323 0 0 1 6.43-6.28" fill="#29abe2"/><path d="M115.348 256.049c3-.43 8.73 1 8.73 1a.314.314 0 0 1 .154.064.311.311 0 0 1 .096.136l3.91 10.81a.31.31 0 0 1-.16.38l-14.07 6.26a.303.303 0 0 0-.17.39.298.298 0 0 0 .39.17l14.57-4.93a.313.313 0 0 1 .38.18l18.08 50.17a.298.298 0 0 1-.079.322.292.292 0 0 1-.101.058l-24.83 9a.298.298 0 0 1-.38-.18l-16.38-43.75a.318.318 0 0 1 .17-.39l13.59-5.77a.303.303 0 0 0 .17-.39.304.304 0 0 0-.39-.17l-13.92 4.49a.29.29 0 0 1-.37-.18l-3.04-8.12a.309.309 0 0 1 .16-.38l11.9-5.5a.3.3 0 0 0-.22-.55l-12.48 4.26a.31.31 0 0 1-.38-.18l-2.67-6.87a.307.307 0 0 1 .07-.32 46.323 46.323 0 0 1 6.43-6.28" fill="#29abe2"/><path d="M96.568 307.229c-2.6-7.87 6.26-14.58 13.37-10.33a56.633 56.633 0 0 1 12.38 10.09c10.41 11.16-12.34 14.63-20.12 7.93-2.544-2-4.491-4.66-5.63-7.69z" fill="#50deb6"/><path d="M171.188 164.07a9.12 9.12 0 1 0 0-18.24 9.12 9.12 0 0 0 0 18.24z" fill="#fff"/></svg>