<?xml version="1.0" encoding="UTF-8" standalone="no"?>
<svg
   width="616.54669"
   height="335.38309"
   viewBox="0 0 616.54669 335.38309"
   fill="none"
   version="1.1"
   id="svg38"
   sodipodi:docname="fat.svg"
   inkscape:version="1.1.1 (3bf5ae0d25, 2021-09-20, custom)"
   xmlns:inkscape="http://www.inkscape.org/namespaces/inkscape"
   xmlns:sodipodi="http://sodipodi.sourceforge.net/DTD/sodipodi-0.dtd"
   xmlns="http://www.w3.org/2000/svg"
   xmlns:svg="http://www.w3.org/2000/svg">
  <defs
     id="defs42" />
  <sodipodi:namedview
     id="namedview40"
     pagecolor="#ffffff"
     bordercolor="#666666"
     borderopacity="1.0"
     inkscape:pageshadow="2"
     inkscape:pageopacity="0.0"
     inkscape:pagecheckerboard="0"
     showgrid="false"
     inkscape:zoom="1.43"
     inkscape:cx="308.39161"
     inkscape:cy="167.83217"
     inkscape:window-width="959"
     inkscape:window-height="1058"
     inkscape:window-x="2880"
     inkscape:window-y="0"
     inkscape:window-maximized="1"
     inkscape:current-layer="svg38" />
  <path
     opacity="0.5"
     d="m 35.5,248.04309 c 0,-37.12 132.36,-93.23 292.8,-93.23 160.44,0 291.08,56.21 288.2,93.22 -2.6,33.38 -130.06,47.21 -290.5,47.21 -160.44,0 -290.5,-13.56 -290.5,-47.2 z"
     fill="#d9ffdd"
     id="path2" />
  <path
     d="m 114.99,335.38309 c 63.507,0 114.99,-18.75 114.99,-41.879 0,-23.13 -51.483,-41.88 -114.99,-41.88 -63.5072,0 -114.99,18.75 -114.99,41.88 0,23.129 51.4828,41.879 114.99,41.879 z"
     fill="#b3b3b3"
     id="path4" />
  <path
     d="m 59.7998,300.75409 v -56.821 c 0,-1.091 0.4306,-2.138 1.1984,-2.913 0.7678,-0.775 1.8106,-1.216 2.9016,-1.227 l 50.0002,-0.529 c 0.659,-0.009 1.311,0.14 1.901,0.434 0.59,0.293 1.102,0.723 1.493,1.254 0.39,0.531 0.649,1.147 0.755,1.797 0.105,0.651 0.054,1.318 -0.149,1.945 -0.61,1.92 -0.95,3.809 -0.36,4.719 2,3 9.76,7.14 14.21,7 1.38,0 7.72,0.271 8.51,1.401 2.55,3.6 3.32,6.68 6.9,7.45 3.07,0.65 11.35,-1.261 16,-3.781 0.618,-0.334 1.311,-0.506 2.013,-0.499 0.703,0.007 1.392,0.191 2.004,0.537 0.611,0.346 1.125,0.841 1.493,1.44 0.368,0.598 0.578,1.281 0.61,1.983 l 0.83,18.27 c 0.035,0.77 -0.146,1.535 -0.522,2.208 -0.377,0.673 -0.934,1.228 -1.608,1.602 l -57.2,31.879 -6.09,3.4 c -0.573,0.32 -1.213,0.499 -1.868,0.524 -0.656,0.024 -1.307,-0.107 -1.902,-0.383 l -38.6702,-18 c -0.7159,-0.32 -1.3262,-0.837 -1.76,-1.49 -0.4337,-0.654 -0.673,-1.417 -0.69,-2.2 z"
     fill="#ffedfc"
     id="path6" />
  <path
     d="m 113.31,265.95309 23.25,-5.91 c 0.278,-0.073 0.571,-0.059 0.841,0.039 0.27,0.099 0.503,0.277 0.669,0.511 1.86,2.68 9.1,10.55 25.73,2 0.194,-0.094 0.408,-0.142 0.624,-0.141 0.216,10e-4 0.429,0.052 0.622,0.149 0.194,0.096 0.362,0.236 0.493,0.408 0.13,0.172 0.22,0.372 0.261,0.584 l 3.8,21.08 c 0.049,0.287 0.011,0.582 -0.111,0.846 -0.121,0.264 -0.32,0.485 -0.569,0.634 l -59.56,34.48 c -0.224,0.133 -0.48,0.2 -0.741,0.196 -0.26,-0.005 -0.514,-0.081 -0.733,-0.221 -0.219,-0.139 -0.396,-0.337 -0.51,-0.571 -0.114,-0.234 -0.161,-0.495 -0.136,-0.754 l 5,-52.1 c 0.03,-0.29 0.149,-0.563 0.341,-0.783 0.191,-0.221 0.446,-0.376 0.729,-0.447 z"
     fill="#fcf4e8"
     id="path8" />
  <path
     d="m 60.75,242.03309 c 0,0 3.18,16.2 15.8,11.43 0,0 4.73,18.19 18.49,7.53 0,0 5.52,17.38 19.89,6.25"
     stroke="#f7fcfa"
     stroke-width="6"
     stroke-linecap="round"
     stroke-linejoin="round"
     id="path10" />
  <path
     d="m 459.2,246.52309 -66.35,40.39 c -0.184,0.114 -0.405,0.151 -0.616,0.105 -0.211,-0.047 -0.396,-0.174 -0.514,-0.355 -1.37,-2 -6.12,-7.67 -14.59,-3.41 -11.37,5.72 -17.41,12.14 -19.88,15.24 -0.119,0.143 -0.187,0.322 -0.194,0.508 -0.006,0.186 0.049,0.369 0.158,0.52 0.109,0.151 0.264,0.262 0.443,0.315 0.178,0.053 0.369,0.045 0.543,-0.023 l 19.06,-4.73 c 0.183,-0.048 0.378,-0.032 0.552,0.044 0.174,0.077 0.316,0.211 0.405,0.379 0.088,0.168 0.116,0.361 0.081,0.548 -0.036,0.187 -0.134,0.356 -0.278,0.479 l -13,11.55 c -0.142,0.124 -0.239,0.292 -0.274,0.477 -0.036,0.184 -0.008,0.376 0.079,0.543 0.086,0.167 0.226,0.301 0.398,0.379 0.171,0.078 0.364,0.096 0.547,0.051 l 17.34,-4 c 0.18,-0.04 0.369,-0.02 0.537,0.058 0.168,0.078 0.306,0.21 0.391,0.374 0.086,0.164 0.115,0.352 0.082,0.535 -0.032,0.182 -0.124,0.348 -0.26,0.473 l -13.24,12.06 c -0.136,0.12 -0.229,0.281 -0.266,0.458 -0.037,0.177 -0.016,0.362 0.061,0.526 0.076,0.164 0.204,0.299 0.363,0.385 0.16,0.086 0.343,0.118 0.522,0.091 7.34,-1.08 27.5,-5.61 26.55,-22.7 -0.012,-0.147 0.018,-0.296 0.085,-0.428 0.067,-0.132 0.169,-0.243 0.295,-0.322 5.27,-3.34 59.86,-37.15 66.75,-41.41 0.093,-0.059 0.174,-0.136 0.237,-0.226 0.064,-0.09 0.109,-0.192 0.133,-0.3 0.024,-0.108 0.027,-0.219 0.008,-0.328 -0.019,-0.108 -0.059,-0.212 -0.118,-0.306 l -4.8,-7.71 c -0.061,-0.103 -0.142,-0.192 -0.24,-0.261 -0.097,-0.069 -0.209,-0.117 -0.326,-0.14 -0.117,-0.022 -0.238,-0.02 -0.354,0.008 -0.117,0.028 -0.226,0.08 -0.32,0.153 z"
     fill="#b3b3b3"
     id="path12" />
  <path
     d="m 428.791,179.11009 c 30.684,-61.354 6.245,-135.753999 -54.586,-166.175999 -60.831,-30.422 -135.018,-5.3459999 -165.702,56.008 -30.684,61.354999 -6.245,135.753999 54.586,166.175999 60.831,30.422 135.018,5.346 165.702,-56.008 z"
     fill="#50deb6"
     id="path14" />
  <path
     d="M 459.901,154.62809 C 462.715,98.288091 401.747,49.456091 323.723,45.558091 c -78.023,-3.898 -143.555,38.615 -146.37,94.954999 -2.814,56.34 58.154,105.172 136.178,109.07 78.023,3.898 143.555,-38.615 146.37,-94.955 z"
     fill="#50deb6"
     id="path16" />
  <path
     d="m 221.081,161.64409 c -27.79,16.38 -58.82,26.47 -89.11,37.75 -2.67,1 -5.43,2.07 -7.36,4.15 -1.93,2.08 -2.79,5.48 -1.16,7.9 1.73,2.58 5.28,3 8.34,3.08 24.935,0.772 49.876,-1.331 74.33,-6.27 13.53,-2.74 27.47,-6.69 37.24,-16.27 -5.989,-11.095 -13.487,-21.305 -22.28,-30.34 z"
     fill="#50deb6"
     id="path18" />
  <path
     d="m 239.09,185.30409 c -25.3,20 -54.63,34.12 -83.08,49.37 -2.51,1.34 -5.1,2.77 -6.74,5.09 -1.64,2.32 -2,5.82 -0.1,8 1.9,2.18 5.62,2.27 8.66,1.95 24.756,-2.542 49.133,-7.951 72.64,-16.12 13,-4.52 26.27,-10.29 34.66,-21.11 -7.377,-10.224 -16.141,-19.372 -26.04,-27.18 z"
     fill="#50deb6"
     id="path20" />
  <path
     d="m 424.91,160.81409 c 28.87,14.39 60.541,22.28 91.561,31.42 2.74,0.81 5.569,1.68 7.649,3.61 2.08,1.93 3.16,5.27 1.7,7.8 -1.55,2.7 -5.059,3.35 -8.109,3.65 -24.835,2.519 -49.877,2.163 -74.63,-1.06 -13.7,-1.79 -27.9,-4.75 -38.31,-13.62 5.204,-11.484 11.983,-22.187 20.139,-31.8 z"
     fill="#50deb6"
     id="path22" />
  <path
     d="m 413.67,188.20409 c 27.31,17.13 58,28 87.94,40.14 2.64,1.07 5.37,2.21 7.25,4.34 1.88,2.13 2.64,5.56 1,8 -1.64,2.44 -5.35,2.85 -8.41,2.86 -24.901,0.127 -49.733,-2.631 -74,-8.22 -13.43,-3.1 -27.24,-7.41 -36.75,-17.26 6.235,-10.971 13.965,-21.021 22.97,-29.86 z"
     fill="#50deb6"
     id="path24" />
  <path
     d="m 265.73,203.61309 c -24.49,21 -53.5,36 -81.53,52.07 -2.47,1.42 -5,2.93 -6.53,5.36 -1.53,2.43 -1.68,6.06 0.44,8.32 2.26,2.41 5.89,2.29 9,1.94 24.978,-2.869 49.519,-8.742 73.09,-17.49 13,-4.82 26.14,-10.94 34,-22.26 -8.228,-10.517 -17.8,-19.91 -28.47,-27.94 z"
     fill="#50deb6"
     id="path26" />
  <path
     d="m 375.44,202.59409 c 23.69,21.87 52.13,37.91 79.54,55.05 2.42,1.51 4.91,3.11 6.33,5.59 1.42,2.48 1.45,6.12 -0.76,8.3 -2.21,2.18 -6,2.07 -9,1.6 -24.871,-3.791 -49.196,-10.56 -72.45,-20.16 -12.81,-5.31 -25.73,-11.91 -33.13,-23.51 8.606,-10.207 18.514,-19.241 29.47,-26.87 z"
     fill="#50deb6"
     id="path28" />
  <path
     d="m 305.97,182.79409 21.11,-1.28 18.99,3.49"
     fill="#ffffff"
     id="path30" />
  <path
     d="m 284.44,200.82309 c 11.355,0 20.56,-8.954 20.56,-20 0,-11.045 -9.205,-20 -20.56,-20 -11.355,0 -20.56,8.955 -20.56,20 0,11.046 9.205,20 20.56,20 z"
     fill="#ffffff"
     id="path32" />
  <path
     d="m 364.35,200.82309 c 11.355,0 20.56,-8.954 20.56,-20 0,-11.045 -9.205,-20 -20.56,-20 -11.355,0 -20.56,8.955 -20.56,20 0,11.046 9.205,20 20.56,20 z"
     fill="#ffffff"
     id="path34" />
  <path
     fill-rule="evenodd"
     clip-rule="evenodd"
     d="m 259.88,180.82309 c 0,-13.358 11.101,-24 24.56,-24 12.706,0 23.311,9.485 24.457,21.786 l 18.427,-1.117 12.488,2.295 c 0.557,-12.868 11.429,-22.964 24.538,-22.964 13.459,0 24.56,10.642 24.56,24 0,13.358 -11.101,24 -24.56,24 -10.887,0 -20.231,-6.963 -23.405,-16.694 l -14.109,-2.593 -18.565,1.125 c -2.677,10.492 -12.404,18.162 -23.831,18.162 -13.459,0 -24.56,-10.642 -24.56,-24 z m 24.56,-16 c -9.251,0 -16.56,7.267 -16.56,16 0,8.733 7.309,16 16.56,16 9.251,0 16.56,-7.267 16.56,-16 0,-8.733 -7.309,-16 -16.56,-16 z m 79.91,0 c -9.251,0 -16.56,7.267 -16.56,16 0,8.733 7.309,16 16.56,16 9.251,0 16.56,-7.267 16.56,-16 0,-8.733 -7.309,-16 -16.56,-16 z"
     fill="#000000"
     id="path36" />
</svg>
