<svg width="616.547" height="335.383" viewBox="0 0 616.547 335.383" fill="none" xmlns="http://www.w3.org/2000/svg"><path opacity=".5" d="M35.5 248.043c0-37.12 132.36-93.23 292.8-93.23s291.08 56.21 288.2 93.22c-2.6 33.38-130.06 47.21-290.5 47.21s-290.5-13.56-290.5-47.2z" fill="#d9ffdd"/><path d="M114.99 335.383c63.507 0 114.99-18.75 114.99-41.879 0-23.13-51.483-41.88-114.99-41.88S0 270.374 0 293.504c0 23.13 51.483 41.88 114.99 41.88z" fill="#b3b3b3"/><path d="M59.8 300.754v-56.82a4.139 4.139 0 0 1 4.1-4.14l50-.53a4.143 4.143 0 0 1 4.149 3.485 4.164 4.164 0 0 1-.149 1.945c-.61 1.92-.95 3.81-.36 4.72 2 3 9.76 7.14 14.21 7 1.38 0 7.72.27 8.51 1.4 2.55 3.6 3.32 6.68 6.9 7.45 3.07.65 11.35-1.26 16-3.78a4.148 4.148 0 0 1 5.51 1.477c.368.598.578 1.281.61 1.983l.83 18.27a4.143 4.143 0 0 1-2.13 3.81l-57.2 31.88-6.09 3.4a4.155 4.155 0 0 1-3.77.14l-38.67-18a4.143 4.143 0 0 1-2.45-3.69z" fill="#ffedfc"/><path d="m113.31 265.953 23.25-5.91a1.412 1.412 0 0 1 1.51.55c1.86 2.68 9.1 10.55 25.73 2a1.417 1.417 0 0 1 1.246.008 1.401 1.401 0 0 1 .754.992l3.8 21.08a1.439 1.439 0 0 1-.68 1.48l-59.56 34.48a1.407 1.407 0 0 1-1.984-.596 1.412 1.412 0 0 1-.136-.754l5-52.1a1.418 1.418 0 0 1 1.07-1.23z" fill="#fcf4e8"/><path d="M60.75 242.033s3.18 16.2 15.8 11.43c0 0 4.73 18.19 18.49 7.53 0 0 5.52 17.38 19.89 6.25" stroke="#f7fcfa" stroke-width="6" stroke-linecap="round" stroke-linejoin="round"/><path d="m459.2 246.523-66.35 40.39a.833.833 0 0 1-1.13-.25c-1.37-2-6.12-7.67-14.59-3.41-11.37 5.72-17.41 12.14-19.88 15.24a.844.844 0 0 0-.036 1.028.84.84 0 0 0 .986.292l19.06-4.73a.845.845 0 0 1 .552.044.845.845 0 0 1 .486.927.838.838 0 0 1-.278.48l-13 11.55a.842.842 0 0 0 .203 1.398.837.837 0 0 0 .547.051l17.34-4a.842.842 0 0 1 1.01.967.841.841 0 0 1-.26.473l-13.24 12.06a.84.84 0 0 0 .68 1.46c7.34-1.08 27.5-5.61 26.55-22.7a.804.804 0 0 1 .38-.75c5.27-3.34 59.86-37.15 66.75-41.41a.837.837 0 0 0 .378-.854.854.854 0 0 0-.118-.306l-4.8-7.71a.843.843 0 0 0-1.24-.24z" fill="#b3b3b3"/><path d="M428.791 179.11c30.684-61.354 6.245-135.754-54.586-166.176-60.831-30.422-135.018-5.346-165.702 56.008-30.684 61.355-6.245 135.754 54.586 166.176 60.831 30.422 135.018 5.346 165.702-56.008z" fill="#50deb6"/><path d="M459.901 154.628c2.814-56.34-58.154-105.172-136.178-109.07-78.023-3.898-143.555 38.615-146.37 94.955-2.814 56.34 58.154 105.172 136.178 109.07 78.023 3.898 143.555-38.615 146.37-94.955z" fill="#50deb6"/><path d="M221.081 161.644c-27.79 16.38-58.82 26.47-89.11 37.75-2.67 1-5.43 2.07-7.36 4.15-1.93 2.08-2.79 5.48-1.16 7.9 1.73 2.58 5.28 3 8.34 3.08a324.697 324.697 0 0 0 74.33-6.27c13.53-2.74 27.47-6.69 37.24-16.27a136.397 136.397 0 0 0-22.28-30.34z" fill="#50deb6"/><path d="M239.09 185.304c-25.3 20-54.63 34.12-83.08 49.37-2.51 1.34-5.1 2.77-6.74 5.09-1.64 2.32-2 5.82-.1 8 1.9 2.18 5.62 2.27 8.66 1.95a321.256 321.256 0 0 0 72.64-16.12c13-4.52 26.27-10.29 34.66-21.11a135.881 135.881 0 0 0-26.04-27.18zM424.91 160.814c28.87 14.39 60.541 22.28 91.561 31.42 2.74.81 5.569 1.68 7.649 3.61s3.16 5.27 1.7 7.8c-1.55 2.7-5.059 3.35-8.109 3.65a324.436 324.436 0 0 1-74.63-1.06c-13.7-1.79-27.9-4.75-38.31-13.62a135.784 135.784 0 0 1 20.139-31.8z" fill="#50deb6"/><path d="M413.67 188.204c27.31 17.13 58 28 87.94 40.14 2.64 1.07 5.37 2.21 7.25 4.34s2.64 5.56 1 8c-1.64 2.44-5.35 2.85-8.41 2.86a322.386 322.386 0 0 1-74-8.22c-13.43-3.1-27.24-7.41-36.75-17.26a135.996 135.996 0 0 1 22.97-29.86zM265.73 203.613c-24.49 21-53.5 36-81.53 52.07-2.47 1.42-5 2.93-6.53 5.36-1.53 2.43-1.68 6.06.44 8.32 2.26 2.41 5.89 2.29 9 1.94a312.577 312.577 0 0 0 73.09-17.49c13-4.82 26.14-10.94 34-22.26a152.826 152.826 0 0 0-28.47-27.94z" fill="#50deb6"/><path d="M375.44 202.594c23.69 21.87 52.13 37.91 79.54 55.05 2.42 1.51 4.91 3.11 6.33 5.59s1.45 6.12-.76 8.3c-2.21 2.18-6 2.07-9 1.6a313.765 313.765 0 0 1-72.45-20.16c-12.81-5.31-25.73-11.91-33.13-23.51a152.634 152.634 0 0 1 29.47-26.87z" fill="#50deb6"/><path d="m305.97 182.794 21.11-1.28 18.99 3.49M284.44 200.823c11.355 0 20.56-8.954 20.56-20 0-11.045-9.205-20-20.56-20-11.355 0-20.56 8.955-20.56 20 0 11.046 9.205 20 20.56 20z" fill="#fff"/><path d="M364.35 200.823c11.355 0 20.56-8.954 20.56-20 0-11.045-9.205-20-20.56-20-11.355 0-20.56 8.955-20.56 20 0 11.046 9.205 20 20.56 20z" fill="#fff"/><path fill-rule="evenodd" clip-rule="evenodd" d="M259.88 180.823c0-13.358 11.101-24 24.56-24 12.706 0 23.311 9.485 24.457 21.786l18.427-1.117 12.488 2.295c.557-12.868 11.429-22.964 24.538-22.964 13.459 0 24.56 10.642 24.56 24s-11.101 24-24.56 24c-10.887 0-20.231-6.963-23.405-16.694l-14.109-2.593-18.565 1.125c-2.677 10.492-12.404 18.162-23.831 18.162-13.459 0-24.56-10.642-24.56-24zm24.56-16c-9.251 0-16.56 7.267-16.56 16s7.309 16 16.56 16c9.251 0 16.56-7.267 16.56-16s-7.309-16-16.56-16zm79.91 0c-9.251 0-16.56 7.267-16.56 16s7.309 16 16.56 16c9.251 0 16.56-7.267 16.56-16s-7.309-16-16.56-16z" fill="#000"/></svg>