<?xml version="1.0" encoding="UTF-8" standalone="no"?>
<svg
   width="498.39999"
   height="357.14496"
   viewBox="0 0 498.39999 357.14496"
   fill="none"
   version="1.1"
   id="svg30"
   sodipodi:docname="hi.svg"
   inkscape:version="1.1.1 (3bf5ae0d25, 2021-09-20, custom)"
   xmlns:inkscape="http://www.inkscape.org/namespaces/inkscape"
   xmlns:sodipodi="http://sodipodi.sourceforge.net/DTD/sodipodi-0.dtd"
   xmlns="http://www.w3.org/2000/svg"
   xmlns:svg="http://www.w3.org/2000/svg">
  <defs
     id="defs34" />
  <sodipodi:namedview
     id="namedview32"
     pagecolor="#ffffff"
     bordercolor="#666666"
     borderopacity="1.0"
     inkscape:pageshadow="2"
     inkscape:pageopacity="0.0"
     inkscape:pagecheckerboard="0"
     showgrid="false"
     inkscape:zoom="1.0566502"
     inkscape:cx="115.45921"
     inkscape:cy="125.86946"
     inkscape:window-width="1920"
     inkscape:window-height="1038"
     inkscape:window-x="1920"
     inkscape:window-y="20"
     inkscape:window-maximized="1"
     inkscape:current-layer="svg30" />
  <path
     opacity="0.5"
     d="m 410.23,114.7803 c 33.12,-12.16 53.15,-28 53.15,-45.36 C 463.38,31.08 365.44,0 244.62,0 123.8,0 25.86,31.08 25.86,69.4203 c 0,18.16 22,34.69 58,47.07 -51.47,20.7 -83.86,50.89 -83.86,84.52 0,62.4 111.58,113 249.22,113 137.64,0 249.18,-50.6 249.18,-113 0,-34.57 -34.24,-65.5 -88.17,-86.23 z"
     fill="#b8f7ff"
     id="path2" />
  <path
     d="M 349.625,205.9033 C 383.561,146.2863 363.155,70.6813 304.047,37.0345 244.938,3.388 169.511,24.4414 135.575,84.0583 c -33.936,59.617 -13.53,135.222 45.578,168.869 59.108,33.646 134.536,12.593 168.472,-47.024 z"
     fill="#50deb6"
     id="path4" />
  <path
     d="m 226.03,142.7503 21.1,-1.28 18.99,3.5"
     fill="#50deb6"
     id="path6" />
  <path
     d="m 226.03,142.7503 21.1,-1.28 18.99,3.5"
     stroke="#000000"
     stroke-width="8"
     stroke-miterlimit="10"
     id="path8" />
  <path
     d="m 163.37,199.0203 c -26.89,17.81 -49.55,41.28 -73,63.57 -2.06,2 -4.23,4 -7,4.81 -2.77,0.81 -6.14,0.1 -7.61,-2.43 -1.57,-2.69 -0.37,-6.05 0.89,-8.84 10.223,-22.755 23.038,-44.254 38.19,-64.07 8.4,-11 18.05,-21.78 30.94,-26.36 7.377,10.239 13.297,21.453 17.59,33.32 z"
     fill="#50deb6"
     id="path10" />
  <path
     d="m 161.42,227.0403 c -1.86,32.18 -10.76,63.51 -18.24,94.91 -0.66,2.77 -1.31,5.65 -0.66,8.42 0.65,2.77 3,5.38 5.92,5.39 3.11,0 5.42,-2.69 7.2,-5.17 14.531,-20.196 26.672,-42.008 36.18,-65 5.26,-12.74 9.74,-26.49 7.22,-40 -12.547,-1.263 -25.208,-0.775 -37.62,1.45 z"
     fill="#50deb6"
     id="path12" />
  <path
     d="m 191.67,247.7503 c 4.14,32 0.79,64.45 -1.08,96.72 -0.16,2.85 -0.3,5.81 0.9,8.41 1.2,2.6 4.16,4.72 7.21,4.18 3.25,-0.57 5.14,-3.67 6.53,-6.45 11.295,-22.458 19.84,-46.196 25.45,-70.7 3.07,-13.52 5.15,-27.87 0,-40.63 -13.318,1.103 -26.434,3.95 -39.01,8.47 z"
     fill="#50deb6"
     id="path14" />
  <path
     d="m 334.28,178.1903 c 31.34,-7.69 60.61,-22.14 90.18,-35.21 2.61,-1.15 5.33,-2.32 8.17,-2.18 2.84,0.14 5.82,2 6.34,4.85 0.56,3.06 -1.7,5.82 -3.83,8 -17.326,17.97 -36.667,33.882 -57.64,47.42 -11.61,7.49 -24.35,14.4 -38,14.37 -3.451,-12.116 -5.208,-24.652 -5.22,-37.25 z"
     fill="#50deb6"
     id="path16" />
  <path
     d="m 329.5,229.9703 c 2.68,32.12 12.37,63.23 20.64,94.44 0.73,2.75 1.46,5.62 0.88,8.4 -0.58,2.78 -2.87,5.45 -5.79,5.54 -3.11,0.09 -5.48,-2.57 -7.33,-5 -15.036,-19.846 -27.724,-41.366 -37.81,-64.13 -5.58,-12.61 -10.41,-26.25 -8.23,-39.76 12.51,-1.571 25.177,-1.4 37.64,0.51 z"
     fill="#50deb6"
     id="path18" />
  <path
     d="m 295.11,240.7403 c -3.34,32.07 0.83,64.46 3.52,96.67 0.23,2.84 0.44,5.8 -0.69,8.42 -1.13,2.62 -4,4.82 -7.1,4.36 -3.26,-0.49 -5.23,-3.55 -6.7,-6.29 -11.853,-22.19 -20.992,-45.726 -27.22,-70.1 -3.42,-13.43 -5.86,-27.73 -1,-40.61 13.337,0.796 26.512,3.334 39.19,7.55 z"
     fill="#50deb6"
     id="path20" />
  <path
     d="m 204.49,160.7903 c 11.355,0 20.56,-8.955 20.56,-20 0,-11.046 -9.205,-20 -20.56,-20 -11.355,0 -20.56,8.954 -20.56,20 0,11.045 9.205,20 20.56,20 z"
     fill="#ffffff"
     stroke="#000000"
     stroke-width="8"
     stroke-miterlimit="10"
     id="path22" />
  <path
     d="m 284.4,160.7903 c 11.355,0 20.56,-8.955 20.56,-20 0,-11.046 -9.205,-20 -20.56,-20 -11.355,0 -20.56,8.954 -20.56,20 0,11.045 9.205,20 20.56,20 z"
     fill="#ffffff"
     stroke="#000000"
     stroke-width="8"
     stroke-miterlimit="10"
     id="path24" />
  <path
     d="m 121.69,178.0803 c 0.54,0.44 23.17,18.88 19.14,43.85 -0.001,0.017 -0.001,0.033 0,0.05 l 11.91,17.69 c 0.231,0.34 0.571,0.59 0.965,0.708 0.393,0.118 0.815,0.098 1.195,-0.058 l 36.65,-14.89 c 0.191,-0.08 0.356,-0.212 0.477,-0.379 0.121,-0.168 0.194,-0.366 0.211,-0.572 0.016,-0.207 -0.024,-0.414 -0.117,-0.599 -0.093,-0.185 -0.235,-0.34 -0.411,-0.45 -7.71,-4.52 -34.11,-20.07 -49.46,-57.73 v -4.91 l -21.54,-3.68 c -0.05,0 -6.13,-1.24 -4.05,4.47 2.08,5.71 4.9,16.05 5,16.48 0.02,0.02 0.02,0.02 0.03,0.02 z"
     fill="#f2922c"
     id="path26" />
  <path
     d="m 364.78,167.1203 c -0.57,0.5 -24.68,21.59 -19.28,48.8 0.006,0.016 0.006,0.034 0,0.05 l -12.37,19.84 c -0.243,0.38 -0.608,0.667 -1.034,0.814 -0.427,0.148 -0.891,0.146 -1.316,-0.004 L 290,221.7503 c -0.218,-0.078 -0.41,-0.216 -0.553,-0.398 -0.144,-0.181 -0.233,-0.399 -0.259,-0.629 -0.026,-0.23 0.012,-0.463 0.112,-0.672 0.099,-0.209 0.255,-0.386 0.45,-0.511 8.33,-5.29 38.89,-22.21 54.25,-64.07 0,0 -0.48,-4.54 -0.46,-4.55 l 21.46,-6.81 c 0.05,0 6.68,-1.61 4.61,4.73 -2.07,6.34 -4.74,17.77 -4.85,18.26 z"
     fill="#f2922c"
     id="path28" />
</svg>
