<svg width="498.4" height="357.145" viewBox="0 0 498.4 357.145" fill="none" xmlns="http://www.w3.org/2000/svg"><path opacity=".5" d="M410.23 114.78c33.12-12.16 53.15-28 53.15-45.36C463.38 31.08 365.44 0 244.62 0S25.86 31.08 25.86 69.42c0 18.16 22 34.69 58 47.07C32.39 137.19 0 167.38 0 201.01c0 62.4 111.58 113 249.22 113s249.18-50.6 249.18-113c0-34.57-34.24-65.5-88.17-86.23z" fill="#b8f7ff"/><path d="M349.625 205.903c33.936-59.617 13.53-135.222-45.578-168.868C244.938 3.388 169.511 24.44 135.575 84.058c-33.936 59.617-13.53 135.222 45.578 168.87 59.108 33.645 134.536 12.592 168.472-47.025z" fill="#50deb6"/><path d="m226.03 142.75 21.1-1.28 18.99 3.5" fill="#50deb6"/><path d="m226.03 142.75 21.1-1.28 18.99 3.5" stroke="#000" stroke-width="8" stroke-miterlimit="10"/><path d="M163.37 199.02c-26.89 17.81-49.55 41.28-73 63.57-2.06 2-4.23 4-7 4.81-2.77.81-6.14.1-7.61-2.43-1.57-2.69-.37-6.05.89-8.84a324.229 324.229 0 0 1 38.19-64.07c8.4-11 18.05-21.78 30.94-26.36a136.348 136.348 0 0 1 17.59 33.32zM161.42 227.04c-1.86 32.18-10.76 63.51-18.24 94.91-.66 2.77-1.31 5.65-.66 8.42.65 2.77 3 5.38 5.92 5.39 3.11 0 5.42-2.69 7.2-5.17a321.959 321.959 0 0 0 36.18-65c5.26-12.74 9.74-26.49 7.22-40a136.005 136.005 0 0 0-37.62 1.45z" fill="#50deb6"/><path d="M191.67 247.75c4.14 32 .79 64.45-1.08 96.72-.16 2.85-.3 5.81.9 8.41 1.2 2.6 4.16 4.72 7.21 4.18 3.25-.57 5.14-3.67 6.53-6.45a312.632 312.632 0 0 0 25.45-70.7c3.07-13.52 5.15-27.87 0-40.63a152.566 152.566 0 0 0-39.01 8.47zM334.28 178.19c31.34-7.69 60.61-22.14 90.18-35.21 2.61-1.15 5.33-2.32 8.17-2.18 2.84.14 5.82 2 6.34 4.85.56 3.06-1.7 5.82-3.83 8a324.618 324.618 0 0 1-57.64 47.42c-11.61 7.49-24.35 14.4-38 14.37a136.458 136.458 0 0 1-5.22-37.25zM329.5 229.97c2.68 32.12 12.37 63.23 20.64 94.44.73 2.75 1.46 5.62.88 8.4-.58 2.78-2.87 5.45-5.79 5.54-3.11.09-5.48-2.57-7.33-5a322.588 322.588 0 0 1-37.81-64.13c-5.58-12.61-10.41-26.25-8.23-39.76a136.332 136.332 0 0 1 37.64.51z" fill="#50deb6"/><path d="M295.11 240.74c-3.34 32.07.83 64.46 3.52 96.67.23 2.84.44 5.8-.69 8.42s-4 4.82-7.1 4.36c-3.26-.49-5.23-3.55-6.7-6.29a313.519 313.519 0 0 1-27.22-70.1c-3.42-13.43-5.86-27.73-1-40.61a153.098 153.098 0 0 1 39.19 7.55z" fill="#50deb6"/><path d="M204.49 160.79c11.355 0 20.56-8.955 20.56-20 0-11.046-9.205-20-20.56-20-11.355 0-20.56 8.954-20.56 20 0 11.045 9.205 20 20.56 20zM284.4 160.79c11.355 0 20.56-8.955 20.56-20 0-11.046-9.205-20-20.56-20-11.355 0-20.56 8.954-20.56 20 0 11.045 9.205 20 20.56 20z" fill="#fff" stroke="#000" stroke-width="8" stroke-miterlimit="10"/><path d="M121.69 178.08c.54.44 23.17 18.88 19.14 43.85a.417.417 0 0 0 0 .05l11.91 17.69a1.785 1.785 0 0 0 2.16.65l36.65-14.89a1.129 1.129 0 0 0 .16-2c-7.71-4.52-34.11-20.07-49.46-57.73v-4.91l-21.54-3.68c-.05 0-6.13-1.24-4.05 4.47s4.9 16.05 5 16.48c.02.02.02.02.03.02zM364.78 167.12c-.57.5-24.68 21.59-19.28 48.8a.072.072 0 0 1 0 .05l-12.37 19.84a2.004 2.004 0 0 1-2.35.81L290 221.75a1.23 1.23 0 0 1-.553-.398 1.235 1.235 0 0 1 .303-1.812c8.33-5.29 38.89-22.21 54.25-64.07 0 0-.48-4.54-.46-4.55l21.46-6.81c.05 0 6.68-1.61 4.61 4.73-2.07 6.34-4.74 17.77-4.85 18.26z" fill="#f2922c"/></svg>