<?xml version="1.0" encoding="UTF-8" standalone="no"?>
<svg
   viewBox="0 0 548.10077 576.65906"
   height="576.65906"
   width="548.10077"
   xml:space="preserve"
   id="svg2"
   version="1.1"
   sodipodi:docname="icecream.svg"
   inkscape:version="1.1.1 (3bf5ae0d25, 2021-09-20, custom)"
   xmlns:inkscape="http://www.inkscape.org/namespaces/inkscape"
   xmlns:sodipodi="http://sodipodi.sourceforge.net/DTD/sodipodi-0.dtd"
   xmlns="http://www.w3.org/2000/svg"
   xmlns:svg="http://www.w3.org/2000/svg"
   xmlns:rdf="http://www.w3.org/1999/02/22-rdf-syntax-ns#"
   xmlns:cc="http://creativecommons.org/ns#"
   xmlns:dc="http://purl.org/dc/elements/1.1/"><sodipodi:namedview
     id="namedview50"
     pagecolor="#ffffff"
     bordercolor="#666666"
     borderopacity="1.0"
     inkscape:pageshadow="2"
     inkscape:pageopacity="0.0"
     inkscape:pagecheckerboard="0"
     showgrid="false"
     inkscape:zoom="1.1171875"
     inkscape:cx="274.7972"
     inkscape:cy="281.06294"
     inkscape:window-width="944"
     inkscape:window-height="1038"
     inkscape:window-x="2884"
     inkscape:window-y="8"
     inkscape:window-maximized="1"
     inkscape:current-layer="svg2" /><metadata
     id="metadata8"><rdf:RDF><cc:Work
         rdf:about=""><dc:format>image/svg+xml</dc:format><dc:type
           rdf:resource="http://purl.org/dc/dcmitype/StillImage" /></cc:Work></rdf:RDF></metadata><defs
     id="defs6"><clipPath
       id="clipPath18"
       clipPathUnits="userSpaceOnUse"><path
         id="path16"
         d="M 0,576 H 576 V 0 H 0 Z" /></clipPath></defs><g
     transform="matrix(1.3333333,0,0,-1.3333333,-109.41823,664.8495)"
     id="g10"><g
       id="g12"><g
         clip-path="url(#clipPath18)"
         id="g14"><g
           transform="translate(392.895,277.9416)"
           id="g20"><path
             id="path22"
             style="fill:#de4e3a;fill-opacity:1;fill-rule:nonzero;stroke:none"
             d="m 0,0 57.829,30.724 c 38.923,20.678 54.011,56.165 32.747,94.661 l 0.001,0.002 C 69.313,163.88 20.07,178.458 -18.853,157.78 l -63.358,-30.302 -36.073,55.935 c -23.862,37 -79.088,48.492 -116.476,25.241 -37.385,-23.249 -48.452,-72.546 -24.591,-109.544 l 28.454,-42.735 -38.01,-18.178 c -38.923,-20.678 -53.373,-69.093 -32.11,-107.59 21.262,-38.494 70.506,-53.071 109.429,-32.393 l 48.75,25.9 41.504,-62.336 c 23.862,-36.998 73.974,-48.248 111.36,-24.999 37.387,23.251 48.453,72.546 24.591,109.545 z" /></g><g
           transform="translate(339.7527,186.365)"
           id="g24"><path
             id="path26"
             style="fill:#50deb6;fill-opacity:1;fill-rule:nonzero;stroke:none"
             d="M 0,0 C 18.602,-5.72 46.468,22.637 52.012,28.945 57.556,35.254 65.946,48.238 50.966,52.507 35.986,56.776 21.512,57.79 17.6,57.799 13.688,57.808 5.817,57.602 5.218,52.841 4.615,48.04 22.647,40.914 26.112,40.018 18.909,33.051 -15.173,23.139 -22.074,18.495 -28.975,13.85 -5.21,1.602 0,0" /></g><g
           transform="translate(119.696,277.064)"
           id="g28"><path
             id="path30"
             style="fill:#50deb6;fill-opacity:1;fill-rule:nonzero;stroke:none"
             d="M 0,0 C -1.128,68.474 51.677,124.868 117.942,125.959 184.207,127.05 238.84,72.426 239.967,3.952 241.095,-64.522 188.291,-120.916 122.025,-122.007 55.76,-123.099 1.128,-68.474 0,0" /></g><g
           transform="translate(163.6951,214.2433)"
           id="g32"><path
             id="path34"
             style="fill:#50deb6;fill-opacity:1;fill-rule:nonzero;stroke:none"
             d="m 0,0 c -4.495,-31.915 -15.735,-62.416 -25.615,-93.095 -0.871,-2.704 -1.742,-5.524 -1.344,-8.337 0.397,-2.813 2.462,-5.604 5.291,-5.856 3.016,-0.269 5.479,2.247 7.415,4.574 15.797,18.986 29.414,39.783 40.499,61.853 6.161,12.265 11.661,25.601 10.339,39.217 C 24.304,0.568 11.757,1.299 0,0" /></g><g
           transform="translate(186.2605,188.2177)"
           id="g36"><path
             id="path38"
             style="fill:#50deb6;fill-opacity:1;fill-rule:nonzero;stroke:none"
             d="m 0,0 c 0.721,-32.102 -5.443,-63.902 -10.236,-95.658 -0.422,-2.799 -0.826,-5.713 0.021,-8.413 0.847,-2.701 3.336,-5.112 6.169,-4.903 3.019,0.223 5.043,3.094 6.578,5.694 12.52,21.215 22.598,43.86 29.972,67.347 4.097,13.053 7.37,27.051 3.865,40.224 C 23.893,4.483 11.393,3.175 0,0" /></g><g
           transform="translate(219.2478,183.7652)"
           id="g40"><path
             id="path42"
             style="fill:#50deb6;fill-opacity:1;fill-rule:nonzero;stroke:none"
             d="m 0,0 c 7.373,-31.379 7.546,-64.017 9.131,-96.301 0.14,-2.845 0.322,-5.799 1.758,-8.262 1.436,-2.462 4.514,-4.27 7.408,-3.425 3.084,0.901 4.59,4.179 5.645,7.08 8.603,23.672 14.379,48.197 17.176,72.939 1.555,13.751 2.059,28.243 -4.294,40.395 C 23.848,9.798 11.157,5.692 0,0" /></g><g
           transform="translate(255.7099,187.0871)"
           id="g44"><path
             id="path46"
             style="fill:#50deb6;fill-opacity:1;fill-rule:nonzero;stroke:none"
             d="m 0,0 c 13.165,-29.416 20.165,-61.056 28.351,-92.157 0.721,-2.741 1.504,-5.581 3.302,-7.77 1.799,-2.189 4.926,-3.513 7.334,-2.29 2.565,1.304 3.223,4.694 3.556,7.657 2.718,24.166 2.732,48.765 0.041,73.16 C 41.088,-7.843 38.499,6.288 30.277,17.191 19.241,12.832 8.77,7.078 0,0" /></g><g
           transform="translate(302.9082,257.5052)"
           id="g48"><path
             id="path50"
             style="fill:#50deb6;fill-opacity:1;fill-rule:nonzero;stroke:#000000;stroke-width:8;stroke-linecap:butt;stroke-linejoin:miter;stroke-miterlimit:10;stroke-dasharray:none;stroke-opacity:1"
             d="M 0,0 16.876,1.128 31.927,-3.423" /></g><g
           transform="translate(268.5387,260.6896)"
           id="g52"><path
             id="path54"
             style="fill:#ffffff;fill-opacity:1;fill-rule:nonzero;stroke:none"
             d="M 0,0 C 3.151,8.575 12.666,22.744 17.389,23.589 26.533,25.224 33.944,12.443 33.626,-0.808 33.307,-14.059 25.522,-24.62 16.236,-24.397 6.951,-24.174 -4.572,-12.441 0,0" /></g><g
           transform="translate(268.5387,260.6896)"
           id="g56"><path
             id="path58"
             style="fill:none;stroke:#000000;stroke-width:8;stroke-linecap:butt;stroke-linejoin:miter;stroke-miterlimit:10;stroke-dasharray:none;stroke-opacity:1"
             d="M 0,0 C 3.151,8.575 12.666,22.744 17.389,23.589 26.533,25.224 33.944,12.443 33.626,-0.808 33.307,-14.059 25.522,-24.62 16.236,-24.397 6.951,-24.174 -4.572,-12.441 0,0 Z" /></g><g
           transform="translate(333.7644,254.1205)"
           id="g60"><path
             id="path62"
             style="fill:#ffffff;fill-opacity:1;fill-rule:nonzero;stroke:none"
             d="M 0,0 C 0.318,13.251 6.807,25.34 14.073,23.669 21.148,22.041 26.267,4.513 26.992,-0.649 28.836,-13.775 20.373,-24.497 12.919,-24.317 5.466,-24.138 -0.318,-13.251 0,0" /></g><g
           transform="translate(333.7644,254.1205)"
           id="g64"><path
             id="path66"
             style="fill:none;stroke:#000000;stroke-width:8;stroke-linecap:butt;stroke-linejoin:miter;stroke-miterlimit:10;stroke-dasharray:none;stroke-opacity:1"
             d="M 0,0 C 0.318,13.251 6.807,25.34 14.073,23.669 21.148,22.041 26.267,4.513 26.992,-0.649 28.836,-13.775 20.373,-24.497 12.919,-24.317 5.466,-24.138 -0.318,-13.251 0,0 Z" /></g><g
           transform="translate(302.9353,206.1301)"
           id="g68"><path
             id="path70"
             style="fill:#50deb6;fill-opacity:1;fill-rule:nonzero;stroke:none"
             d="m 0,0 c 28.017,-15.933 59.033,-25.661 89.359,-36.575 2.673,-0.962 5.439,-1.995 7.423,-4.028 1.984,-2.032 2.933,-5.372 1.405,-7.767 -1.629,-2.551 -5.126,-2.965 -8.151,-3.077 -24.681,-0.912 -49.465,1.007 -73.711,5.708 -13.475,2.613 -27.393,6.403 -37.367,15.766 C -15.294,-18.898 -8.209,-8.517 0,0" /></g><g
           transform="translate(406.2549,182.6283)"
           id="g72"><path
             id="path74"
             style="fill:#f2d579;fill-opacity:1;fill-rule:nonzero;stroke:none"
             d="m 0,0 c -0.84,1.54 -2.439,2.528 -4.192,2.603 -0.095,0.003 -9.69,0.487 -25.079,7.884 -1.456,0.702 -3.16,0.655 -4.575,-0.124 -1.415,-0.778 -2.367,-2.192 -2.556,-3.796 l -8.054,-68.295 c -0.277,-2.35 1.132,-4.573 3.375,-5.326 0.524,-0.175 1.06,-0.26 1.59,-0.26 1.736,0 3.397,0.908 4.314,2.472 L -0.062,-4.923 C 0.825,-3.409 0.84,-1.54 0,0" /></g><g
           transform="translate(406.3293,181.3603)"
           id="g76"><path
             id="path78"
             style="fill:#cbb256;fill-opacity:1;fill-rule:nonzero;stroke:none"
             d="M 0,0 C -0.88,-3.052 -9.517,-3.243 -19.293,-0.425 -29.068,2.392 -36.28,7.15 -35.4,10.202 c 0.879,3.052 9.517,3.242 19.293,0.425 C -6.332,7.81 0.88,3.052 0,0" /></g><g
           transform="translate(450.4407,77.1151)"
           id="g80"><path
             id="path82"
             style="fill:#ff9cc0;fill-opacity:1;fill-rule:nonzero;stroke:none"
             d="M 0,0 C 0.017,1.166 -2.811,2.724 -7.554,4.107 -7.708,12.505 -20.16,25.664 -35.434,25.371 -50.61,25.08 -62.869,11.621 -63.022,3.208 c -5.122,-1.622 -8.21,-3.379 -8.227,-4.593 -0.04,-2.766 15.878,-4.698 35.552,-4.316 2.254,0.044 4.457,0.118 6.595,0.216 -1.632,-0.919 -2.6,-1.873 -2.602,-2.563 -0.004,-1.773 6.324,-3.076 14.135,-2.91 7.811,0.166 14.146,1.738 14.151,3.511 0.003,1.104 -2.455,2.78 -6.195,3.848 C -3.67,-2.589 -0.019,-1.319 0,0" /></g><g
           transform="translate(370.638,74.5277)"
           id="g84"><path
             id="path86"
             style="fill:#ff9cc0;fill-opacity:1;fill-rule:nonzero;stroke:none"
             d="m 0,0 c -4.723,-0.101 -8.546,-2.229 -8.549,-3.3 -0.003,-1.073 3.824,-1.86 8.546,-1.76 4.723,0.101 8.554,1.051 8.556,2.123 C 8.556,-1.865 4.723,0.101 0,0" /></g><g
           transform="translate(406.7794,184.2553)"
           id="g88"><path
             id="path90"
             style="fill:#ff9cc0;fill-opacity:1;fill-rule:nonzero;stroke:none"
             d="m 0,0 c -0.714,0.518 -2.23,1.432 -2.651,1.124 -0.932,-0.681 0.636,-2.409 0.938,-2.862 0.302,-0.453 0.429,-0.735 -0.359,-1.243 -0.789,-0.508 -2.102,-0.949 -4.256,-0.97 -0.627,-0.006 -2.566,-0.016 -2.566,-0.016 -0.8,-0.084 -4.221,0.295 -4.203,-0.847 0.026,-1.486 4.067,-1.874 4.558,-1.877 0.408,10e-4 1.08,0.005 2.135,0.015 0.373,0.004 0.734,0.016 1.085,0.035 -0.089,-1.538 0.182,-3.075 1.041,-3.832 0.368,-0.324 0.821,-0.494 1.283,-0.494 0.212,0 0.426,0.035 0.634,0.108 0.931,0.324 2.005,1.326 2.997,6.079 0.41,0.383 0.698,0.819 0.853,1.304 C 1.676,-2.89 1.904,-1.378 0,0" /></g><g
           transform="translate(402.6109,156.8281)"
           id="g92"><path
             id="path94"
             style="fill:#50deb6;fill-opacity:1;fill-rule:nonzero;stroke:none"
             d="M 0,0 C 2.604,7.867 -6.251,14.583 -13.365,10.333 -16.966,8.181 -21.353,4.956 -25.751,0.24 -36.157,-10.921 -13.41,-14.386 -5.626,-7.69 -2.517,-5.016 -0.8,-2.417 0,0" /></g><g
           transform="translate(269.1937,238.8658)"
           id="g96"><path
             id="path98"
             style="fill:#00ace3;fill-opacity:1;fill-rule:nonzero;stroke:none"
             d="M 0,0 C 0,0 -12.226,-17.638 0,-18.121 12.226,-18.604 0,0 0,0" /></g></g></g></g></svg>
