<?xml version="1.0" encoding="UTF-8" standalone="no"?>
<svg
   width="487.18985"
   height="394.67532"
   viewBox="0 0 487.18985 394.67532"
   fill="none"
   version="1.1"
   id="svg32"
   sodipodi:docname="move.svg"
   inkscape:version="1.1.1 (3bf5ae0d25, 2021-09-20, custom)"
   xmlns:inkscape="http://www.inkscape.org/namespaces/inkscape"
   xmlns:sodipodi="http://sodipodi.sourceforge.net/DTD/sodipodi-0.dtd"
   xmlns="http://www.w3.org/2000/svg"
   xmlns:svg="http://www.w3.org/2000/svg">
  <defs
     id="defs36" />
  <sodipodi:namedview
     id="namedview34"
     pagecolor="#ffffff"
     bordercolor="#666666"
     borderopacity="1.0"
     inkscape:pageshadow="2"
     inkscape:pageopacity="0.0"
     inkscape:pagecheckerboard="0"
     showgrid="false"
     inkscape:zoom="0.3575"
     inkscape:cx="258.74126"
     inkscape:cy="-374.82517"
     inkscape:window-width="959"
     inkscape:window-height="1058"
     inkscape:window-x="2880"
     inkscape:window-y="0"
     inkscape:window-maximized="1"
     inkscape:current-layer="svg32" />
  <path
     opacity="0.5"
     d="m 447.14704,343.39489 c -388.689999,-21.67 -508.669899,143.74 -418.869899,-328.870005 0.4603,-2.427 1.4196,-4.733 2.8172,-6.771 1.3976,-2.038 3.2031,-3.763 5.3022,-5.067 2.099,-1.304 4.4459,-2.15799997 6.8921,-2.50699997 2.4461,-0.35 4.9382,-0.188 7.3185,0.475 C 175.13704,35.184885 302.81704,58.024885 431.04704,74.204885 c 2.365,0.302 4.646,1.075 6.708,2.273 2.062,1.197 3.862,2.796 5.296,4.701 1.434,1.906 2.471,4.079 3.051,6.392 0.58,2.313 0.69,4.718 0.325,7.074 -11.546,75.498005 -5.154,152.653005 18.66,225.220005 v 0.16 c 0.902,2.759 1.117,5.695 0.628,8.556 -0.489,2.86 -1.668,5.558 -3.435,7.86 -1.767,2.302 -4.069,4.139 -6.706,5.35 -2.637,1.212 -5.529,1.763 -8.427,1.604 z"
     fill="#fff47a"
     id="path2" />
  <path
     d="m 365.73204,334.16389 c 75.708,-13.8 129.63,-65.869 120.437,-116.302 -9.192,-50.432 -78.017,-80.128 -153.725,-66.329 -75.708,13.799 -129.63,65.869 -120.437,116.302 9.192,50.432 78.017,80.128 153.725,66.329 z"
     fill="#ffc69e"
     id="path4" />
  <path
     d="m 256.93704,195.24489 c 30,11.78 62.08,17 93.65,23.49 2.79,0.57 5.67,1.2 7.92,2.93 2.25,1.73 3.67,4.9 2.5,7.49 -1.25,2.76 -4.65,3.66 -7.63,4.2 -24.328,4.418 -49.082,6.042 -73.78,4.84 -13.71,-0.67 -28,-2.44 -39.23,-10.29 3.944,-11.618 9.523,-22.615 16.57,-32.66 z"
     fill="#50deb6"
     id="path6" />
  <path
     d="m 156.46304,316.48889 c 66.266,-1.087 119.073,-57.478 117.95,-125.952 -1.124,-68.474 -55.753,-123.102005 -122.018,-122.015005 -66.265999,1.088 -119.073299,57.478005 -117.949799,125.952005 1.1235,68.474 55.7528,123.102 122.017799,122.015 z"
     fill="#50deb6"
     id="path8" />
  <path
     d="m 55.267041,241.72489 c -9.1198,30.91 -24.7098,59.44 -38.9998,88.34 -1.26,2.55 -2.54,5.21 -2.56,8 -0.02,2.79 1.62,5.91 4.38,6.57 2.94,0.71 5.75,-1.42 8,-3.44 18.4308,-16.461 34.9238,-34.971 49.1598,-55.17 7.89,-11.23 15.28,-23.62 16,-37.28 -11.598,-4.042 -23.713,-6.405 -35.98,-7.02 z"
     fill="#50deb6"
     id="path10" />
  <path
     d="m 77.057041,271.57489 c -4,31.87 -14.75,62.42 -24.14,93.13 -0.83,2.71 -1.66,5.53 -1.21,8.33 0.45,2.8 2.55,5.54 5.38,5.75 3,0.22 5.44,-2.32 7.34,-4.67 15.502,-19.167 28.758,-40.047 39.509999,-62.23 6,-12.31 11.26,-25.68 9.72,-39.22 -12.086,-2.096 -24.409999,-2.463 -36.599999,-1.09 z"
     fill="#50deb6"
     id="path12" />
  <path
     d="m 104.52704,285.02489 c 2.7,32.12 -1.91,64.43 -5.079999,96.6 -0.27,2.83 -0.53,5.78 0.53,8.43 1.059999,2.65 3.839999,4.88 6.829999,4.47 3.18,-0.44 5.15,-3.46 6.62,-6.17 11.932,-22.044 21.223,-45.419 27.68,-69.64 3.55,-13.37 6.17,-27.64 1.67,-40.59 -13.002,0.573 -25.867,2.894 -38.25,6.9 z"
     fill="#50deb6"
     id="path14" />
  <path
     d="m 144.87704,287.63489 c 8.72,31 11,63.35 14.55,95.31 0.31,2.82 0.67,5.74 2.13,8.17 1.46,2.43 4.36,4.2 6.92,3.34 2.73,-0.91 3.87,-4.17 4.64,-7 6.257,-23.67 9.866,-47.962 10.76,-72.43 0.51,-13.63 0,-28 -6.52,-40 -11.397,2.552 -22.346,6.803 -32.48,12.61 z"
     fill="#50deb6"
     id="path16" />
  <path
     d="m 206.41704,149.35589 15.96,-5.61 15.72,0.36"
     fill="#ffffff"
     id="path18" />
  <path
     d="m 194.63304,174.63989 c 9.007,-2.273 13.681,-14.534 10.438,-27.386 -3.242,-12.852 -13.173,-21.428 -22.18,-19.156 -9.007,2.273 -13.68,14.534 -10.438,27.386 3.243,12.852 13.173,21.428 22.18,19.156 z"
     fill="#ffffff"
     id="path20" />
  <path
     d="m 256.02104,164.31589 c 7.229,-1.824 10.461,-13.721 7.219,-26.573 -3.243,-12.853 -11.732,-21.793 -18.961,-19.969 -7.23,1.824 -10.462,13.721 -7.219,26.574 3.243,12.852 11.732,21.792 18.961,19.968 z"
     fill="#ffffff"
     id="path22" />
  <path
     fill-rule="evenodd"
     clip-rule="evenodd"
     d="m 258.15504,119.49989 c 3.986,4.198 7.206,10.298 8.963,17.264 1.757,6.966 1.817,13.862 0.299,19.449 -1.48,5.448 -4.779,10.559 -10.418,11.981 -5.638,1.422 -10.967,-1.511 -14.854,-5.605 -3.466,-3.649 -6.351,-8.735 -8.201,-14.578 l -10.929,-0.25 -13.044,4.585 c 0.425,5.015 -0.205,9.84 -1.788,13.993 -2.209,5.798 -6.457,10.636 -12.571,12.179 -6.115,1.543 -12.149,-0.702 -16.845,-4.758 -4.708,-4.065 -8.395,-10.173 -10.192,-17.298 -1.798,-7.125 -1.45,-14.251 0.766,-20.063 2.21,-5.798 6.457,-10.637 12.571,-12.18 6.115,-1.542 12.149,0.702 16.845,4.758 4.291,3.706 7.734,9.108 9.671,15.431 l 13.311,-4.678 10.419,0.238 c -0.66,-5.08 -0.402,-9.946 0.724,-14.092 1.48,-5.448 4.78,-10.558 10.418,-11.981 5.638,-1.422 10.967,1.511 14.855,5.605 z m -5.802,5.509 c -2.975,-3.133 -5.505,-3.758 -7.096,-3.357 -1.591,0.402 -3.522,2.152 -4.655,6.322 -1.095,4.03 -1.149,9.509 0.336,15.395 1.485,5.886 4.132,10.683 7.008,13.712 2.975,3.133 5.505,3.758 7.096,3.356 1.591,-0.401 3.522,-2.152 4.655,-6.321 1.095,-4.031 1.149,-9.509 -0.336,-15.395 -1.485,-5.886 -4.131,-10.683 -7.008,-13.712 z m -58.825,10.023 c -3.331,-2.878 -6.766,-3.785 -9.659,-3.056 -2.892,0.73 -5.485,3.158 -7.053,7.272 -1.562,4.099 -1.929,9.53 -0.484,15.257 1.444,5.727 4.344,10.333 7.664,13.201 3.332,2.877 6.766,3.785 9.659,3.055 2.892,-0.73 5.485,-3.158 7.053,-7.271 1.562,-4.1 1.929,-9.531 0.484,-15.257 -1.444,-5.727 -4.344,-10.334 -7.664,-13.201 z"
     fill="#000000"
     id="path24" />
  <path
     d="m 302.39704,312.94589 -10.709,-80.71 37.47,-46.4 77.399,-10.07 8.781,73.03 -25.88,56.8 z"
     fill="#b58770"
     id="path26" />
  <path
     d="m 243.10704,239.56489 c 28,15.93 59,25.66 89.36,36.57 2.67,1 5.44,2 7.42,4 1.98,2 2.94,5.37 1.41,7.77 -1.63,2.55 -5.13,3 -8.15,3.08 -24.71,0.908 -49.444,-1.008 -73.72,-5.71 -13.47,-2.62 -27.39,-6.41 -37.36,-15.77 5.557,-10.928 12.641,-21.009 21.04,-29.94 z"
     fill="#50deb6"
     id="path28" />
  <path
     d="m 406.69704,179.17489 -24.71,52.7 7.6,74.72 25.96,-56.02 z"
     fill="#a37862"
     id="path30" />
</svg>
