<svg width="487.19" height="394.675" viewBox="0 0 487.19 394.675" fill="none" xmlns="http://www.w3.org/2000/svg"><path opacity=".5" d="M447.147 343.395c-388.69-21.67-508.67 143.74-418.87-328.87a17.856 17.856 0 0 1 8.12-11.838A17.852 17.852 0 0 1 50.607.655c124.53 34.53 252.21 57.37 380.44 73.55a17.856 17.856 0 0 1 15.055 13.366c.58 2.313.69 4.718.325 7.074a486.458 486.458 0 0 0 18.66 225.22v.16a17.851 17.851 0 0 1-17.94 23.37z" fill="#fff47a"/><path d="M365.732 334.164c75.708-13.8 129.63-65.87 120.437-116.302-9.192-50.432-78.017-80.128-153.725-66.33-75.708 13.8-129.63 65.87-120.437 116.303 9.192 50.432 78.017 80.128 153.725 66.329z" fill="#ffc69e"/><path d="M256.937 195.245c30 11.78 62.08 17 93.65 23.49 2.79.57 5.67 1.2 7.92 2.93 2.25 1.73 3.67 4.9 2.5 7.49-1.25 2.76-4.65 3.66-7.63 4.2a324.61 324.61 0 0 1-73.78 4.84c-13.71-.67-28-2.44-39.23-10.29a129.163 129.163 0 0 1 16.57-32.66z" fill="#50deb6"/><path d="M156.463 316.489c66.266-1.087 119.073-57.478 117.95-125.952-1.124-68.474-55.753-123.102-122.018-122.015C86.129 69.61 33.322 126 34.445 194.474c1.124 68.474 55.753 123.102 122.018 122.015z" fill="#50deb6"/><path d="M55.267 241.725c-9.12 30.91-24.71 59.44-39 88.34-1.26 2.55-2.54 5.21-2.56 8-.02 2.79 1.62 5.91 4.38 6.57 2.94.71 5.75-1.42 8-3.44a325 325 0 0 0 49.16-55.17c7.89-11.23 15.28-23.62 16-37.28a128.944 128.944 0 0 0-35.98-7.02z" fill="#50deb6"/><path d="M77.057 271.575c-4 31.87-14.75 62.42-24.14 93.13-.83 2.71-1.66 5.53-1.21 8.33.45 2.8 2.55 5.54 5.38 5.75 3 .22 5.44-2.32 7.34-4.67a322.955 322.955 0 0 0 39.51-62.23c6-12.31 11.26-25.68 9.72-39.22a129.424 129.424 0 0 0-36.6-1.09z" fill="#50deb6"/><path d="M104.527 285.025c2.7 32.12-1.91 64.43-5.08 96.6-.27 2.83-.53 5.78.53 8.43 1.06 2.65 3.84 4.88 6.83 4.47 3.18-.44 5.15-3.46 6.62-6.17a318.822 318.822 0 0 0 27.68-69.64c3.55-13.37 6.17-27.64 1.67-40.59a145.008 145.008 0 0 0-38.25 6.9z" fill="#50deb6"/><path d="M144.877 287.635c8.72 31 11 63.35 14.55 95.31.31 2.82.67 5.74 2.13 8.17 1.46 2.43 4.36 4.2 6.92 3.34 2.73-.91 3.87-4.17 4.64-7a330.651 330.651 0 0 0 10.76-72.43c.51-13.63 0-28-6.52-40a116.553 116.553 0 0 0-32.48 12.61z" fill="#50deb6"/><path d="m206.417 149.356 15.96-5.61 15.72.36M194.633 174.64c9.007-2.273 13.681-14.534 10.438-27.386-3.242-12.852-13.173-21.428-22.18-19.156-9.007 2.273-13.68 14.534-10.438 27.386 3.243 12.852 13.173 21.428 22.18 19.156z" fill="#fff"/><path d="M256.021 164.316c7.229-1.824 10.461-13.721 7.219-26.573-3.243-12.853-11.732-21.793-18.961-19.97-7.23 1.825-10.462 13.722-7.219 26.575 3.243 12.852 11.732 21.792 18.961 19.968z" fill="#fff"/><path fill-rule="evenodd" clip-rule="evenodd" d="M258.155 119.5c3.986 4.198 7.206 10.298 8.963 17.264 1.757 6.966 1.817 13.862.299 19.449-1.48 5.448-4.779 10.559-10.418 11.98-5.638 1.423-10.967-1.51-14.854-5.604-3.466-3.65-6.351-8.735-8.201-14.578l-10.929-.25-13.044 4.585c.425 5.015-.205 9.84-1.788 13.993-2.209 5.798-6.457 10.636-12.571 12.179-6.115 1.543-12.149-.702-16.845-4.758-4.708-4.065-8.395-10.173-10.192-17.298-1.798-7.125-1.45-14.251.766-20.063 2.21-5.798 6.457-10.637 12.571-12.18 6.115-1.542 12.149.702 16.845 4.758 4.291 3.706 7.734 9.108 9.671 15.43l13.311-4.677 10.419.238c-.66-5.08-.402-9.946.724-14.092 1.48-5.448 4.78-10.558 10.418-11.981 5.638-1.422 10.967 1.51 14.855 5.605zm-5.802 5.509c-2.975-3.133-5.505-3.758-7.096-3.357-1.591.402-3.522 2.152-4.655 6.322-1.095 4.03-1.149 9.509.336 15.395 1.485 5.886 4.132 10.683 7.008 13.712 2.975 3.133 5.505 3.758 7.096 3.356 1.591-.401 3.522-2.152 4.655-6.321 1.095-4.031 1.149-9.51-.336-15.395-1.485-5.886-4.131-10.683-7.008-13.712zm-58.825 10.023c-3.331-2.878-6.766-3.785-9.659-3.056-2.892.73-5.485 3.158-7.053 7.272-1.562 4.099-1.929 9.53-.484 15.257 1.444 5.727 4.344 10.333 7.664 13.2 3.332 2.878 6.766 3.786 9.659 3.056 2.892-.73 5.485-3.158 7.053-7.271 1.562-4.1 1.929-9.531.484-15.257-1.444-5.727-4.344-10.334-7.664-13.201z" fill="#000"/><path d="m302.397 312.946-10.709-80.71 37.47-46.4 77.399-10.07 8.781 73.03-25.88 56.8z" fill="#b58770"/><path d="M243.107 239.565c28 15.93 59 25.66 89.36 36.57 2.67 1 5.44 2 7.42 4 1.98 2 2.94 5.37 1.41 7.77-1.63 2.55-5.13 3-8.15 3.08a324.938 324.938 0 0 1-73.72-5.71c-13.47-2.62-27.39-6.41-37.36-15.77a129.157 129.157 0 0 1 21.04-29.94z" fill="#50deb6"/><path d="m406.697 179.175-24.71 52.7 7.6 74.72 25.96-56.02z" fill="#a37862"/></svg>