<svg width="389.465" height="360.19" viewBox="0 0 389.465 360.19" fill="none" xmlns="http://www.w3.org/2000/svg"><path d="m123.273 10.896-94.19 62.6a65.139 65.139 0 0 0-28.26 64.57l26.83 167.29a65.143 65.143 0 0 0 50.329 53.313 65.152 65.152 0 0 0 25.78.447l232.33-42.69a65.15 65.15 0 0 0 52.65-73.75l-22.84-152.18a65.146 65.146 0 0 0-48.83-53.6l-142.13-35a65.148 65.148 0 0 0-51.67 9z" fill="#d6ba81" fill-opacity=".5"/><path d="M269.128 221.882c33.936-59.617 13.53-135.223-45.578-168.87C164.44 19.367 89.014 40.42 55.078 100.038c-33.936 59.617-13.53 135.222 45.578 168.869 59.109 33.646 134.536 12.593 168.472-47.024z" fill="#50deb6"/><path d="M85.313 225.676c-1.86 32.18-10.76 63.52-18.25 94.91-.65 2.77-1.31 5.65-.66 8.42.65 2.77 3 5.38 5.93 5.4 3.11 0 5.42-2.7 7.2-5.18a321.959 321.959 0 0 0 36.18-65c5.25-12.74 9.74-26.49 7.22-39.94a136.463 136.463 0 0 0-37.62 1.39z" fill="#50deb6"/><path d="M110.133 242.896c4.15 32 .79 64.46-1.08 96.73-.16 2.84-.29 5.8.91 8.4 1.2 2.6 4.15 4.72 7.2 4.19 3.25-.58 5.15-3.68 6.54-6.45a312.79 312.79 0 0 0 25.44-70.73c3.08-13.51 5.16-27.87 0-40.62a153.119 153.119 0 0 0-39.01 8.48zM250.173 225.597c2.68 32.12 12.37 63.23 20.64 94.44.73 2.75 1.46 5.62.88 8.4-.58 2.78-2.87 5.45-5.79 5.54-3.11.09-5.48-2.57-7.33-5a322.588 322.588 0 0 1-37.81-64.13c-5.58-12.61-10.41-26.25-8.23-39.76a136.332 136.332 0 0 1 37.64.51z" fill="#50deb6"/><path d="M222.713 242.357c-3.34 32.07.83 64.45 3.52 96.67.24 2.84.44 5.79-.69 8.42s-4 4.82-7.1 4.36c-3.26-.5-5.23-3.55-6.69-6.29a313.109 313.109 0 0 1-27.23-70.1c-3.41-13.43-5.86-27.74-1-40.61a152.578 152.578 0 0 1 39.19 7.55z" fill="#50deb6"/><path d="m145.532 158.727 21.1-1.27 18.99 3.49M123.993 176.767c11.355 0 20.56-8.955 20.56-20 0-11.046-9.205-20-20.56-20-11.355 0-20.56 8.954-20.56 20 0 11.045 9.205 20 20.56 20z" fill="#fff"/><path d="M203.903 176.767c11.355 0 20.56-8.955 20.56-20 0-11.046-9.205-20-20.56-20-11.355 0-20.56 8.954-20.56 20 0 11.045 9.205 20 20.56 20z" fill="#fff"/><path fill-rule="evenodd" clip-rule="evenodd" d="M123.993 140.767c-9.251 0-16.56 7.266-16.56 16 0 8.733 7.309 16 16.56 16 9.25 0 16.56-7.267 16.56-16 0-8.734-7.31-16-16.56-16zm-24.56 16c0-13.36 11.1-24 24.56-24 12.703 0 23.306 9.48 24.456 21.777l18.428-1.11 12.488 2.296c.557-12.868 11.429-22.963 24.538-22.963 13.459 0 24.56 10.64 24.56 24 0 13.358-11.101 24-24.56 24-10.888 0-20.232-6.964-23.405-16.695l-14.111-2.593-18.561 1.117c-2.674 10.496-12.403 18.17-23.833 18.17-13.46 0-24.56-10.641-24.56-24zm104.47-16c-9.251 0-16.56 7.266-16.56 16 0 8.733 7.309 16 16.56 16 9.25 0 16.56-7.267 16.56-16 0-8.734-7.31-16-16.56-16z" fill="#000"/><path d="m60.753 161.437 21.71-13.23s53.15 10.73 64.61 23.62c0 0 59.36-30.88 89.08-24.35l10.4 14.24-14.93 40.77-158.4-16.18z" fill="#faefd4"/><path d="m53.293 154.716.43 2.95 16.32 112.3s59.35 23.93 72.09 23.36c27.54-1.18 99.43-19.52 99.43-19.52l9.69-117.74s-69.86 14.75-95.16 19.09c-10.08 1.72-31.2-.14-41.17-2.22-15.91-3.33-61.63-18.22-61.63-18.22z" fill="#437543"/><path d="M29.242 210.046c1.59.57 3.18 1.16 4.75 1.77a197.166 197.166 0 0 1 49.46 28.14c1.89 1.47 3.82 3.05 4.84 5.22s.84 5.1-1 6.59c-1.37 1.07-3.24 1.16-5 1.15a91.345 91.345 0 0 1-28.07-4.56c-8-2.65-22-8.65-27.07-15.43-5.07-6.78-5.46-18.66.52-24.64 8-8 22.72-7.25 29.1-.69 6.38 6.56 4.16 20.83-3.38 26zM266.893 209.897c-5.5 12.49-38.61 17.3-57.5 34a17.502 17.502 0 0 0-5.5 9c-.8 3.45.26 7.56 3.3 9.39a12.38 12.38 0 0 0 5.71 1.35 99.021 99.021 0 0 0 45.5-8c5.92-2.58 11.71-5.84 16-10.69 4.29-4.85 6.87-11.52 5.61-17.86-1.26-6.34-10.29-23.71-13.12-17.19z" fill="#50deb6"/></svg>