<?xml version="1.0" encoding="UTF-8" standalone="no"?>
<svg
   width="389.46494"
   height="360.19031"
   viewBox="0 0 389.46494 360.19031"
   fill="none"
   version="1.1"
   id="svg30"
   sodipodi:docname="read.svg"
   inkscape:version="1.1.1 (3bf5ae0d25, 2021-09-20, custom)"
   xmlns:inkscape="http://www.inkscape.org/namespaces/inkscape"
   xmlns:sodipodi="http://sodipodi.sourceforge.net/DTD/sodipodi-0.dtd"
   xmlns="http://www.w3.org/2000/svg"
   xmlns:svg="http://www.w3.org/2000/svg">
  <defs
     id="defs34" />
  <sodipodi:namedview
     id="namedview32"
     pagecolor="#ffffff"
     bordercolor="#666666"
     borderopacity="1.0"
     inkscape:pageshadow="2"
     inkscape:pageopacity="0.0"
     inkscape:pagecheckerboard="0"
     showgrid="false"
     inkscape:zoom="1.43"
     inkscape:cx="195.45455"
     inkscape:cy="179.72028"
     inkscape:window-width="959"
     inkscape:window-height="1058"
     inkscape:window-x="2880"
     inkscape:window-y="0"
     inkscape:window-maximized="1"
     inkscape:current-layer="svg30" />
  <path
     d="m 123.27284,10.895896 -94.189996,62.6 c -10.409,6.918 -18.607,16.684 -23.6180002,28.133004 -5.01099999,11.449 -6.622,24.098 -4.64199999,36.437 l 26.83000019,167.29 c 1.374,8.572 4.448,16.782 9.04,24.149 4.592,7.366 10.61,13.741 17.7,18.749 7.091,5.009 15.111,8.549 23.589,10.415 8.478,1.865 17.243,2.017 25.780996,0.447 l 232.33,-42.69 c 16.631,-3.057 31.421,-12.46 41.246,-26.222 9.825,-13.763 13.914,-30.806 11.404,-47.528 l -22.84,-152.180004 c -1.913,-12.767 -7.576,-24.677 -16.27,-34.22 -8.694,-9.543 -20.027,-16.288 -32.56,-19.38 l -142.13,-34.9999997 c -8.766,-2.16199996 -17.886,-2.47899996 -26.781,-0.92999996 -8.895,1.54999996 -17.371,4.93099996 -24.889,9.92999966 z"
     fill="#d6ba81"
     fill-opacity="0.5"
     id="path2" />
  <path
     d="m 269.12784,221.8819 c 33.936,-59.617 13.53,-135.223004 -45.578,-168.869004 -59.109,-33.647 -134.535996,-12.593 -168.471996,47.024004 -33.936,59.617 -13.53,135.222 45.577996,168.869 59.109,33.646 134.536,12.593 168.472,-47.024 z"
     fill="#50deb6"
     id="path4" />
  <path
     d="m 85.312844,225.6759 c -1.86,32.18 -10.76,63.52 -18.25,94.91 -0.65,2.77 -1.31,5.65 -0.66,8.42 0.65,2.77 3,5.38 5.93,5.4 3.11,0 5.42,-2.7 7.2,-5.18 14.531,-20.196 26.671996,-42.008 36.179996,-65 5.25,-12.74 9.74,-26.49 7.22,-39.94 -12.544,-1.277 -25.203996,-0.809 -37.619996,1.39 z"
     fill="#50deb6"
     id="path6" />
  <path
     d="m 110.13284,242.8959 c 4.15,32 0.79,64.46 -1.08,96.73 -0.16,2.84 -0.29,5.8 0.91,8.4 1.2,2.6 4.15,4.72 7.2,4.19 3.25,-0.58 5.15,-3.68 6.54,-6.45 11.292,-22.468 19.834,-46.216 25.44,-70.73 3.08,-13.51 5.16,-27.87 0,-40.62 -13.317,1.112 -26.432,3.963 -39.01,8.48 z"
     fill="#50deb6"
     id="path8" />
  <path
     d="m 250.17284,225.5969 c 2.68,32.12 12.37,63.23 20.64,94.44 0.73,2.75 1.46,5.62 0.88,8.4 -0.58,2.78 -2.87,5.45 -5.79,5.54 -3.11,0.09 -5.48,-2.57 -7.33,-5 -15.036,-19.846 -27.724,-41.366 -37.81,-64.13 -5.58,-12.61 -10.41,-26.25 -8.23,-39.76 12.51,-1.571 25.177,-1.4 37.64,0.51 z"
     fill="#50deb6"
     id="path10" />
  <path
     d="m 222.71284,242.3569 c -3.34,32.07 0.83,64.45 3.52,96.67 0.24,2.84 0.44,5.79 -0.69,8.42 -1.13,2.63 -4,4.82 -7.1,4.36 -3.26,-0.5 -5.23,-3.55 -6.69,-6.29 -11.86,-22.188 -21.003,-45.725 -27.23,-70.1 -3.41,-13.43 -5.86,-27.74 -1,-40.61 13.337,0.79 26.513,3.328 39.19,7.55 z"
     fill="#50deb6"
     id="path12" />
  <path
     d="m 145.53184,158.7269 21.1,-1.27 18.99,3.49"
     fill="#ffffff"
     id="path14" />
  <path
     d="m 123.99284,176.7669 c 11.355,0 20.56,-8.955 20.56,-20 0,-11.046 -9.205,-20 -20.56,-20 -11.355,0 -20.56,8.954 -20.56,20 0,11.045 9.205,20 20.56,20 z"
     fill="#ffffff"
     id="path16" />
  <path
     d="m 203.90284,176.7669 c 11.355,0 20.56,-8.955 20.56,-20 0,-11.046 -9.205,-20 -20.56,-20 -11.355,0 -20.56,8.954 -20.56,20 0,11.045 9.205,20 20.56,20 z"
     fill="#ffffff"
     id="path18" />
  <path
     fill-rule="evenodd"
     clip-rule="evenodd"
     d="m 123.99284,140.7669 c -9.251,0 -16.56,7.266 -16.56,16 0,8.733 7.309,16 16.56,16 9.25,0 16.56,-7.267 16.56,-16 0,-8.734 -7.31,-16 -16.56,-16 z m -24.559996,16 c 0,-13.359 11.099996,-24 24.559996,-24 12.703,0 23.306,9.48 24.456,21.777 l 18.428,-1.109 12.488,2.295 c 0.557,-12.868 11.429,-22.963 24.538,-22.963 13.459,0 24.56,10.641 24.56,24 0,13.358 -11.101,24 -24.56,24 -10.888,0 -20.232,-6.964 -23.405,-16.695 l -14.111,-2.593 -18.561,1.117 c -2.674,10.496 -12.403,18.171 -23.833,18.171 -13.46,0 -24.559996,-10.642 -24.559996,-24 z m 104.469996,-16 c -9.251,0 -16.56,7.266 -16.56,16 0,8.733 7.309,16 16.56,16 9.25,0 16.56,-7.267 16.56,-16 0,-8.734 -7.31,-16 -16.56,-16 z"
     fill="#000000"
     id="path20" />
  <path
     d="m 60.752844,161.4369 21.71,-13.23 c 0,0 53.149996,10.73 64.609996,23.62 0,0 59.36,-30.88 89.08,-24.35 l 10.4,14.24 -14.93,40.77 -158.399996,-16.18 z"
     fill="#faefd4"
     id="path22" />
  <path
     d="m 53.292844,154.7159 0.43,2.95 16.32,112.3 c 0,0 59.349996,23.93 72.089996,23.36 27.54,-1.18 99.43,-19.52 99.43,-19.52 l 9.69,-117.74 c 0,0 -69.86,14.75 -95.16,19.09 -10.08,1.72 -31.2,-0.14 -41.17,-2.22 -15.909996,-3.33 -61.629996,-18.22 -61.629996,-18.22 z"
     fill="#437543"
     id="path24" />
  <path
     d="m 29.241844,210.0459 c 1.59,0.57 3.18,1.16 4.75,1.77 17.761,6.939 34.421,16.418 49.46,28.14 1.89,1.47 3.82,3.05 4.84,5.22 1.02,2.17 0.84,5.1 -1,6.59 -1.37,1.07 -3.24,1.16 -5,1.15 -9.537,-0.045 -19.008,-1.584 -28.07,-4.56 -8,-2.65 -22,-8.65 -27.07,-15.43 -5.07,-6.78 -5.46,-18.66 0.52,-24.64 8,-8 22.72,-7.25 29.1,-0.69 6.38,6.56 4.16,20.83 -3.38,26 z"
     fill="#50deb6"
     id="path26" />
  <path
     d="m 266.89284,209.8969 c -5.5,12.49 -38.61,17.3 -57.5,34 -2.715,2.363 -4.636,5.506 -5.5,9 -0.8,3.45 0.26,7.56 3.3,9.39 1.767,0.901 3.726,1.364 5.71,1.35 15.585,0.958 31.176,-1.783 45.5,-8 5.92,-2.58 11.71,-5.84 16,-10.69 4.29,-4.85 6.87,-11.52 5.61,-17.86 -1.26,-6.34 -10.29,-23.71 -13.12,-17.19 z"
     fill="#50deb6"
     id="path28" />
</svg>
