<svg width="519.606" height="371.713" viewBox="0 0 519.606 371.713" fill="none" xmlns="http://www.w3.org/2000/svg"><path opacity=".5" d="M30.703 205.445.063 93.975a6.3 6.3 0 0 1 5.32-7.12l498.58-83.64a6.286 6.286 0 0 1 6.099 3.393 6.29 6.29 0 0 1 .67 2.357l8.81 124.07a6.297 6.297 0 0 1-5.32 7.12l-476.74 71a6.3 6.3 0 0 1-6.78-5.71zM84.593 336.005l-22.84-112.89c-.26-3.56 1.79-6.61 4.56-6.81l415-56.38c2.77-.2 5.23 2.53 5.48 6.09l4.51 124.27c.25 3.57-1.79 6.62-4.57 6.82l-396.63 45c-2.8.2-5.25-2.53-5.51-6.1z" fill="#d3aaf2"/><path d="m90.623 185.045-27.12-118.82c-.54-2.39 1.81-5 5.25-5.74l33-6c3.44-.77 6.67.54 7.2 2.94l22.43 118.4c.54 2.4-1.81 5-5.25 5.74l-28.32 6.37c-3.42.82-6.65-.49-7.19-2.89zM374.493 312.435l-14.56-121c-.29-2.44 1.18-4.62 3.28-4.87l20.14-.94c2.1-.25 4 1.53 4.32 4l11.72 119.9c.29 2.44-1.18 4.62-3.28 4.87l-17.29 2c-2.1.28-4.04-1.52-4.33-3.96z" fill="#ffa6a6"/><path d="M379.019 170.788c7.717-68.047-39.411-129.264-105.263-136.732-65.852-7.468-125.492 41.64-133.21 109.688-7.716 68.047 39.412 129.264 105.264 136.732 65.852 7.468 125.492-41.641 133.209-109.688z" fill="#50deb6"/><path d="M180.304 121.035c-31.39-7.31-60.77-21.21-90.46-33.77-2.61-1.11-5.34-2.22-8.18-2.08-2.84.14-5.8 2-6.3 4.75-.54 3 1.75 5.66 3.9 7.8a325.013 325.013 0 0 0 58 45.82c11.68 7.22 24.47 13.88 38.15 13.77a129.045 129.045 0 0 0 4.89-36.29zM178.673 188.455c-21.83 23.71-50.81 41.52-73 59.3-2.22 1.77-6.39 3.3-7.66 5.84-1.27 2.54-.34 9 1.84 10.83 2.33 1.93 5.79 1.26 8.7.45a325.003 325.003 0 0 0 68.48-27.88c12-6.59 24.14-14.44 30.79-26.39a129.072 129.072 0 0 0-29.15-22.15zM186.743 245.885c-.42 32.23-8.13 63.94-14.38 95.66-.55 2.79-1.09 5.7-.29 8.44.8 2.74 3.35 5.23 6.36 5.11 3.21-.13 5.46-3 7.19-5.51a318.304 318.304 0 0 0 34.27-66.63c4.83-13 8.82-26.91 5.59-40.24a145.22 145.22 0 0 0-38.74 3.17z" fill="#50deb6"/><path d="M226.184 262.154c3.56 32-.67 64.57-3.35 96.89-.24 2.85-.44 5.81.74 8.42a7.162 7.162 0 0 0 7.37 4.2c3.39-.57 5.42-3.67 6.93-6.45a313.26 313.26 0 0 0 28-70.83c3.5-13.53 6-27.91.91-40.69a164.613 164.613 0 0 0-40.6 8.46zM343.783 181.675c26.67 18.11 56.81 30.27 86.18 43.55 3.24 1.47 6.62 3.06 8.28 6.47a5.892 5.892 0 0 1 .22 4.89c-1.51 3.48-5.58 3.67-9 3.52a324.685 324.685 0 0 1-73-11.54c-13.23-3.68-26.8-8.56-36-18.68a128.85 128.85 0 0 1 23.32-28.21z" fill="#50deb6"/><path d="M306.583 254.115c3.88 32 14.54 62.71 23.84 93.57.82 2.72 1.63 5.55 1.18 8.36-.45 2.81-2.57 5.55-5.4 5.75-3 .21-5.43-2.35-7.33-4.71a324.644 324.644 0 0 1-39.31-62.61c-5.93-12.38-11.17-25.82-9.59-39.41a129.002 129.002 0 0 1 36.61-.95z" fill="#50deb6"/><path d="m305.983 171.355 17.3-.37 15.34 4.18M305.479 165.906c.642-12.714-8-23.483-19.302-24.054-11.302-.57-20.984 9.274-21.626 21.988-.642 12.714 8 23.483 19.302 24.054 11.302.57 20.984-9.274 21.626-21.988z" fill="#fff"/><path d="M370.58 172.752c.543-10.755-6.537-19.854-15.815-20.323-9.278-.468-17.24 7.872-17.782 18.627-.543 10.756 6.538 19.855 15.816 20.324 9.277.468 17.239-7.872 17.78-18.628z" fill="#fff"/><path fill-rule="evenodd" clip-rule="evenodd" d="M285.976 145.847c-8.667-.437-16.876 7.232-17.43 18.194-.553 10.963 6.842 19.42 15.509 19.858 8.666.437 16.876-7.232 17.429-18.195.554-10.963-6.842-19.42-15.508-19.857zm-25.42 17.79c.73-14.464 11.886-26.483 25.823-25.78 13.937.704 23.825 13.785 23.095 28.25-.02.393-.047.785-.082 1.174l14.384-.308 9.315 2.538c1.205-11.802 10.295-21.662 21.876-21.077 12.018.607 20.234 12.132 19.609 24.52-.626 12.387-9.961 23.027-21.98 22.42-9.67-.488-16.877-8.046-19-17.433l-10.806-2.945-15.282.327c-3.888 9.986-13.033 17.112-23.857 16.565-13.937-.703-23.825-13.785-23.095-28.25zm94.008-7.213c-6.538-.33-13.125 5.71-13.586 14.834-.46 9.124 5.485 15.796 12.023 16.126 6.537.33 13.124-5.71 13.585-14.833.46-9.125-5.485-15.797-12.022-16.127z" fill="#000"/><path d="M440.303 154.095a27.505 27.505 0 0 0-26.824 21.354 27.51 27.51 0 0 0 14.824 30.916l-15.31 38a2.993 2.993 0 0 0 .887 3.425c.326.268.705.464 1.113.575l6.4 2.11a2.999 2.999 0 0 0 3.8-2.68l11.26-39a27.5 27.5 0 1 0 3.84-54.73z" fill="#0071bc"/><path d="M440.313 199.595c9.94 0 18-8.06 18-18 0-9.941-8.06-18-18-18-9.941 0-18 8.059-18 18 0 9.94 8.059 18 18 18z" fill="#fff"/><path d="M438.433 236.675c2.6-7.86-6.26-14.58-13.37-10.33a56.948 56.948 0 0 0-12.38 10.09c-10.41 11.16 12.34 14.63 20.12 7.93 2.544-2 4.49-4.66 5.63-7.69z" fill="#50deb6"/><path d="M126.023 28.874a27.5 27.5 0 0 0-24.18 47.86l-24 33.22a2.992 2.992 0 0 0-.486 2.416 2.997 2.997 0 0 0 1.486 1.965l5.7 3.59a2.995 2.995 0 0 0 2.563.186 2.998 2.998 0 0 0 1.767-1.866l20.3-35.17c1.19.48 2.414.877 3.66 1.19a27.5 27.5 0 0 0 13.22-53.39z" fill="#0071bc"/><path d="M119.412 73.564c9.942 0 18-8.058 18-18 0-9.94-8.058-18-18-18-9.941 0-18 8.06-18 18 0 9.942 8.059 18 18 18z" fill="#fff"/><path d="M63.794 194.825a27.502 27.502 0 0 0 12.216 44.927 27.505 27.505 0 0 0 18.144-.737l17.61 37a3.002 3.002 0 0 0 3.125 1.7 2.997 2.997 0 0 0 1.185-.43l5.88-3.27a2.986 2.986 0 0 0 1.399-2.16 3 3 0 0 0-.79-2.45l-21.09-34.73a28.865 28.865 0 0 0 2.8-2.64 27.502 27.502 0 0 0-40.48-37.24z" fill="#0071bc"/><path d="M84.033 231.445c9.942 0 18-8.06 18-18 0-9.942-8.058-18-18-18-9.941 0-18 8.058-18 18 0 9.94 8.059 18 18 18z" fill="#fff"/><path d="M98.043 261.305c-2.6-7.86 6.25-14.58 13.37-10.33a57.16 57.16 0 0 1 12.38 10.09c10.41 11.17-12.34 14.63-20.12 7.94a17.775 17.775 0 0 1-5.63-7.7zM73.402 97.675c-3.35-7.58 4.82-15.12 12.31-11.57a56.811 56.811 0 0 1 13.3 8.85c11.43 10.11-10.88 15.75-19.27 9.83a17.737 17.737 0 0 1-6.34-7.11z" fill="#50deb6"/><path d="m434.303 129.985-20.6-125.95c-.42-2.54-2.51-4.31-4.66-4l-21.18 3.85c-2.15.36-3.56 2.7-3.14 5.24l24.07 125c.42 2.53 2.5 4.3 4.65 4l17.7-2.93c2.16-.33 3.55-2.68 3.16-5.21z" fill="#ffa6a6"/></svg>