<?xml version="1.0" encoding="UTF-8" standalone="no"?>
<svg
   width="519.60571"
   height="371.71268"
   viewBox="0 0 519.60571 371.71268"
   fill="none"
   version="1.1"
   id="svg52"
   sodipodi:docname="search.svg"
   inkscape:version="1.1.1 (3bf5ae0d25, 2021-09-20, custom)"
   xmlns:inkscape="http://www.inkscape.org/namespaces/inkscape"
   xmlns:sodipodi="http://sodipodi.sourceforge.net/DTD/sodipodi-0.dtd"
   xmlns="http://www.w3.org/2000/svg"
   xmlns:svg="http://www.w3.org/2000/svg">
  <defs
     id="defs56" />
  <sodipodi:namedview
     id="namedview54"
     pagecolor="#ffffff"
     bordercolor="#666666"
     borderopacity="1.0"
     inkscape:pageshadow="2"
     inkscape:pageopacity="0.0"
     inkscape:pagecheckerboard="0"
     showgrid="false"
     inkscape:zoom="0.7507117"
     inkscape:cx="-9.324485"
     inkscape:cy="29.305524"
     inkscape:window-width="1920"
     inkscape:window-height="1038"
     inkscape:window-x="1920"
     inkscape:window-y="20"
     inkscape:window-maximized="1"
     inkscape:current-layer="svg52" />
  <path
     opacity="0.5"
     d="M 30.702826,205.44481 0.0628261,93.974814 c -0.2346,-1.649 0.1934,-3.323 1.1904,-4.658 0.997,-1.334 2.4817,-2.219 4.1296,-2.462 L 503.96273,3.2151136 c 0.822,-0.067 1.649,0.0285 2.435,0.2812 0.785,0.2527 1.512,0.6575 2.141,1.1915 0.629,0.5339 1.146,1.1865 1.523,1.9205 0.376,0.7339 0.604,1.5347 0.671,2.3568 l 8.81,124.0696964 c 0.235,1.649 -0.193,3.324 -1.19,4.658 -0.997,1.335 -2.482,2.22 -4.13,2.462 l -476.739904,71 c -1.6544,0.134 -3.2946,-0.391 -4.5641,-1.461 -1.2695,-1.069 -2.0659,-2.596 -2.2159,-4.249 z"
     fill="#d3aaf2"
     id="path2" />
  <path
     opacity="0.5"
     d="m 84.592726,336.00481 -22.84,-112.89 c -0.26,-3.56 1.79,-6.61 4.56,-6.81 l 415.000004,-56.38 c 2.77,-0.2 5.23,2.53 5.48,6.09 l 4.51,124.27 c 0.25,3.57 -1.79,6.62 -4.57,6.82 l -396.630004,45 c -2.8,0.2 -5.25,-2.53 -5.51,-6.1 z"
     fill="#d3aaf2"
     id="path4" />
  <path
     d="m 90.622726,185.04481 -27.12,-118.819596 c -0.54,-2.39 1.81,-5 5.25,-5.74 l 33.000004,-6 c 3.44,-0.77 6.67,0.54 7.2,2.94 l 22.43,118.399596 c 0.54,2.4 -1.81,5 -5.25,5.74 l -28.320004,6.37 c -3.42,0.82 -6.65,-0.49 -7.19,-2.89 z"
     fill="#ffa6a6"
     id="path6" />
  <path
     d="m 374.49273,312.43481 -14.56,-121 c -0.29,-2.44 1.18,-4.62 3.28,-4.87 l 20.14,-0.94 c 2.1,-0.25 4,1.53 4.32,4 l 11.72,119.9 c 0.29,2.44 -1.18,4.62 -3.28,4.87 l -17.29,2 c -2.1,0.28 -4.04,-1.52 -4.33,-3.96 z"
     fill="#ffa6a6"
     id="path8" />
  <path
     d="m 379.01873,170.78781 c 7.717,-68.047 -39.411,-129.264296 -105.263,-136.732196 -65.852,-7.468 -125.492,41.6411 -133.209,109.688196 -7.717,68.047 39.411,129.264 105.263,136.732 65.852,7.468 125.492,-41.641 133.209,-109.688 z"
     fill="#50deb6"
     id="path10" />
  <path
     d="m 180.30373,121.03481 c -31.39,-7.31 -60.77,-21.209996 -90.460004,-33.769996 -2.61,-1.11 -5.34,-2.22 -8.18,-2.08 -2.84,0.14 -5.8,2 -6.3,4.75 -0.54,3 1.75,5.66 3.9,7.8 17.528,17.428996 36.987004,32.801996 58.000004,45.819996 11.68,7.22 24.47,13.88 38.15,13.77 3.347,-11.803 4.993,-24.022 4.89,-36.29 z"
     fill="#50deb6"
     id="path12" />
  <path
     d="m 178.67273,188.45481 c -21.83,23.71 -50.81,41.52 -73,59.3 -2.22,1.77 -6.390004,3.3 -7.660004,5.84 -1.27,2.54 -0.34,9 1.84,10.83 2.330004,1.93 5.790004,1.26 8.700004,0.45 23.813,-6.658 46.788,-16.012 68.48,-27.88 12,-6.59 24.14,-14.44 30.79,-26.39 -8.615,-8.731 -18.43,-16.189 -29.15,-22.15 z"
     fill="#50deb6"
     id="path14" />
  <path
     d="m 186.74273,245.88481 c -0.42,32.23 -8.13,63.94 -14.38,95.66 -0.55,2.79 -1.09,5.7 -0.29,8.44 0.8,2.74 3.35,5.23 6.36,5.11 3.21,-0.13 5.46,-3 7.19,-5.51 14.007,-20.784 25.51,-43.149 34.27,-66.63 4.83,-13 8.82,-26.91 5.59,-40.24 -12.997,-0.684 -26.027,0.382 -38.74,3.17 z"
     fill="#50deb6"
     id="path16" />
  <path
     d="m 226.18373,262.15381 c 3.56,32 -0.67,64.571 -3.35,96.891 -0.24,2.85 -0.44,5.81 0.74,8.42 0.62,1.394 1.67,2.553 2.996,3.308 1.326,0.756 2.858,1.068 4.374,0.892 3.39,-0.57 5.42,-3.67 6.93,-6.45 12.18,-22.384 21.582,-46.169 28,-70.83 3.5,-13.53 6,-27.91 0.91,-40.69 -13.836,1.097 -27.478,3.939 -40.6,8.459 z"
     fill="#50deb6"
     id="path18" />
  <path
     d="m 343.78273,181.67481 c 26.67,18.11 56.81,30.27 86.18,43.55 3.24,1.47 6.62,3.06 8.28,6.47 0.385,0.752 0.604,1.577 0.642,2.421 0.038,0.844 -0.106,1.686 -0.422,2.469 -1.51,3.48 -5.58,3.67 -9,3.52 -24.693,-1.056 -49.185,-4.927 -73,-11.54 -13.23,-3.68 -26.8,-8.56 -36,-18.68 6.391,-10.465 14.244,-19.964 23.32,-28.21 z"
     fill="#50deb6"
     id="path20" />
  <path
     d="m 306.58273,254.11481 c 3.88,32 14.54,62.71 23.84,93.57 0.82,2.72 1.63,5.55 1.18,8.36 -0.45,2.81 -2.57,5.55 -5.4,5.75 -3,0.21 -5.43,-2.35 -7.33,-4.71 -15.445,-19.306 -28.634,-40.312 -39.31,-62.61 -5.93,-12.38 -11.17,-25.82 -9.59,-39.41 12.096,-2.056 24.423,-2.376 36.61,-0.95 z"
     fill="#50deb6"
     id="path22" />
  <path
     d="m 305.98273,171.35481 17.3,-0.37 15.34,4.18"
     fill="#ffffff"
     id="path24" />
  <path
     d="m 305.47873,165.90581 c 0.642,-12.714 -8,-23.483 -19.302,-24.054 -11.302,-0.57 -20.984,9.274 -21.626,21.988 -0.642,12.714 8,23.483 19.302,24.054 11.302,0.57 20.984,-9.274 21.626,-21.988 z"
     fill="#ffffff"
     id="path26" />
  <path
     d="m 370.57973,172.75181 c 0.543,-10.755 -6.537,-19.854 -15.815,-20.323 -9.278,-0.468 -17.239,7.872 -17.782,18.627 -0.543,10.756 6.538,19.855 15.816,20.324 9.277,0.468 17.239,-7.872 17.781,-18.628 z"
     fill="#ffffff"
     id="path28" />
  <path
     fill-rule="evenodd"
     clip-rule="evenodd"
     d="m 285.97573,145.84681 c -8.667,-0.437 -16.876,7.232 -17.43,18.194 -0.553,10.963 6.842,19.42 15.509,19.858 8.666,0.437 16.876,-7.232 17.429,-18.195 0.554,-10.963 -6.842,-19.419 -15.508,-19.857 z m -25.42,17.791 c 0.731,-14.465 11.886,-26.484 25.823,-25.781 13.937,0.704 23.825,13.785 23.095,28.251 -0.02,0.392 -0.047,0.784 -0.082,1.173 l 14.384,-0.308 9.315,2.538 c 1.205,-11.802 10.295,-21.662 21.876,-21.077 12.018,0.607 20.234,12.132 19.609,24.52 -0.626,12.387 -9.961,23.027 -21.979,22.42 -9.67,-0.488 -16.878,-8.046 -19,-17.433 l -10.807,-2.945 -15.282,0.327 c -3.888,9.986 -13.033,17.112 -23.857,16.565 -13.937,-0.703 -23.825,-13.785 -23.095,-28.25 z m 94.008,-7.214 c -6.538,-0.33 -13.125,5.71 -13.586,14.834 -0.46,9.124 5.485,15.796 12.023,16.126 6.537,0.33 13.124,-5.709 13.585,-14.833 0.46,-9.125 -5.485,-15.797 -12.022,-16.127 z"
     fill="#000000"
     id="path30" />
  <path
     d="m 440.30273,154.09481 c -6.228,-0.003 -12.273,2.108 -17.145,5.987 -4.873,3.879 -8.285,9.297 -9.679,15.367 -1.393,6.07 -0.686,12.434 2.007,18.049 2.693,5.616 7.211,10.152 12.817,12.867 l -15.31,38 c -0.156,0.392 -0.227,0.813 -0.209,1.234 0.018,0.422 0.126,0.835 0.314,1.213 0.189,0.377 0.455,0.711 0.782,0.978 0.326,0.268 0.705,0.464 1.113,0.575 l 6.4,2.11 c 0.428,0.119 0.878,0.142 1.317,0.067 0.439,-0.076 0.855,-0.248 1.219,-0.505 0.364,-0.257 0.666,-0.591 0.885,-0.979 0.218,-0.388 0.348,-0.819 0.379,-1.263 l 11.26,-39 c 1.272,0.18 2.555,0.271 3.84,0.27 7.293,0 14.288,-2.898 19.445,-8.055 5.157,-5.157 8.055,-12.152 8.055,-19.445 0,-7.294 -2.898,-14.289 -8.055,-19.446 -5.157,-5.157 -12.152,-8.054 -19.445,-8.054 z"
     fill="#0071bc"
     id="path32" />
  <path
     d="m 440.31273,199.59481 c 9.941,0 18,-8.059 18,-18 0,-9.941 -8.059,-18 -18,-18 -9.941,0 -18,8.059 -18,18 0,9.941 8.059,18 18,18 z"
     fill="#ffffff"
     id="path34" />
  <path
     d="m 438.43273,236.67481 c 2.6,-7.86 -6.26,-14.58 -13.37,-10.33 -4.58,2.765 -8.748,6.162 -12.38,10.09 -10.41,11.16 12.34,14.63 20.12,7.93 2.544,-2 4.491,-4.66 5.63,-7.69 z"
     fill="#50deb6"
     id="path36" />
  <path
     d="m 126.02273,28.874414 c -6.046,-1.5018 -12.423,-0.9059 -18.087,1.6899 -5.663,2.5958 -10.278004,7.0377 -13.087004,12.5984 -2.81,5.5606 -3.647,11.9104 -2.377,18.0095 1.271,6.0991 4.575,11.586 9.371004,15.5622 L 77.842726,109.95481 c -0.247,0.345 -0.419,0.739 -0.502,1.155 -0.084,0.416 -0.079,0.846 0.016,1.26 0.094,0.414 0.276,0.803 0.532,1.142 0.256,0.338 0.581,0.619 0.954,0.823 l 5.7,3.59 c 0.387,0.219 0.817,0.349 1.261,0.381 0.443,0.032 0.888,-0.034 1.302,-0.195 0.414,-0.161 0.788,-0.412 1.093,-0.735 0.306,-0.322 0.536,-0.709 0.674,-1.131 L 109.17273,81.074414 c 1.191,0.4803 2.414,0.8779 3.66,1.19 7.08,1.7531 14.566,0.6218 20.812,-3.1448 6.246,-3.7667 10.74,-9.8603 12.493,-16.9402 1.753,-7.08 0.622,-14.5664 -3.145,-20.8123 -3.767,-6.2459 -9.86,-10.7396 -16.94,-12.4927 z"
     fill="#0071bc"
     id="path38" />
  <path
     d="m 119.41173,73.564414 c 9.942,0 18,-8.0588 18,-18 0,-9.9411 -8.058,-18 -18,-18 -9.941,0 -18,8.0589 -18,18 0,9.9412 8.059,18 18,18 z"
     fill="#ffffff"
     id="path40" />
  <path
     d="m 63.793726,194.82481 c -4.2171,4.583 -6.7538,10.461 -7.1952,16.672 -0.4415,6.212 1.2384,12.389 4.7652,17.522 3.526,5.133 8.69,8.917 14.646,10.733 5.957,1.815 12.354,1.556 18.144,-0.737 l 17.610004,37 c 0.18,0.385 0.44,0.727 0.762,1.004 0.322,0.277 0.699,0.482 1.107,0.602 0.407,0.12 0.835,0.152 1.256,0.094 0.421,-0.058 0.825,-0.204 1.185,-0.43 l 5.88,-3.27 c 0.379,-0.233 0.701,-0.548 0.943,-0.922 0.242,-0.374 0.398,-0.796 0.456,-1.238 0.059,-0.441 0.018,-0.89 -0.118,-1.314 -0.137,-0.423 -0.366,-0.812 -0.671,-1.136 l -21.09,-34.73 c 0.991,-0.817 1.926,-1.698 2.8,-2.64 4.938,-5.368 7.542,-12.478 7.238,-19.765 -0.304,-7.288 -3.49,-14.156 -8.858,-19.095 -5.368004,-4.938 -12.478004,-7.542 -19.766004,-7.238 -7.288,0.304 -14.156,3.49 -19.094,8.858 z"
     fill="#0071bc"
     id="path42" />
  <path
     d="m 84.032726,231.44481 c 9.942,0 18.000004,-8.059 18.000004,-18 0,-9.942 -8.058004,-18 -18.000004,-18 -9.941,0 -18,8.058 -18,18 0,9.941 8.059,18 18,18 z"
     fill="#ffffff"
     id="path44" />
  <path
     d="m 98.042726,261.30481 c -2.6,-7.86 6.250004,-14.58 13.370004,-10.33 4.578,2.767 8.746,6.164 12.38,10.09 10.41,11.17 -12.34,14.63 -20.12,7.94 -2.543,-2.006 -4.490004,-4.668 -5.630004,-7.7 z"
     fill="#50deb6"
     id="path46" />
  <path
     d="m 73.401726,97.674814 c -3.35,-7.58 4.82,-15.1196 12.31,-11.57 4.829,2.309 9.306,5.289 13.3,8.85 11.430004,10.109996 -10.88,15.749996 -19.27,9.829996 -2.722,-1.747 -4.914,-4.206 -6.34,-7.109996 z"
     fill="#50deb6"
     id="path48" />
  <path
     d="m 434.30273,129.98481 -20.6,-125.9495964 c -0.42,-2.54 -2.51,-4.31000003 -4.66,-4.00000003 l -21.18,3.85000003 c -2.15,0.36 -3.56,2.7 -3.14,5.24 l 24.07,124.9995964 c 0.42,2.53 2.5,4.3 4.65,4 l 17.7,-2.93 c 2.16,-0.33 3.55,-2.68 3.16,-5.21 z"
     fill="#ffa6a6"
     id="path50" />
</svg>
