<?xml version="1.0" encoding="UTF-8" standalone="no"?>
<svg
   width="526.71997"
   height="458.00143"
   viewBox="0 0 526.71997 458.00143"
   fill="none"
   version="1.1"
   id="svg40"
   sodipodi:docname="sing.svg"
   inkscape:version="1.1.1 (3bf5ae0d25, 2021-09-20, custom)"
   xmlns:inkscape="http://www.inkscape.org/namespaces/inkscape"
   xmlns:sodipodi="http://sodipodi.sourceforge.net/DTD/sodipodi-0.dtd"
   xmlns="http://www.w3.org/2000/svg"
   xmlns:svg="http://www.w3.org/2000/svg">
  <defs
     id="defs44" />
  <sodipodi:namedview
     id="namedview42"
     pagecolor="#ffffff"
     bordercolor="#666666"
     borderopacity="1.0"
     inkscape:pageshadow="2"
     inkscape:pageopacity="0.0"
     inkscape:pagecheckerboard="0"
     showgrid="false"
     inkscape:zoom="1.43"
     inkscape:cx="263.28671"
     inkscape:cy="228.67133"
     inkscape:window-width="959"
     inkscape:window-height="1058"
     inkscape:window-x="2880"
     inkscape:window-y="0"
     inkscape:window-maximized="1"
     inkscape:current-layer="svg40" />
  <path
     opacity="0.5"
     d="m 0,212.137 c 0,0 71.68,-151.909999 224.68,-211.14039922 0,0 4.78,-20.60999978 -31.14,125.62039922 0,0 67.65,-46.209999 206,-69.889999 0,0 -58.23,154.179999 -69.38,203.429999 0,0 139.3,-16.33 196.56,-38.82 0,0 -229.21,290.38 -302.5,227.84 -31.05,-26.5 4.53,-202 4.53,-202 0,0 -105.93,106.62 -134.66,75.82 -22.06,-23.65 14.79,-153.22 14.79,-153.22 z"
     fill="#ff9cc0"
     id="path2" />
  <path
     d="m 357.749,281.016 c 50.171,-46.784 53.239,-125.035 6.854,-174.777 -46.386,-49.741999 -124.66,-52.139999 -174.83,-5.355 -50.17,46.784 -53.239,125.035 -6.853,174.777 46.385,49.742 124.659,52.14 174.829,5.355 z"
     fill="#50deb6"
     id="path4" />
  <path
     d="m 215.661,216.466 c -31.36,7.55 -64,8.15 -96.24,10.1 -2.85,0.18 -5.8,0.39 -8.26,1.82 -2.46,1.43 -4.26,4.42 -3.41,7.22 0.9,3 4.18,4.39 7.08,5.38 23.623,8.012 48.091,13.277 72.92,15.69 13.75,1.32 28.23,1.62 40.37,-4.69 -2.488,-12.36 -6.682,-24.314 -12.46,-35.52 z"
     fill="#50deb6"
     id="path6" />
  <path
     d="m 274.609,275.996 c -9.62,30.78 -11.95,63.35 -15.7,95.46 -0.33,2.82 -0.71,5.76 -2.34,8.11 -1.63,2.35 -4.91,3.93 -7.82,2.88 -3.11,-1.13 -4.43,-4.51 -5.32,-7.49 -7.231,-24.082 -11.532,-48.948 -12.81,-74.06 -0.68,-13.84 -0.25,-28.34 7.06,-40 12.917,3.399 25.333,8.475 36.93,15.1 z"
     fill="#50deb6"
     id="path8" />
  <path
     d="m 366.18,268.997 c 6.75,31.55 20.33,61.23 32.53,91.18 1.07,2.64 2.16,5.4 1.94,8.23 -0.22,2.83 -2.15,5.76 -5,6.2 -3.07,0.47 -5.77,-1.88 -7.91,-4.07 -17.449,-17.846 -32.784,-37.643 -45.7,-59 -7.14,-11.83 -13.68,-24.77 -13.24,-38.44 12.211,-3.09 24.791,-4.47 37.38,-4.1 z"
     fill="#50deb6"
     id="path10" />
  <path
     d="m 330.87,268.417 c 2.71,32.12 12.43,63.22 20.75,94.42 0.73,2.75 1.46,5.61 0.88,8.4 -0.58,2.79 -2.86,5.45 -5.78,5.54 -3.11,0.09 -5.49,-2.56 -7.34,-5 -15.062,-19.827 -27.774,-41.334 -37.88,-64.09 -5.59,-12.6 -10.44,-26.23 -8.28,-39.75 12.512,-1.581 25.183,-1.419 37.65,0.48 z"
     fill="#50deb6"
     id="path12" />
  <path
     d="m 296.331,272.996 c -1,32.23 5.52,64.22 10.54,96.16 0.44,2.81 0.87,5.74 -0.08,8.45 -0.95,2.71 -3.67,5.1 -6.75,4.86 -3.3,-0.26 -5.48,-3.159 -7.14,-5.789 -13.441,-21.266 -24.269,-44.074 -32.25,-67.931 -4.38,-13.15 -7.86,-27.24 -4,-40.43 13.374,-0.188 26.716,1.385 39.68,4.68 z"
     fill="#50deb6"
     id="path14" />
  <path
     d="m 163.041,186.126 10.24,-0.21 8.39,5.68"
     fill="#ffffff"
     id="path16" />
  <path
     d="m 162.941,183.658 c 1.964,-13.946 -0.81,-25.866 -6.196,-26.625 -5.387,-0.759 -11.347,9.93 -13.312,23.876 -1.965,13.946 0.809,25.866 6.196,26.625 5.387,0.759 11.347,-9.931 13.312,-23.876 z"
     fill="#ffffff"
     id="path18" />
  <path
     d="m 200.858,188.993 c 1.965,-13.945 -0.809,-25.865 -6.195,-26.624 -5.387,-0.759 -11.347,9.93 -13.312,23.876 -1.965,13.945 0.809,25.866 6.196,26.625 5.387,0.759 11.347,-9.931 13.311,-23.877 z"
     fill="#ffffff"
     id="path20" />
  <path
     fill-rule="evenodd"
     clip-rule="evenodd"
     d="m 152.299,165.404 c -2.113,3.791 -3.973,9.451 -4.905,16.063 -0.932,6.612 -0.708,12.566 0.276,16.793 0.495,2.127 1.134,3.605 1.743,4.496 0.407,0.594 0.682,0.768 0.775,0.812 0.102,-0.016 0.414,-0.108 0.969,-0.567 0.831,-0.687 1.854,-1.931 2.917,-3.839 2.114,-3.791 3.974,-9.451 4.906,-16.063 0.931,-6.612 0.707,-12.565 -0.276,-16.792 -0.495,-2.127 -1.134,-3.606 -1.744,-4.496 -0.406,-0.595 -0.681,-0.769 -0.774,-0.813 -0.102,0.017 -0.414,0.108 -0.969,0.567 -0.832,0.687 -1.854,1.932 -2.918,3.839 z m 3.924,-4.409 c 0,0.001 -0.006,0.001 -0.017,0.001 0.012,-0.001 0.017,-0.001 0.017,-0.001 z m -0.056,-0.005 c -0.011,-0.002 -0.016,-0.004 -0.016,-0.005 0,0 0.005,10e-4 0.016,0.005 z m -6.016,42.581 c 0,0 0.005,-0.001 0.016,0 -0.011,0.001 -0.016,0 -0.016,0 z m 0.056,0.005 c 0.011,0.003 0.016,0.005 0.016,0.005 0,0.001 -0.006,0 -0.016,-0.005 z m -0.087,-48.177 c 1.865,-1.541 4.343,-2.727 7.183,-2.327 2.84,0.4 4.894,2.225 6.26,4.221 1.364,1.994 2.306,4.51 2.932,7.201 1.134,4.871 1.393,11.016 0.679,17.547 l 7.297,-0.15 3.171,2.147 c 1.102,-6.679 3.088,-12.709 5.588,-17.193 1.345,-2.413 2.946,-4.571 4.808,-6.11 1.864,-1.541 4.343,-2.727 7.183,-2.327 2.839,0.4 4.893,2.225 6.26,4.221 1.364,1.994 2.306,4.509 2.932,7.2 1.259,5.41 1.44,12.389 0.406,19.723 -1.033,7.333 -3.135,13.991 -5.839,18.842 -1.346,2.413 -2.946,4.57 -4.808,6.109 -1.865,1.542 -4.343,2.728 -7.183,2.328 -2.84,-0.4 -4.894,-2.225 -6.26,-4.222 -1.365,-1.994 -2.306,-4.509 -2.933,-7.2 -0.825,-3.545 -1.186,-7.764 -1.047,-12.315 l -4.657,-3.152 -6.272,0.128 c -1.149,4.993 -2.795,9.466 -4.758,12.988 -1.346,2.413 -2.946,4.57 -4.808,6.11 -1.865,1.541 -4.343,2.727 -7.183,2.327 -2.84,-0.4 -4.894,-2.225 -6.26,-4.221 -1.364,-1.995 -2.306,-4.51 -2.933,-7.201 -1.258,-5.409 -1.439,-12.389 -0.406,-19.722 1.034,-7.334 3.136,-13.991 5.84,-18.842 1.345,-2.413 2.946,-4.571 4.808,-6.11 z m 40.097,15.341 c -2.113,3.791 -3.973,9.451 -4.905,16.063 -0.932,6.612 -0.708,12.566 0.276,16.793 0.495,2.127 1.134,3.605 1.743,4.496 0.407,0.594 0.682,0.768 0.775,0.812 0.101,-0.016 0.414,-0.108 0.969,-0.567 0.831,-0.687 1.854,-1.931 2.917,-3.839 2.114,-3.791 3.974,-9.451 4.906,-16.063 0.931,-6.612 0.707,-12.565 -0.277,-16.792 -0.495,-2.128 -1.133,-3.606 -1.743,-4.496 -0.406,-0.595 -0.681,-0.769 -0.774,-0.813 -0.102,0.017 -0.414,0.108 -0.969,0.567 -0.832,0.687 -1.854,1.932 -2.918,3.839 z m 3.924,-4.409 c 0,0.001 -0.006,0.001 -0.017,0.001 0.012,-0.001 0.017,-0.001 0.017,-0.001 z m -0.056,-0.005 c -0.011,-0.002 -0.016,-0.004 -0.016,-0.005 0,0 0.005,0.001 0.016,0.005 z m -6.017,42.581 c 0,0 0.006,-0.001 0.017,0 -0.011,10e-4 -0.017,0 -0.017,0 z m 0.057,0.005 c 0.011,0.003 0.016,0.005 0.016,0.005 0,0.001 -0.006,-0.001 -0.016,-0.005 z"
     fill="#000000"
     id="path22" />
  <path
     d="m 120.16,228.966 -51.5,20 6.4,15.28 53.5,-14.47 z"
     fill="#949494"
     id="path24" />
  <path
     d="m 131.58,219.857 c 10.9,-3.92 19.9,0.78 22.8,8.84 2.9,8.06 -1.4,16.44 -12.3,20.36 -10.9,3.92 -13.21,8.92 -20,-8.15 -6.79,-17.07 -1.4,-17.13 9.5,-21.05 z"
     fill="#525252"
     id="path26" />
  <path
     d="m 242.181,265.527 c -38.5,-1 -76.18,-9 -113.89,-15.64 -3.33,-0.58 -6.79,-1.15 -10.08,-0.43 -3.29,0.72 -6.34,3.15 -6.28,6.07 0.07,3.11 3.37,5.34 6.38,7.06 24.973,14.167 51.351,25.699 78.71,34.41 15.37,4.91 31.91,9 47.92,6.12 1.168,-12.597 0.235,-25.3 -2.76,-37.59 z"
     fill="#50deb6"
     id="path28" />
  <path
     d="m 84.181,250.757 15,-4.48 c 0.118,2.078 0.734,4.097 1.796,5.888 1.061,1.791 2.537,3.3 4.304,4.402 0,0.11 0.17,0.36 -0.61,0.61 -3.36,1.09 -15.41,4.16 -16,4.32 -0.49,-0.06 -5.4,-4.89 -4.49,-10.74 z"
     fill="#3d3b3b"
     id="path30" />
  <path
     d="m 93.051,258.037 36.61,117.3 5.19,-0.15 -38.11,-119.69 z"
     fill="#3d3b3b"
     id="path32" />
  <path
     d="m 106.98,390.167 c -1.59,-5.43 9,-15.421 24.47,-19.931 15.47,-4.51 29.77,-1.859 31.36,3.571 1,3.51 -10.74,9.659 -26.16,14.179 -15.42,4.52 -28.64,5.691 -29.67,2.181 z"
     fill="#3d3b3b"
     id="path34" />
  <path
     d="m 73.89,261.236 -2.74,-7.05 -0.94,-2.39 -3.72,1.45 0.93,2.39 -7.2198,2.81 1.82,4.66 7.2098,-2.81 0.94,2.39 z"
     fill="#3d3b3b"
     id="path36" />
  <path
     fill-rule="evenodd"
     clip-rule="evenodd"
     d="m 62.8044,259.624 c 7e-4,0 0.0013,0 -0.1242,0.993 -0.1254,0.992 -0.1248,0.992 -0.1242,0.992 h 0.0013 0.0023 l 0.0039,0.001 h 0.0055 c 0.0026,10e-4 0.0031,10e-4 0.0017,0 -0.003,0 -0.0136,-0.001 -0.0309,-0.001 -0.0351,-10e-4 -0.0954,-10e-4 -0.1736,0.006 -0.1584,0.015 -0.3752,0.057 -0.6033,0.166 -0.4048,0.194 -1.022,0.679 -1.3017,2.09 l -3e-4,0.001 c -2.5396,12.718 -3.3965,28.947 -2.5745,44.954 0.8223,16.013 3.3204,31.726 7.4466,43.428 3.987,11.309 4.945,22.224 2.862,30.382 -1.043,4.087 -2.863,7.532 -5.5025,9.963 -2.6549,2.445 -6.08,3.808 -10.2023,3.808 v -2 c 3.6477,0 6.5814,-1.193 8.8474,-3.279 2.2814,-2.102 3.9444,-5.165 4.9204,-8.986 1.954,-7.657 1.092,-18.152 -2.811,-29.223 -4.2133,-11.948 -6.7302,-27.87 -7.5579,-43.99 -0.8281,-16.125 0.0301,-32.526 2.6105,-45.448 0.3905,-1.968 1.373,-3.013 2.4005,-3.504 0.4881,-0.234 0.9457,-0.322 1.2826,-0.353 0.1694,-0.016 0.312,-0.017 0.418,-0.014 0.0531,10e-4 0.0975,0.004 0.1319,0.007 0.0173,10e-4 0.0321,0.003 0.0443,0.004 l 0.0164,0.002 0.0067,0.001 h 0.003 z"
     fill="#3d3b3b"
     id="path38" />
</svg>
