<svg width="526.72" height="458.001" viewBox="0 0 526.72 458.001" fill="none" xmlns="http://www.w3.org/2000/svg"><path opacity=".5" d="M0 212.137S71.68 60.227 224.68.997c0 0 4.78-20.61-31.14 125.62 0 0 67.65-46.21 206-69.89 0 0-58.23 154.18-69.38 203.43 0 0 139.3-16.33 196.56-38.82 0 0-229.21 290.38-302.5 227.84-31.05-26.5 4.53-202 4.53-202s-105.93 106.62-134.66 75.82c-22.06-23.65 14.79-153.22 14.79-153.22z" fill="#ff9cc0"/><path d="M357.749 281.016c50.171-46.784 53.239-125.035 6.854-174.777-46.386-49.742-124.66-52.14-174.83-5.355-50.17 46.784-53.239 125.035-6.853 174.777 46.385 49.742 124.659 52.14 174.829 5.355z" fill="#50deb6"/><path d="M215.661 216.466c-31.36 7.55-64 8.15-96.24 10.1-2.85.18-5.8.39-8.26 1.82-2.46 1.43-4.26 4.42-3.41 7.22.9 3 4.18 4.39 7.08 5.38a324.868 324.868 0 0 0 72.92 15.69c13.75 1.32 28.23 1.62 40.37-4.69a136.12 136.12 0 0 0-12.46-35.52zM274.609 275.996c-9.62 30.78-11.95 63.35-15.7 95.46-.33 2.82-.71 5.76-2.34 8.11-1.63 2.35-4.91 3.93-7.82 2.88-3.11-1.13-4.43-4.51-5.32-7.49a312.812 312.812 0 0 1-12.81-74.06c-.68-13.84-.25-28.34 7.06-40a152.883 152.883 0 0 1 36.93 15.1zM366.18 268.997c6.75 31.55 20.33 61.23 32.53 91.18 1.07 2.64 2.16 5.4 1.94 8.23-.22 2.83-2.15 5.76-5 6.2-3.07.47-5.77-1.88-7.91-4.07a324.862 324.862 0 0 1-45.7-59c-7.14-11.83-13.68-24.77-13.24-38.44a136.078 136.078 0 0 1 37.38-4.1z" fill="#50deb6"/><path d="M330.87 268.417c2.71 32.12 12.43 63.22 20.75 94.42.73 2.75 1.46 5.61.88 8.4s-2.86 5.45-5.78 5.54c-3.11.09-5.49-2.56-7.34-5a321.999 321.999 0 0 1-37.88-64.09c-5.59-12.6-10.44-26.23-8.28-39.75a136.441 136.441 0 0 1 37.65.48z" fill="#50deb6"/><path d="M296.331 272.996c-1 32.23 5.52 64.22 10.54 96.16.44 2.81.87 5.74-.08 8.45-.95 2.71-3.67 5.1-6.75 4.86-3.3-.26-5.48-3.159-7.14-5.789a313.017 313.017 0 0 1-32.25-67.931c-4.38-13.15-7.86-27.24-4-40.43a152.39 152.39 0 0 1 39.68 4.68z" fill="#50deb6"/><path d="m163.041 186.126 10.24-.21 8.39 5.68M162.941 183.658c1.964-13.946-.81-25.866-6.196-26.625-5.387-.759-11.347 9.93-13.312 23.876-1.965 13.946.809 25.866 6.196 26.625 5.387.759 11.347-9.931 13.312-23.876z" fill="#fff"/><path d="M200.858 188.993c1.965-13.945-.809-25.865-6.195-26.624-5.387-.759-11.347 9.93-13.312 23.876-1.965 13.945.809 25.866 6.196 26.625 5.387.759 11.347-9.931 13.311-23.877z" fill="#fff"/><path fill-rule="evenodd" clip-rule="evenodd" d="M152.299 165.404c-2.113 3.791-3.973 9.451-4.905 16.063-.932 6.612-.708 12.566.276 16.793.495 2.127 1.134 3.605 1.743 4.496.407.594.682.768.775.812.102-.016.414-.108.969-.567.831-.687 1.854-1.931 2.917-3.839 2.114-3.791 3.974-9.451 4.906-16.063.931-6.612.707-12.565-.276-16.792-.495-2.127-1.134-3.606-1.744-4.496-.406-.595-.681-.769-.774-.813-.102.017-.414.108-.969.567-.832.687-1.854 1.932-2.918 3.839zm3.924-4.409-.017.001.017-.001zm-.056-.005c-.011-.002-.016-.004-.016-.005l.016.005zm-6.016 42.581h.016-.016zm.056.005a.166.166 0 0 1 .016.005c0 .001-.006 0-.016-.005zm-.087-48.177c1.865-1.541 4.343-2.727 7.183-2.327 2.84.4 4.894 2.225 6.26 4.221 1.364 1.994 2.306 4.51 2.932 7.201 1.134 4.871 1.393 11.016.679 17.547l7.297-.15 3.171 2.147c1.102-6.679 3.088-12.709 5.588-17.193 1.345-2.413 2.946-4.571 4.808-6.11 1.864-1.541 4.343-2.727 7.183-2.327 2.839.4 4.893 2.225 6.26 4.221 1.364 1.994 2.306 4.509 2.932 7.2 1.259 5.41 1.44 12.389.406 19.723-1.033 7.333-3.135 13.991-5.839 18.842-1.346 2.413-2.946 4.57-4.808 6.109-1.865 1.542-4.343 2.728-7.183 2.328-2.84-.4-4.894-2.225-6.26-4.222-1.365-1.994-2.306-4.509-2.933-7.2-.825-3.545-1.186-7.764-1.047-12.315l-4.657-3.152-6.272.128c-1.149 4.993-2.795 9.466-4.758 12.988-1.346 2.413-2.946 4.57-4.808 6.11-1.865 1.541-4.343 2.727-7.183 2.327-2.84-.4-4.894-2.225-6.26-4.221-1.364-1.995-2.306-4.51-2.933-7.201-1.258-5.409-1.439-12.389-.406-19.722 1.034-7.334 3.136-13.991 5.84-18.842 1.345-2.413 2.946-4.571 4.808-6.11zm40.097 15.341c-2.113 3.791-3.973 9.451-4.905 16.063-.932 6.612-.708 12.566.276 16.793.495 2.127 1.134 3.605 1.743 4.496.407.594.682.768.775.812.101-.016.414-.108.969-.567.831-.687 1.854-1.931 2.917-3.839 2.114-3.791 3.974-9.451 4.906-16.063.931-6.612.707-12.565-.277-16.792-.495-2.128-1.133-3.606-1.743-4.496-.406-.595-.681-.769-.774-.813-.102.017-.414.108-.969.567-.832.687-1.854 1.932-2.918 3.839zm3.924-4.409-.017.001.017-.001zm-.056-.005c-.011-.002-.016-.004-.016-.005l.016.005zm-6.017 42.581h.017-.017zm.057.005a.166.166 0 0 1 .016.005l-.016-.005z" fill="#000"/><path d="m120.16 228.966-51.5 20 6.4 15.28 53.5-14.47z" fill="#949494"/><path d="M131.58 219.857c10.9-3.92 19.9.78 22.8 8.84 2.9 8.06-1.4 16.44-12.3 20.36-10.9 3.92-13.21 8.92-20-8.15-6.79-17.07-1.4-17.13 9.5-21.05z" fill="#525252"/><path d="M242.181 265.527c-38.5-1-76.18-9-113.89-15.64-3.33-.58-6.79-1.15-10.08-.43s-6.34 3.15-6.28 6.07c.07 3.11 3.37 5.34 6.38 7.06a414.183 414.183 0 0 0 78.71 34.41c15.37 4.91 31.91 9 47.92 6.12 1.168-12.597.235-25.3-2.76-37.59z" fill="#50deb6"/><path d="m84.181 250.757 15-4.48a12.992 12.992 0 0 0 6.1 10.29c0 .11.17.36-.61.61-3.36 1.09-15.41 4.16-16 4.32-.49-.06-5.4-4.89-4.49-10.74z" fill="#3d3b3b"/><path d="m93.051 258.037 36.61 117.3 5.19-.15-38.11-119.69z" fill="#3d3b3b"/><path d="M106.98 390.167c-1.59-5.43 9-15.421 24.47-19.931 15.47-4.51 29.77-1.859 31.36 3.571 1 3.51-10.74 9.659-26.16 14.179s-28.64 5.691-29.67 2.181zM73.89 261.236l-2.74-7.05-.94-2.39-3.72 1.45.93 2.39-7.22 2.81 1.82 4.66 7.21-2.81.94 2.39z" fill="#3d3b3b"/><path fill-rule="evenodd" clip-rule="evenodd" d="M62.804 259.624c.001 0 .002 0-.124.993l-.124.992h.004l.003.001h.008l-.031-.001a1.8 1.8 0 0 0-.777.172c-.405.194-1.022.679-1.302 2.09v.001c-2.54 12.718-3.397 28.947-2.575 44.954.823 16.013 3.32 31.726 7.447 43.428 3.987 11.309 4.945 22.224 2.862 30.382-1.043 4.087-2.863 7.532-5.503 9.963-2.654 2.445-6.08 3.808-10.202 3.808v-2c3.648 0 6.582-1.193 8.848-3.279 2.281-2.102 3.944-5.165 4.92-8.986 1.954-7.657 1.092-18.152-2.811-29.223-4.213-11.948-6.73-27.87-7.558-43.99-.828-16.125.03-32.526 2.61-45.448.391-1.968 1.374-3.013 2.401-3.504a3.773 3.773 0 0 1 1.7-.367c.054.001.098.004.133.007l.044.004.016.002.007.001h.003z" fill="#3d3b3b"/></svg>