<?xml version="1.0" encoding="UTF-8" standalone="no"?>
<svg
   width="516"
   height="463.259"
   viewBox="0 0 516 463.259"
   fill="none"
   version="1.1"
   id="svg36"
   sodipodi:docname="skate.svg"
   inkscape:version="1.1.1 (3bf5ae0d25, 2021-09-20, custom)"
   xmlns:inkscape="http://www.inkscape.org/namespaces/inkscape"
   xmlns:sodipodi="http://sodipodi.sourceforge.net/DTD/sodipodi-0.dtd"
   xmlns="http://www.w3.org/2000/svg"
   xmlns:svg="http://www.w3.org/2000/svg">
  <defs
     id="defs40" />
  <sodipodi:namedview
     id="namedview38"
     pagecolor="#ffffff"
     bordercolor="#666666"
     borderopacity="1.0"
     inkscape:pageshadow="2"
     inkscape:pageopacity="0.0"
     inkscape:pagecheckerboard="0"
     showgrid="false"
     inkscape:zoom="1.43"
     inkscape:cx="258.39161"
     inkscape:cy="232.16783"
     inkscape:window-width="959"
     inkscape:window-height="1058"
     inkscape:window-x="2880"
     inkscape:window-y="0"
     inkscape:window-maximized="1"
     inkscape:current-layer="svg36" />
  <path
     opacity="0.5"
     d="m 0,358.47002 62.82,-157.53 416.41,-70.94 36.77,173.18 -94.48,-50.75 -289.98,67.72 -25.31,83.85 z"
     fill="#b87270"
     id="path2" />
  <path
     d="m 370.117,249.45502 c 38.895,-56.507 25.008,-133.576 -31.017,-172.139004 -56.025,-38.562 -132.973,-24.015 -171.868,32.492004 -38.894,56.507 -25.007,133.577 31.018,172.139 56.025,38.563 132.973,24.016 171.867,-32.492 z"
     fill="#50deb6"
     id="path4" />
  <path
     d="m 163.789,163.51702 c -31.67,-6.06 -61.63,-19 -91.82,-30.53 -2.67,-1 -5.44,-2 -8.27,-1.76 -2.83,0.24 -5.7096,2.28 -6.0896,5.17 -0.41,3.08 1.9996,5.73 4.2296,7.82 18.199,17.061 38.309,31.96 59.93,44.4 12,6.89 25,13.14 38.71,12.4 2.834,-12.286 3.948,-24.907 3.31,-37.5 z"
     fill="#50deb6"
     id="path6" />
  <path
     d="m 170.21,209.74802 c -31.56,6.52 -64.13,6 -96.39,6.93 -2.85,0.07 -5.8,0.19 -8.31,1.53 -2.51,1.34 -4.42,4.3 -3.68,7.12 0.79,3 4,4.54 6.87,5.62 23.272,8.812 47.487,14.896 72.16,18.13 13.66,1.78 28.11,2.559 40.45,-3.361 -2.013,-12.446 -5.749,-24.552 -11.1,-35.969 z"
     fill="#50deb6"
     id="path8" />
  <path
     d="m 249.799,252.55802 c -4.57,36 3.47,65.53 17.88,95.07 1.172,2.656 1.374,5.64 0.57,8.43 -0.74,2.77 -3.27,5.37 -6.37,5.37 -3.3,0 -5.63,-2.78 -7.56,-5.21 -15.21,-19.15 -25.67,-37.25 -35.35,-60.23 -5.38,-12.77 -11.92,-31.55 -9,-45 13.289,-1.217 26.679,-0.689 39.83,1.57 z"
     fill="#50deb6"
     id="path10" />
  <path
     d="m 356.15,200.64702 c 31.92,-4.64 62.44,-16.22 93.16,-26.34 2.7,-0.9 5.53,-1.8 8.34,-1.39 2.81,0.41 5.6,2.53 5.85,5.43 0.26,3.1 -2.26,5.64 -4.59,7.63 -18.971,16.223 -39.748,30.206 -61.92,41.67 -12.27,6.35 -25.62,12 -39.23,10.66 -2.285,-12.417 -2.827,-25.092 -1.61,-37.66 z"
     fill="#50deb6"
     id="path12" />
  <path
     d="m 366.31,236.20702 c 26.89,17.78 57.32,29.44 86.95,42.25 2.61,1.13 5.31,2.34 7.14,4.52 1.83,2.18 2.5,5.62 0.76,8 -1.74,2.38 -5.41,2.72 -8.47,2.66 -24.894,-0.473 -49.649,-3.829 -73.77,-10 -13.35,-3.43 -27,-8.07 -36.32,-18.15 6.51,-10.81 14.489,-20.664 23.71,-29.28 z"
     fill="#50deb6"
     id="path14" />
  <path
     d="m 268.81,276.20702 c 40.07,23.65 44.5,49.5 44.5,85.92 0,2.85 2.46,5.26 4.74,7 2.28,1.74 5.88,2.22 8.32,0.31 2.6,-2 2.48,-5.68 2.74,-8.77 2,-23.68 2.78,-43.83 -3.75,-67.9 -3.62,-13.38 -15.53,-33.56 -26.08,-42.39 -11.243,7.24 -21.488,15.924 -30.47,25.83 z"
     fill="#50deb6"
     id="path16" />
  <path
     d="m 258,235.99802 18.88,0.46 16.64,4.58"
     fill="#ffffff"
     id="path18" />
  <path
     d="m 257.262,234.11102 c 0.848,-9.905 -6.66,-18.636 -16.768,-19.5 -10.109,-0.865 -18.991,6.463 -19.838,16.368 -0.847,9.905 6.66,18.636 16.769,19.501 10.108,0.864 18.99,-6.464 19.837,-16.369 z"
     fill="#ffffff"
     id="path20" />
  <path
     d="m 328.394,240.19902 c 0.848,-9.905 -6.66,-18.636 -16.769,-19.501 -10.108,-0.864 -18.99,6.464 -19.837,16.369 -0.848,9.905 6.66,18.636 16.769,19.5 10.108,0.865 18.99,-6.463 19.837,-16.368 z"
     fill="#ffffff"
     id="path22" />
  <path
     fill-rule="evenodd"
     clip-rule="evenodd"
     d="m 240.152,218.59602 c -7.984,-0.683 -14.858,5.096 -15.511,12.724 -0.653,7.628 5.14,14.491 13.124,15.174 7.985,0.683 14.859,-5.096 15.511,-12.724 0.653,-7.628 -5.14,-14.491 -13.124,-15.174 z m -23.482,12.042 c 1.042,-12.182 11.931,-21.06 24.164,-20.013 11.43,0.978 20.233,10.295 20.488,21.452 l 16.145,0.394 10.495,2.888 c 1.707,-11.472 12.233,-19.653 24.004,-18.646 12.233,1.046 21.455,11.645 20.413,23.827 -1.042,12.182 -11.931,21.059 -24.164,20.013 -9.793,-0.838 -17.657,-7.798 -19.869,-16.791 l -12.055,-3.318 -16.276,-0.396 c -3.349,9.186 -12.667,15.295 -22.932,14.417 -12.232,-1.047 -21.455,-11.645 -20.413,-23.827 z m 94.614,-5.954 c -7.984,-0.683 -14.859,5.096 -15.511,12.724 -0.653,7.628 5.14,14.491 13.124,15.174 7.984,0.683 14.859,-5.096 15.511,-12.724 0.653,-7.628 -5.14,-14.491 -13.124,-15.174 z"
     fill="#000000"
     id="path24" />
  <path
     d="m 236.739,375.30702 c -3,-0.29 -5.06,-3.59 -4.63,-6.55 0.43,-2.96 2.85,-5.35 5.64,-6.43 2.855,-0.943 5.901,-1.16 8.86,-0.63 2.718,0.254 5.342,1.126 7.67,2.55 1.163,0.721 2.134,1.712 2.83,2.889 0.697,1.177 1.098,2.506 1.17,3.871 0,4.15 -4,7.39 -8.12,8 -4.12,0.61 -7.45,-3.12 -13.42,-3.7 z"
     fill="#abc1c2"
     id="path26" />
  <path
     d="m 323.18,408.87802 c -4.07,-2.77 -4.39,-9.38 -1,-12.93 3.39,-3.55 9.47,-3.8 13.53,-1 1.715,1.181 3.07,2.812 3.917,4.714 0.847,1.902 1.152,4.001 0.883,6.066 -0.333,2.057 -1.3,3.96 -2.767,5.441 -1.466,1.48 -3.359,2.466 -5.413,2.819 -4.64,0.64 -9.48,-2.84 -9.15,-5.11 z"
     fill="#abc1c2"
     id="path28" />
  <path
     d="m 327.499,404.50802 c -29.85,-18.84 -138.27,-63.27 -143.08,-11.07 -2,21.32 22,21.19 38.81,23.63 25.528,3.949 50.077,12.697 72.35,25.78 22.74,13.62 38.81,27.4 55.77,12.78 16.1,-13.87 -3.34,-38.17 -23.85,-51.12 z"
     fill="#c4b989"
     id="path30" />
  <path
     d="m 323.499,405.87702 c -29.85,-18.84 -138.27,-63.27 -143.08,-11.07 -2,21.32 22,21.19 38.81,23.63 25.528,3.95 50.077,12.698 72.35,25.78 22.74,13.62 38.81,27.4 55.77,12.78 16.1,-13.87 -3.34,-38.17 -23.85,-51.12 z"
     fill="#3b4d48"
     id="path32" />
  <path
     d="m 198.879,103.30802 c -20.63,-12.510004 -17.42,-25.230004 1.14,-39.140004 7,-10 3.92,-28.55 4.38,-40.7104 6.77,-34.73 58.84,-26.1200997 77.52,-4.9301 10.94,11 19.72,31.6005 32.06,40.9405 7.62,5.76 12.17,7.44 13.62,16.88 1.54,16.41 -95.98,46.850004 -128.72,26.960004 z"
     fill="#e6a01e"
     id="path34" />
</svg>
