<svg width="516" height="463.259" viewBox="0 0 516 463.259" fill="none" xmlns="http://www.w3.org/2000/svg"><path opacity=".5" d="m0 358.47 62.82-157.53L479.23 130 516 303.18l-94.48-50.75-289.98 67.72L106.23 404z" fill="#b87270"/><path d="M370.117 249.455c38.895-56.507 25.008-133.576-31.017-172.139-56.025-38.562-132.973-24.015-171.868 32.492-38.894 56.507-25.007 133.577 31.018 172.139 56.025 38.563 132.973 24.016 171.867-32.492z" fill="#50deb6"/><path d="M163.789 163.517c-31.67-6.06-61.63-19-91.82-30.53-2.67-1-5.44-2-8.27-1.76-2.83.24-5.71 2.28-6.09 5.17-.41 3.08 2 5.73 4.23 7.82a323.563 323.563 0 0 0 59.93 44.4c12 6.89 25 13.14 38.71 12.4a136.185 136.185 0 0 0 3.31-37.5zM170.21 209.748c-31.56 6.52-64.13 6-96.39 6.93-2.85.07-5.8.19-8.31 1.53-2.51 1.34-4.42 4.3-3.68 7.12.79 3 4 4.54 6.87 5.62a321.922 321.922 0 0 0 72.16 18.13c13.66 1.78 28.11 2.559 40.45-3.361a135.876 135.876 0 0 0-11.1-35.969zM249.799 252.558c-4.57 36 3.47 65.53 17.88 95.07a12.387 12.387 0 0 1 .57 8.43c-.74 2.77-3.27 5.37-6.37 5.37-3.3 0-5.63-2.78-7.56-5.21-15.21-19.15-25.67-37.25-35.35-60.23-5.38-12.77-11.92-31.55-9-45a152.9 152.9 0 0 1 39.83 1.57zM356.15 200.647c31.92-4.64 62.44-16.22 93.16-26.34 2.7-.9 5.53-1.8 8.34-1.39 2.81.41 5.6 2.53 5.85 5.43.26 3.1-2.26 5.64-4.59 7.63a324.825 324.825 0 0 1-61.92 41.67c-12.27 6.35-25.62 12-39.23 10.66a135.775 135.775 0 0 1-1.61-37.66z" fill="#50deb6"/><path d="M366.31 236.207c26.89 17.78 57.32 29.44 86.95 42.25 2.61 1.13 5.31 2.34 7.14 4.52 1.83 2.18 2.5 5.62.76 8s-5.41 2.72-8.47 2.66a322.343 322.343 0 0 1-73.77-10c-13.35-3.43-27-8.07-36.32-18.15a136.324 136.324 0 0 1 23.71-29.28zM268.81 276.207c40.07 23.65 44.5 49.5 44.5 85.92 0 2.85 2.46 5.26 4.74 7 2.28 1.74 5.88 2.22 8.32.31 2.6-2 2.48-5.68 2.74-8.77 2-23.68 2.78-43.83-3.75-67.9-3.62-13.38-15.53-33.56-26.08-42.39a152.807 152.807 0 0 0-30.47 25.83z" fill="#50deb6"/><path d="m258 235.998 18.88.46 16.64 4.58M257.262 234.111c.848-9.905-6.66-18.636-16.768-19.5-10.109-.865-18.991 6.463-19.838 16.368-.847 9.905 6.66 18.636 16.769 19.501 10.108.864 18.99-6.464 19.837-16.369z" fill="#fff"/><path d="M328.394 240.199c.848-9.905-6.66-18.636-16.769-19.501-10.108-.864-18.99 6.464-19.837 16.369-.848 9.905 6.66 18.636 16.769 19.5 10.108.865 18.99-6.463 19.837-16.368z" fill="#fff"/><path fill-rule="evenodd" clip-rule="evenodd" d="M240.152 218.596c-7.984-.683-14.858 5.096-15.511 12.724-.653 7.628 5.14 14.491 13.124 15.174 7.985.683 14.859-5.096 15.511-12.724.653-7.628-5.14-14.491-13.124-15.174zm-23.482 12.042c1.042-12.182 11.931-21.06 24.164-20.013 11.43.978 20.233 10.295 20.488 21.452l16.145.394 10.495 2.888c1.707-11.472 12.233-19.653 24.004-18.646 12.233 1.046 21.455 11.645 20.413 23.827-1.042 12.182-11.931 21.059-24.164 20.013-9.793-.838-17.657-7.798-19.869-16.791l-12.055-3.318-16.276-.396c-3.349 9.186-12.667 15.295-22.932 14.417-12.232-1.047-21.455-11.645-20.413-23.827zm94.614-5.954c-7.984-.683-14.859 5.096-15.511 12.724-.653 7.628 5.14 14.491 13.124 15.174 7.984.683 14.859-5.096 15.511-12.724.653-7.628-5.14-14.491-13.124-15.174z" fill="#000"/><path d="M236.739 375.307c-3-.29-5.06-3.59-4.63-6.55.43-2.96 2.85-5.35 5.64-6.43a18.086 18.086 0 0 1 8.86-.63 17.889 17.889 0 0 1 7.67 2.55 8.475 8.475 0 0 1 4 6.76c0 4.15-4 7.39-8.12 8-4.12.61-7.45-3.12-13.42-3.7zM323.18 408.878c-4.07-2.77-4.39-9.38-1-12.93 3.39-3.55 9.47-3.8 13.53-1a11.308 11.308 0 0 1 4.8 10.78 10.004 10.004 0 0 1-8.18 8.26c-4.64.64-9.48-2.84-9.15-5.11z" fill="#abc1c2"/><path d="M327.499 404.508c-29.85-18.84-138.27-63.27-143.08-11.07-2 21.32 22 21.19 38.81 23.63a204.607 204.607 0 0 1 72.35 25.78c22.74 13.62 38.81 27.4 55.77 12.78 16.1-13.87-3.34-38.17-23.85-51.12z" fill="#c4b989"/><path d="M323.499 405.877c-29.85-18.84-138.27-63.27-143.08-11.07-2 21.32 22 21.19 38.81 23.63a204.647 204.647 0 0 1 72.35 25.78c22.74 13.62 38.81 27.4 55.77 12.78 16.1-13.87-3.34-38.17-23.85-51.12z" fill="#3b4d48"/><path d="M198.879 103.308c-20.63-12.51-17.42-25.23 1.14-39.14 7-10 3.92-28.55 4.38-40.71 6.77-34.73 58.84-26.12 77.52-4.93 10.94 11 19.72 31.6 32.06 40.94 7.62 5.76 12.17 7.44 13.62 16.88 1.54 16.41-95.98 46.85-128.72 26.96z" fill="#e6a01e"/></svg>