<?xml version="1.0" encoding="UTF-8" standalone="no"?>
<svg
   width="506.20615"
   height="355.73181"
   viewBox="0 0 506.20615 355.73181"
   fill="none"
   version="1.1"
   id="svg40"
   sodipodi:docname="skydive.svg"
   inkscape:version="1.1.1 (3bf5ae0d25, 2021-09-20, custom)"
   xmlns:inkscape="http://www.inkscape.org/namespaces/inkscape"
   xmlns:sodipodi="http://sodipodi.sourceforge.net/DTD/sodipodi-0.dtd"
   xmlns="http://www.w3.org/2000/svg"
   xmlns:svg="http://www.w3.org/2000/svg">
  <defs
     id="defs44" />
  <sodipodi:namedview
     id="namedview42"
     pagecolor="#ffffff"
     bordercolor="#666666"
     borderopacity="1.0"
     inkscape:pageshadow="2"
     inkscape:pageopacity="0.0"
     inkscape:pagecheckerboard="0"
     showgrid="false"
     inkscape:zoom="1.0566502"
     inkscape:cx="107.88811"
     inkscape:cy="110.72727"
     inkscape:window-width="1920"
     inkscape:window-height="1038"
     inkscape:window-x="1920"
     inkscape:window-y="20"
     inkscape:window-maximized="1"
     inkscape:current-layer="svg40" />
  <path
     opacity="0.5"
     d="M 122.20395,266.808 C 74.203951,244.668 -1.1858485,175.738 0.01415149,126.248 2.1141515,39.5676 83.833951,15.2476 143.72395,10.4476 c 189.38,-15.26999 327.98,53.23 354.78,162.4204 57.38,233.77 -219.55,166.21 -376.3,93.94 z"
     fill="#54ebff"
     id="path2" />
  <path
     d="m 216.70395,176.548 c 22.11,-23.45 38.91,-51.27 56.7,-78.1504 1.57,-2.37 3.23,-4.81 5.67,-6.26 2.44,-1.45 5.92,-1.58 7.88,0.48 1.96,2.06 1.67,5.68 1.06,8.6404 -4.966,24.219 -12.682,47.792 -23,70.26 -5.73,12.48 -12.71,25.1 -24.17,32.57 -9.318,-7.983 -17.447,-17.257 -24.14,-27.54 z"
     fill="#50deb6"
     id="path4" />
  <path
     d="m 253.46395,180.338 c 25.52,-19.49 46.5,-44.16 68.31,-67.74 1.92,-2.08 3.94,-4.21 6.58,-5.24 2.64,-1.03 6.08,-0.59 7.68,1.76 1.6,2.35 0.74,5.87 -0.34,8.69 -8.75,23.046 -20.115,45.013 -33.87,65.47 -7.64,11.35 -16.52,22.65 -29,28.14 -7.896,-9.389 -14.415,-19.854 -19.36,-31.08 z"
     fill="#50deb6"
     id="path6" />
  <path
     d="m 278.90395,197.308 c 29.11,-13.84 54.7,-34.09 80.9,-53 2.31,-1.67 4.73,-3.37 7.55,-3.79 2.82,-0.42 6.16,0.86 7.31,3.65 1.22,3 -0.4,6.19 -2,8.83 -13.033,21.418 -28.551,41.222 -46.23,59 -9.77,9.8 -20.77,19.24 -34.23,21.87 -6.056,-11.534 -10.529,-23.832 -13.3,-36.56 z"
     fill="#50deb6"
     id="path8" />
  <path
     d="m 301.47395,230.868 c 31.2,-8.1 60.28,-22.39 89.68,-35.42 2.59,-1.15 5.3,-2.32 8.13,-2.28 2.83,0.04 5.82,1.65 6.37,4.3 0.59,2.82 -1.65,5.45 -3.76,7.56 -17.286,17.304 -36.44,32.634 -57.11,45.71 -11.52,7.3 -24.17,14.11 -37.82,14.5 -3.539,-11.118 -5.389,-22.703 -5.49,-34.37 z"
     fill="#50deb6"
     id="path10" />
  <path
     d="m 285.71095,328.235 c 50.702,-42.68 56.052,-119.751 11.95,-172.143 -44.103,-52.392 -120.957,-60.2651 -171.659,-17.585 -50.701999,42.68 -56.051999,119.751 -11.949,172.143 44.102,52.392 120.956,60.265 171.658,17.585 z"
     fill="#50deb6"
     id="path12" />
  <path
     d="m 275.58395,283.348 c 32.1,3 64.36,-1 96.49,-3.54 2.83,-0.23 5.78,-0.43 8.42,0.6 2.64,1.03 4.89,3.69 4.49,6.5 -0.43,3 -3.45,4.82 -6.16,6.17 -22.131,11.019 -45.449,19.474 -69.5,25.2 -13.35,3.18 -27.59,5.47 -40.54,1.06 0.547,-12.259 2.837,-24.377 6.8,-35.99 z"
     fill="#50deb6"
     id="path14" />
  <path
     d="m 138.47395,216.838 c -24.58,-20.85 -44.109999,-47 -64.569999,-72 -1.8,-2.21 -3.7,-4.48 -6.32,-5.61 -2.62,-1.13 -6.17,-0.75 -8,1.65 -2,2.56 -1.21,6.09 -0.34,9.05 7.109,24.017 17.024,47.113 29.54,68.81 6.92,12 15.129999,24 27.459999,30 8.808,-9.588 16.285,-20.317 22.23,-31.9 z"
     fill="#50deb6"
     id="path16" />
  <path
     d="m 143.76395,284.177 -11.73,-12.18 -14.2,-6.75"
     fill="#ffffff"
     id="path18" />
  <path
     d="m 169.80395,305.61 c 8.286,-4.198 10.148,-17.187 4.157,-29.011 -5.991,-11.823 -17.565,-18.005 -25.851,-13.806 -8.287,4.198 -10.148,17.187 -4.157,29.011 5.991,11.823 17.565,18.005 25.851,13.806 z"
     fill="#ffffff"
     id="path20" />
  <path
     d="m 110.75995,278.807 c 6.651,-3.37 7.186,-15.686 1.195,-27.51 -5.991,-11.824 -16.238999,-18.677 -22.889999,-15.307 -6.65,3.369 -7.186,15.686 -1.195,27.51 5.991,11.824 16.238999,18.677 22.889999,15.307 z"
     fill="#ffffff"
     id="path22" />
  <path
     fill-rule="evenodd"
     clip-rule="evenodd"
     d="m 98.533951,241.271 c -3.591,-2.402 -6.197,-2.455 -7.661,-1.713 -1.463,0.742 -2.962,2.874 -3.149,7.191 -0.182,4.172 0.971,9.528 3.714,14.943 2.744,5.416 6.381,9.513 9.852999,11.835 3.592,2.401 6.197,2.454 7.661,1.712 1.464,-0.741 2.962,-2.873 3.15,-7.19 0.181,-4.173 -0.971,-9.529 -3.715,-14.944 -2.744,-5.415 -6.381,-9.512 -9.852999,-11.834 z m 4.446999,-6.65 c 4.813,3.218 9.295,8.46 12.542,14.868 2.049,4.044 3.432,8.209 4.111,12.185 l 14.776,7.024 2.751,2.857 c 1.262,-5.219 4.231,-9.843 9.141,-12.33 5.625,-2.85 12.005,-1.988 17.479,0.935 5.486,2.93 10.427,8.077 13.748,14.632 3.321,6.555 4.549,13.583 3.667,19.74 -0.88,6.142 -3.959,11.797 -9.584,14.647 -5.625,2.85 -12.006,1.988 -17.479,-0.935 -5.486,-2.93 -10.427,-8.077 -13.748,-14.632 -1.801,-3.555 -2.987,-7.248 -3.554,-10.867 l -7.172,-7.448 -9.765,-4.641 c -0.66,4.853 -2.833,9.443 -7.326,11.72 -5.187,2.628 -11.031,0.939 -15.723999,-2.199 -4.812,-3.219 -9.295,-8.46 -12.542,-14.869 -3.247,-6.408 -4.822,-13.123 -4.571,-18.907 0.245,-5.64 2.34,-11.351 7.527,-13.979 5.187,-2.628 11.031,-0.939 15.722999,2.199 z m 42.028,48.358 c 0.494,2.293 1.321,4.666 2.512,7.017 2.669,5.269 6.511,9.125 10.381,11.192 3.883,2.073 7.433,2.203 10.094,0.855 2.661,-1.349 4.656,-4.288 5.281,-8.646 0.622,-4.342 -0.215,-9.721 -2.884,-14.989 -2.67,-5.269 -6.512,-9.125 -10.381,-11.192 -3.883,-2.073 -7.433,-2.203 -10.095,-0.855 -2.661,1.349 -4.656,4.288 -5.28,8.645 -0.187,1.301 -0.242,2.694 -0.157,4.149 l 2.165,2.248 z"
     fill="#333333"
     id="path24" />
  <path
     d="m 267.90395,114.158 h -0.31 0.05 c -51.77,-30.6602 -88.31,-19.2902 -136.67,14.45 l 0.15,0.06 h -0.15 c -19.34,23.68 25.65,42.41 53.94,50.72 5.323,1.55 10.921,1.914 16.4,1.065 5.479,-0.848 10.705,-2.888 15.31,-5.975 13.94,-9.3 26.81,-20.87 40.79,-29.92 9.97,-5.82 21.87,-20.67 10.49,-30.4 z"
     fill="#6f7844"
     id="path26" />
  <path
     d="m 218.91395,159.128 c 0,0 111.19,105.16 11.84,194.69 0,0 19.1,-2.32 24.85,-7.51 34.8,-31.37 61.65,-112.63 -18.9,-198.73 z"
     fill="#6f7844"
     id="path28" />
  <path
     d="m 136.31395,127.818 c -0.48,-1.17 -1,-8 -7.89,-9.52 -6,-1.31 -15.94,8.41 -21.56,-3.12 -1.78,-3.65 0,-8.46 3.2,-10.93"
     stroke="#333333"
     stroke-width="5"
     stroke-miterlimit="10"
     id="path30" />
  <path
     d="m 448.21395,48.0177 c 0.483,-5.7966 -0.612,-11.6159 -3.167,-16.8411 -2.556,-5.2253 -6.477,-9.6618 -11.349,-12.8394 -4.872,-3.1776 -10.513,-4.978 -16.325,-5.2103 -5.812,-0.2323 -11.579,1.1122 -16.689,3.8908 -1.989,-5.0883 -5.488,-9.44601 -10.026,-12.48746 -4.539,-3.04145 -9.899,-4.62094051 -15.362,-4.52621563 -5.462,0.09472482 -10.765,1.85911563 -15.195,5.05609563 -4.43,3.19697 -7.776,7.67338 -9.587,12.82758 -11.38,1 -21.24,6.55 -26.82,14.65 -0.54,-0.09 -1.08,-0.17 -1.64,-0.22 -4.946,-0.4124 -9.854,1.157 -13.643,4.3629 -3.789,3.206 -6.15,7.7859 -6.562,12.7321 -0.412,4.9463 1.157,9.8539 4.363,13.643 3.206,3.7892 7.786,6.1496 12.732,6.562 2.946,0.2494 5.908,-0.2101 8.64,-1.34 6.756,6.6687 15.671,10.7045 25.14,11.38 4.177,0.3547 8.383,0.085 12.48,-0.8 5.67,8.69 16.43,15 29.2,16.11 17.85,1.49 33.53,-7.86 37.45,-21.49 4.604,-2.5789 8.504,-6.2495 11.356,-10.6889 2.853,-4.4395 4.571,-9.5118 5.004,-14.7711 z"
     fill="#f5f5f5"
     id="path32" />
  <path
     d="m 94.273951,69.8179 c -0.28,7.85 7.419999,14.5 17.199999,14.85 3.381,0.1379 6.744,-0.5485 9.8,-2 2.25,4 7.16,6.87 13,7.08 6.83,0.24 12.71,-3.3 14.53,-8.32 6.21,-0.64 11.46,-3.25 14.28,-6.92 0.3,0 0.6,0.06 0.9,0.07 5.68,0.2 10.41,-3.33 10.57,-7.89 0.16,-4.56 -4.3,-8.41 -10,-8.61 -1.596,-0.0619 -3.188,0.186 -4.69,0.73 -4.149,-2.8994 -9.069,-4.4942 -14.13,-4.58 -2.291,-0.0926 -4.585,0.0955 -6.83,0.56 -3.37,-3.74 -9.46,-6.36 -16.5,-6.61 -9.83,-0.35 -18.16,4 -19.9,10.12 -4.809999,2.44 -8.049999,6.62 -8.229999,11.52 z"
     fill="#f5f5f5"
     id="path34" />
  <path
     d="m 134.39395,129.478 c -6.29,6.26 39.71,24.73 71.46,29.65 8.05,1.25 -11,-48.35 -11,-48.35 0,0 -56.3,14.55 -60.46,18.7 z"
     fill="#a2b05f"
     id="path36" />
  <path
     d="m 108.59395,104.738 -0.58,-11.8004 c -0.017,-0.3824 0.087,-0.7605 0.297,-1.0805 0.21,-0.32 0.516,-0.5656 0.874,-0.7018 0.357,-0.1363 0.749,-0.1562 1.119,-0.0571 0.369,0.0992 0.698,0.3124 0.94,0.6094 l 10.45,12.9404 c 0.226,0.28 0.364,0.622 0.395,0.981 0.032,0.359 -0.044,0.72 -0.217,1.036 -0.174,0.316 -0.437,0.573 -0.757,0.739 -0.321,0.166 -0.683,0.234 -1.041,0.194 l -9.87,-1.14 c -0.429,-0.048 -0.828,-0.247 -1.123,-0.563 -0.295,-0.315 -0.468,-0.726 -0.487,-1.157 z"
     fill="#bd2f2f"
     id="path38" />
</svg>
