<svg width="506.206" height="355.732" viewBox="0 0 506.206 355.732" fill="none" xmlns="http://www.w3.org/2000/svg"><path opacity=".5" d="M122.204 266.808c-48-22.14-123.39-91.07-122.19-140.56 2.1-86.68 83.82-111 143.71-115.8 189.38-15.27 327.98 53.23 354.78 162.42 57.38 233.77-219.55 166.21-376.3 93.94z" fill="#54ebff"/><path d="M216.704 176.548c22.11-23.45 38.91-51.27 56.7-78.15 1.57-2.37 3.23-4.81 5.67-6.26 2.44-1.45 5.92-1.58 7.88.48s1.67 5.68 1.06 8.64a324.581 324.581 0 0 1-23 70.26c-5.73 12.48-12.71 25.1-24.17 32.57a128.75 128.75 0 0 1-24.14-27.54z" fill="#50deb6"/><path d="M253.464 180.338c25.52-19.49 46.5-44.16 68.31-67.74 1.92-2.08 3.94-4.21 6.58-5.24 2.64-1.03 6.08-.59 7.68 1.76 1.6 2.35.74 5.87-.34 8.69a322.472 322.472 0 0 1-33.87 65.47c-7.64 11.35-16.52 22.65-29 28.14a129.224 129.224 0 0 1-19.36-31.08z" fill="#50deb6"/><path d="M278.904 197.308c29.11-13.84 54.7-34.09 80.9-53 2.31-1.67 4.73-3.37 7.55-3.79 2.82-.42 6.16.86 7.31 3.65 1.22 3-.4 6.19-2 8.83a318.406 318.406 0 0 1-46.23 59c-9.77 9.8-20.77 19.24-34.23 21.87a144.996 144.996 0 0 1-13.3-36.56z" fill="#50deb6"/><path d="M301.474 230.868c31.2-8.1 60.28-22.39 89.68-35.42 2.59-1.15 5.3-2.32 8.13-2.28 2.83.04 5.82 1.65 6.37 4.3.59 2.82-1.65 5.45-3.76 7.56a330.377 330.377 0 0 1-57.11 45.71c-11.52 7.3-24.17 14.11-37.82 14.5a116.639 116.639 0 0 1-5.49-34.37z" fill="#50deb6"/><path d="M285.711 328.235c50.702-42.68 56.052-119.751 11.95-172.143-44.103-52.392-120.957-60.265-171.659-17.585S69.95 258.258 114.053 310.65c44.102 52.392 120.956 60.265 171.658 17.585z" fill="#50deb6"/><path d="M275.584 283.348c32.1 3 64.36-1 96.49-3.54 2.83-.23 5.78-.43 8.42.6 2.64 1.03 4.89 3.69 4.49 6.5-.43 3-3.45 4.82-6.16 6.17a324.61 324.61 0 0 1-69.5 25.2c-13.35 3.18-27.59 5.47-40.54 1.06a129.278 129.278 0 0 1 6.8-35.99zM138.474 216.838c-24.58-20.85-44.11-47-64.57-72-1.8-2.21-3.7-4.48-6.32-5.61s-6.17-.75-8 1.65c-2 2.56-1.21 6.09-.34 9.05a318.784 318.784 0 0 0 29.54 68.81c6.92 12 15.13 24 27.46 30a145.066 145.066 0 0 0 22.23-31.9z" fill="#50deb6"/><path d="m143.764 284.177-11.73-12.18-14.2-6.75" fill="#fff"/><path d="M169.804 305.61c8.286-4.198 10.148-17.187 4.157-29.011-5.991-11.823-17.565-18.005-25.851-13.806-8.287 4.198-10.148 17.187-4.157 29.011 5.99 11.823 17.565 18.005 25.85 13.806zM110.76 278.807c6.65-3.37 7.186-15.686 1.195-27.51-5.991-11.824-16.239-18.677-22.89-15.307-6.65 3.369-7.186 15.686-1.195 27.51 5.991 11.824 16.239 18.677 22.89 15.307z" fill="#fff"/><path fill-rule="evenodd" clip-rule="evenodd" d="M98.534 241.271c-3.591-2.402-6.197-2.455-7.661-1.713-1.463.742-2.962 2.874-3.149 7.191-.182 4.172.971 9.528 3.714 14.943 2.744 5.416 6.381 9.513 9.853 11.835 3.592 2.401 6.197 2.454 7.66 1.712 1.465-.741 2.963-2.873 3.151-7.19.18-4.173-.971-9.529-3.715-14.944-2.744-5.415-6.381-9.512-9.853-11.834zm4.447-6.65c4.813 3.218 9.295 8.46 12.542 14.868 2.049 4.044 3.432 8.209 4.111 12.185l14.776 7.024 2.751 2.857c1.262-5.219 4.231-9.843 9.141-12.33 5.625-2.85 12.005-1.988 17.479.935 5.486 2.93 10.427 8.077 13.748 14.632 3.321 6.555 4.549 13.583 3.667 19.74-.88 6.142-3.959 11.797-9.584 14.647-5.625 2.85-12.006 1.988-17.479-.935-5.486-2.93-10.427-8.077-13.748-14.632-1.801-3.555-2.987-7.248-3.554-10.867l-7.172-7.448-9.765-4.641c-.66 4.853-2.833 9.443-7.326 11.72-5.187 2.628-11.031.939-15.724-2.199-4.812-3.219-9.295-8.46-12.542-14.869-3.247-6.408-4.822-13.123-4.571-18.907.245-5.64 2.34-11.351 7.527-13.979 5.187-2.628 11.031-.939 15.723 2.199zm42.028 48.358a29.178 29.178 0 0 0 2.512 7.017c2.669 5.269 6.511 9.125 10.381 11.192 3.883 2.073 7.433 2.203 10.094.855 2.66-1.349 4.656-4.288 5.28-8.646.623-4.342-.214-9.721-2.883-14.989-2.67-5.269-6.512-9.125-10.381-11.192-3.883-2.073-7.433-2.203-10.095-.855-2.661 1.349-4.656 4.288-5.28 8.645a20.736 20.736 0 0 0-.157 4.149l2.165 2.248z" fill="#333"/><path d="M267.904 114.158h-.31.05c-51.77-30.66-88.31-19.29-136.67 14.45l.15.06h-.15c-19.34 23.68 25.65 42.41 53.94 50.72a37.909 37.909 0 0 0 31.71-4.91c13.94-9.3 26.81-20.87 40.79-29.92 9.97-5.82 21.87-20.67 10.49-30.4z" fill="#6f7844"/><path d="M218.914 159.128s111.19 105.16 11.84 194.69c0 0 19.1-2.32 24.85-7.51 34.8-31.37 61.65-112.63-18.9-198.73z" fill="#6f7844"/><path d="M136.314 127.818c-.48-1.17-1-8-7.89-9.52-6-1.31-15.94 8.41-21.56-3.12-1.78-3.65 0-8.46 3.2-10.93" stroke="#333" stroke-width="5" stroke-miterlimit="10"/><path d="M448.214 48.018a32.244 32.244 0 0 0-14.516-29.68 32.24 32.24 0 0 0-33.014-1.32A26.763 26.763 0 0 0 360.1 5.06a26.76 26.76 0 0 0-9.587 12.828c-11.38 1-21.24 6.55-26.82 14.65-.54-.09-1.08-.17-1.64-.22a18.715 18.715 0 0 0-3.11 37.3c2.946.25 5.908-.21 8.64-1.34a39.819 39.819 0 0 0 25.14 11.38c4.177.354 8.383.085 12.48-.8 5.67 8.69 16.43 15 29.2 16.11 17.85 1.49 33.53-7.86 37.45-21.49a32.202 32.202 0 0 0 16.36-25.46zM94.274 69.818c-.28 7.85 7.42 14.5 17.2 14.85a20.86 20.86 0 0 0 9.8-2c2.25 4 7.16 6.87 13 7.08 6.83.24 12.71-3.3 14.53-8.32 6.21-.64 11.46-3.25 14.28-6.92.3 0 .6.06.9.07 5.68.2 10.41-3.33 10.57-7.89.16-4.56-4.3-8.41-10-8.61a12.363 12.363 0 0 0-4.69.73 25.42 25.42 0 0 0-14.13-4.58 28.109 28.109 0 0 0-6.83.56c-3.37-3.74-9.46-6.36-16.5-6.61-9.83-.35-18.16 4-19.9 10.12-4.81 2.44-8.05 6.62-8.23 11.52z" fill="#f5f5f5"/><path d="M134.394 129.478c-6.29 6.26 39.71 24.73 71.46 29.65 8.05 1.25-11-48.35-11-48.35s-56.3 14.55-60.46 18.7z" fill="#a2b05f"/><path d="m108.594 104.738-.58-11.8a1.822 1.822 0 0 1 2.29-1.84c.369.1.698.313.94.61l10.45 12.94a1.822 1.822 0 0 1-.579 2.756 1.825 1.825 0 0 1-1.041.194l-9.87-1.14a1.812 1.812 0 0 1-1.61-1.72z" fill="#bd2f2f"/></svg>