<?xml version="1.0" encoding="UTF-8" standalone="no"?>
<svg
   width="504.00726"
   height="368.7757"
   viewBox="0 0 504.00726 368.7757"
   fill="none"
   version="1.1"
   id="svg48"
   sodipodi:docname="sleep.svg"
   inkscape:version="1.1.1 (3bf5ae0d25, 2021-09-20, custom)"
   xmlns:inkscape="http://www.inkscape.org/namespaces/inkscape"
   xmlns:sodipodi="http://sodipodi.sourceforge.net/DTD/sodipodi-0.dtd"
   xmlns="http://www.w3.org/2000/svg"
   xmlns:svg="http://www.w3.org/2000/svg">
  <defs
     id="defs52" />
  <sodipodi:namedview
     id="namedview50"
     pagecolor="#ffffff"
     bordercolor="#666666"
     borderopacity="1.0"
     inkscape:pageshadow="2"
     inkscape:pageopacity="0.0"
     inkscape:pagecheckerboard="0"
     showgrid="false"
     inkscape:zoom="0.50558135"
     inkscape:cx="155.2668"
     inkscape:cy="391.62837"
     inkscape:window-width="959"
     inkscape:window-height="1058"
     inkscape:window-x="2880"
     inkscape:window-y="0"
     inkscape:window-maximized="1"
     inkscape:current-layer="svg48" />
  <path
     opacity="0.5"
     d="m 206.40398,51.99498 c -12.74,-16.53 -39.65,-20.21 -56.52,-7.73 -16.87,12.48 -20.63,38.89 -7.92,55.45 -12.42,-9.31 -27.06,-16.63 -42.680002,-17.22 -15.62,-0.59 -32.17,6.75 -39.12,20.48 -6.95,13.73 -1.11,33.26 13.57,38.52 -18.76,-4.4 -39.83,9.26 -43.05,27.92 -3.22,18.66 12.09,38.37 31.28,40.27 -17.5,-2.34 -36.43,2.35 -48.93,14.6 -12.50000028,12.25 -17.1300003,32.44 -8.9100003,47.78 8.2200003,15.34 30.0000003,22.87 45.1500003,18.46 8.67,25.58 31.23,46.17 57.860002,52.81 26.63,6.64 56.46,-0.88 76.53,-19.29 27.734,24.261 63.273,37.731 100.12,37.95 21.13,0.07 45.77,-7.13 52.64,-26.74 17.52,10.57 37.78,17.43 58.33,16.91 20.55,-0.52 41.3,-9 54.14,-24.79 12.84,-15.79 16.48,-39 6.8,-56.76 21.17,0.28 41,-15.53 46.57,-35.58 5.57,-20.05 -2.61,-42.68 -18.8,-56.07 -16.19,-13.39 -39.33,-17.59 -59.82,-12.37 14.71,-19.13 13.1,-48.6 -3.62,-66.08 -16.72,-17.48 -46.59,-20.93 -67,-7.73 0.33,-24.38 -6.78,-49.46 -23.11,-67.84 -16.33,-18.3800002 -42.57,-28.9500002 -66.8,-23.5200002 -24.23,5.43 -44.1,28.5700002 -56.71,50.5700002 z"
     fill="#dbfdff"
     id="path2" />
  <path
     d="m 361.06498,269.27698 c 33.937,-59.617 13.53,-135.222 -45.578,-168.868 -59.108,-33.647 -134.536,-12.593 -168.472,47.024 -33.936,59.617 -13.53,135.222 45.579,168.869 59.108,33.646 134.535,12.593 168.471,-47.025 z"
     fill="#50deb6"
     id="path4" />
  <path
     d="m 151.48398,252.26498 c -19.38,0.12 -36.66,5.2 -49.68,13.21 -3.710002,2.29 -10.500002,9.49 -10.320002,14.09 0.19,4.95 5.53,7.88 10.210002,9.5 12.159,4.196 24.909,6.424 37.77,6.6 3.9,0.05 10,1.55 12,-1.78 1.86,-3.06 -1,-9.24 -3.62,-11.7 -2.62,-2.46 -3.15,-2.61 -6.57,-3.67 9.23,-0.79 15.46,-2.56 24.7,-3.35 2.61,-0.23 5.78,-0.85 6.63,-3.34 0.85,-2.49 -1.2,-4.83 -3.2,-6.44 -6,-4.82 -17.51,-10.85 -17.92,-13.12 z"
     fill="#50deb6"
     id="path6" />
  <path
     d="m 249.61498,326.89498 c -39.785,1.338 -79.615,-0.052 -119.21,-4.16 -4,-0.42 -8.73,-1.44 -10.08,-5.2 -1.14,-3.2 1.07,-6.81 4.06,-8.42 2.99,-1.61 6.54,-1.7 9.93,-1.77 21.22,-0.39 73.37,-10.25 63.65,-1.18 -7.13,6.65 19.74,-0.32 28.9,3 9.16,3.32 17.43,10.83 22.75,17.73 z"
     fill="#50deb6"
     id="path8" />
  <path
     d="m 254.24498,330.60498 c 32.13,2.75 63.15,12.93 94.28,21.62 2.75,0.76 5.61,1.52 8.4,0.9 2.79,-0.62 5.5,-3.05 5.63,-6.15 0.13,-3.3 -2.5,-5.81 -4.91,-7.76 -19.559,-15.808 -40.95,-29.204 -63.71,-39.9 -12.54,-5.88 -26.13,-11 -39.69,-8.61 -1.746,13.243 -1.746,26.657 0,39.9 z"
     fill="#50deb6"
     id="path10" />
  <path
     d="m 348.34398,215.77498 c 25.76,19.41 55.47,33 84.3,47.59 2.54,1.29 5.17,2.66 6.86,4.95 1.69,2.29 2.14,5.76 0.25,8 -1.89,2.24 -5.59,2.36 -8.64,2.11 -24.878,-2.06 -49.437,-6.979 -73.19,-14.66 -13.14,-4.26 -26.56,-9.75 -35.18,-20.37 7.208,-10.352 15.824,-19.648 25.6,-27.62 z"
     fill="#50deb6"
     id="path12" />
  <path
     d="m 344.90398,257.76498 c 28,16 59.08,25.72 89.47,36.62 2.68,1 5.45,2 7.41,4.05 1.96,2.05 2.86,5.46 1.27,7.91 -1.69,2.61 -5.22,3.06 -8.28,3.19 -24.874,1.116 -49.794,-0.655 -74.26,-5.28 -13.55,-2.56 -27.52,-6.32 -37.4,-15.79 5.805,-11.194 13.139,-21.526 21.79,-30.7 z"
     fill="#50deb6"
     id="path14" />
  <path
     d="m 332.29398,285.38498 c 27,16.2 57.76,26.5 87.66,37.92 2.63,1 5.36,2.09 7.18,4.11 1.82,2.02 2.45,5.26 0.65,7.53 -1.8,2.27 -5.54,2.71 -8.65,2.72 -25.115,0.171 -50.173,-2.401 -74.73,-7.67 -13.52,-2.92 -27.36,-7 -36.61,-16.31 6.856,-10.493 15.097,-20.012 24.5,-28.3 z"
     fill="#50deb6"
     id="path16" />
  <path
     d="m 59.644978,332.25498 17.29,2.58 14.54,6.84"
     fill="#50deb6"
     id="path18" />
  <path
     d="m 61.285978,334.14498 c 2.419,-10.778 -3.042,-21.181 -12.1976,-23.236 -9.1556,-2.054 -18.5386,5.017 -20.9575,15.794 -2.419,10.778 3.0421,21.181 12.1977,23.235 9.1555,2.055 18.5384,-5.016 20.9574,-15.793 z"
     fill="#ffffff"
     id="path20" />
  <path
     d="m 125.70298,348.61498 c 2.419,-10.777 -3.042,-21.18 -12.198,-23.235 -9.155,-2.055 -18.538002,5.016 -20.957002,15.794 -2.419,10.778 3.042,21.18 12.198002,23.235 9.155,2.055 18.538,-5.016 20.957,-15.794 z"
     fill="#ffffff"
     id="path22" />
  <path
     d="m 127.24398,350.13498 c 0,0 18.81,-12.62 30.55,-12.62 z"
     fill="#ffffff"
     id="path24" />
  <path
     d="m 57.653978,314.86498 c 4.618,-2.683 9.75,-4.363 15.06,-4.93 z"
     fill="#ffffff"
     id="path26" />
  <path
     fill-rule="evenodd"
     clip-rule="evenodd"
     d="m 75.762978,338.70498 -16.709,-2.494 1.18,-7.912 17.871,2.666 15.072,7.091 -3.406,7.239 z"
     fill="#000000"
     id="path28" />
  <path
     fill-rule="evenodd"
     clip-rule="evenodd"
     d="m 32.034078,327.57898 c -2.0745,9.243 2.7434,17.014 9.1708,18.457 6.4274,1.442 14.1041,-3.524 16.1791,-12.767 2.074,-9.244 -2.744,-17.014 -9.1712,-18.457 -6.4274,-1.442 -14.1041,3.524 -16.1787,12.767 z m 7.4189,26.262 c -11.8837,-2.667 -17.988,-15.702 -15.2247,-28.014 2.7634,-12.312 13.8527,-21.488 25.7364,-18.821 11.8833,2.668 17.9883,15.703 15.2243,28.015 -2.763,12.312 -13.8523,21.488 -25.736,18.82 z"
     fill="#000000"
     id="path30" />
  <path
     fill-rule="evenodd"
     clip-rule="evenodd"
     d="m 96.450978,342.04998 c -2.074,9.243 2.743,17.014 9.171002,18.456 6.427,1.443 14.104,-3.523 16.178,-12.767 2.075,-9.243 -2.743,-17.013 -9.17,-18.456 -6.428,-1.443 -14.104002,3.524 -16.179002,12.767 z m 7.419002,26.262 c -11.884002,-2.667 -17.988002,-15.702 -15.225002,-28.014 2.764,-12.312 13.853002,-21.488 25.737002,-18.821 11.883,2.667 17.988,15.702 15.224,28.014 -2.763,12.312 -13.852,21.488 -25.736,18.821 z"
     fill="#000000"
     id="path32" />
  <path
     fill-rule="evenodd"
     clip-rule="evenodd"
     d="m 127.24398,350.13498 -2.228,-3.322 c -1.835,1.231 -2.324,3.716 -1.093,5.551 1.23,1.834 3.715,2.324 5.549,1.093 l 0.007,-0.004 0.033,-0.022 c 0.031,-0.02 0.079,-0.052 0.143,-0.095 0.13,-0.085 0.326,-0.213 0.582,-0.378 0.513,-0.329 1.265,-0.804 2.207,-1.376 1.888,-1.148 4.518,-2.674 7.494,-4.195 6.176,-3.159 13.045,-5.872 17.856,-5.872 2.21,0 4,-1.791 4,-4 0,-2.209 -1.79,-4 -4,-4 -6.928,0 -15.334,3.597 -21.498,6.749 -3.194,1.633 -6,3.262 -8.006,4.481 -1.005,0.611 -1.814,1.121 -2.376,1.482 -0.281,0.181 -0.501,0.324 -0.652,0.424 -0.076,0.05 -0.135,0.089 -0.177,0.116 l -0.048,0.032 -0.02,0.014 c 0,0 -0.001,0 2.227,3.322 z"
     fill="#000000"
     id="path34" />
  <path
     fill-rule="evenodd"
     clip-rule="evenodd"
     d="m 76.690978,309.50998 c 0.235,2.197 -1.356,4.168 -3.553,4.402 -4.751,0.507 -9.343,2.01 -13.474,4.411 -1.911,1.11 -4.359,0.462 -5.469,-1.448 -1.11,-1.91 -0.461,-4.359 1.449,-5.469 5.104,-2.965 10.776,-4.822 16.645,-5.449 2.197,-0.234 4.168,1.357 4.402,3.553 z"
     fill="#000000"
     id="path36" />
  <path
     d="m 177.20398,283.99498 c 0,0 18.35,4.74 24,-9.81 m 16,-6.61 c 0,0 18.35,4.74 24,-9.81"
     stroke="#000000"
     stroke-width="2"
     stroke-miterlimit="10"
     stroke-linecap="round"
     id="path38" />
  <path
     d="m 13.644478,121.57498 35.61,-9 -26.48,40 36.8705,-10.89"
     stroke="#3d3d3d"
     stroke-width="9"
     stroke-linejoin="bevel"
     id="path40" />
  <path
     fill-rule="evenodd"
     clip-rule="evenodd"
     d="m 73.025978,162.56198 -23.8359,5.065 -1.8708,-8.804 35.9997,-7.65 4.471,7.186 -18.646,23.682 24.526,-6.093 2.17,8.734 -37.27,9.26 -4.621,-7.151 z"
     fill="#608fb5"
     id="path42" />
  <path
     fill-rule="evenodd"
     clip-rule="evenodd"
     d="m 105.23198,200.58998 -17.890002,4.025 -1.976,-8.78 29.730002,-6.69 4.599,7.075 -14.448,19.434 18.352,-4.831 2.291,8.704 -30.770002,8.1 -4.757,-7.037 z"
     fill="#88b0d1"
     id="path44" />
  <path
     fill-rule="evenodd"
     clip-rule="evenodd"
     d="m 39.083478,119.78698 -24.3362,6.151 -2.2053,-8.726 35.61,-9 4.855,6.847 -19.6627,29.702 25.0257,-7.391 2.549,8.631 -36.8697,10.89 -5.0269,-6.8 z"
     fill="#3c81ba"
     id="path46" />
</svg>
