<svg width="504.007" height="368.776" viewBox="0 0 504.007 368.776" fill="none" xmlns="http://www.w3.org/2000/svg"><path opacity=".5" d="M206.404 51.995c-12.74-16.53-39.65-20.21-56.52-7.73-16.87 12.48-20.63 38.89-7.92 55.45-12.42-9.31-27.06-16.63-42.68-17.22-15.62-.59-32.17 6.75-39.12 20.48-6.95 13.73-1.11 33.26 13.57 38.52-18.76-4.4-39.83 9.26-43.05 27.92-3.22 18.66 12.09 38.37 31.28 40.27-17.5-2.34-36.43 2.35-48.93 14.6s-17.13 32.44-8.91 47.78c8.22 15.34 30 22.87 45.15 18.46 8.67 25.58 31.23 46.17 57.86 52.81 26.63 6.64 56.46-.88 76.53-19.29a153.449 153.449 0 0 0 100.12 37.95c21.13.07 45.77-7.13 52.64-26.74 17.52 10.57 37.78 17.43 58.33 16.91 20.55-.52 41.3-9 54.14-24.79 12.84-15.79 16.48-39 6.8-56.76 21.17.28 41-15.53 46.57-35.58 5.57-20.05-2.61-42.68-18.8-56.07s-39.33-17.59-59.82-12.37c14.71-19.13 13.1-48.6-3.62-66.08-16.72-17.48-46.59-20.93-67-7.73.33-24.38-6.78-49.46-23.11-67.84-16.33-18.38-42.57-28.95-66.8-23.52-24.23 5.43-44.1 28.57-56.71 50.57z" fill="#dbfdff"/><path d="M361.065 269.277c33.937-59.617 13.53-135.222-45.578-168.868-59.108-33.647-134.536-12.593-168.472 47.024-33.936 59.617-13.53 135.222 45.579 168.869 59.108 33.646 134.535 12.593 168.471-47.025z" fill="#50deb6"/><path d="M151.484 252.265c-19.38.12-36.66 5.2-49.68 13.21-3.71 2.29-10.5 9.49-10.32 14.09.19 4.95 5.53 7.88 10.21 9.5a120.85 120.85 0 0 0 37.77 6.6c3.9.05 10 1.55 12-1.78 1.86-3.06-1-9.24-3.62-11.7-2.62-2.46-3.15-2.61-6.57-3.67 9.23-.79 15.46-2.56 24.7-3.35 2.61-.23 5.78-.85 6.63-3.34.85-2.49-1.2-4.83-3.2-6.44-6-4.82-17.51-10.85-17.92-13.12zM249.615 326.895a871.366 871.366 0 0 1-119.21-4.16c-4-.42-8.73-1.44-10.08-5.2-1.14-3.2 1.07-6.81 4.06-8.42 2.99-1.61 6.54-1.7 9.93-1.77 21.22-.39 73.37-10.25 63.65-1.18-7.13 6.65 19.74-.32 28.9 3s17.43 10.83 22.75 17.73zM254.245 330.605c32.13 2.75 63.15 12.93 94.28 21.62 2.75.76 5.61 1.52 8.4.9s5.5-3.05 5.63-6.15c.13-3.3-2.5-5.81-4.91-7.76a313.435 313.435 0 0 0-63.71-39.9c-12.54-5.88-26.13-11-39.69-8.61a152.622 152.622 0 0 0 0 39.9zM348.344 215.775c25.76 19.41 55.47 33 84.3 47.59 2.54 1.29 5.17 2.66 6.86 4.95 1.69 2.29 2.14 5.76.25 8-1.89 2.24-5.59 2.36-8.64 2.11a325.059 325.059 0 0 1-73.19-14.66c-13.14-4.26-26.56-9.75-35.18-20.37a135.676 135.676 0 0 1 25.6-27.62z" fill="#50deb6"/><path d="M344.904 257.765c28 16 59.08 25.72 89.47 36.62 2.68 1 5.45 2 7.41 4.05s2.86 5.46 1.27 7.91c-1.69 2.61-5.22 3.06-8.28 3.19a322.073 322.073 0 0 1-74.26-5.28c-13.55-2.56-27.52-6.32-37.4-15.79a136.021 136.021 0 0 1 21.79-30.7z" fill="#50deb6"/><path d="M332.294 285.385c27 16.2 57.76 26.5 87.66 37.92 2.63 1 5.36 2.09 7.18 4.11 1.82 2.02 2.45 5.26.65 7.53-1.8 2.27-5.54 2.71-8.65 2.72a345.017 345.017 0 0 1-74.73-7.67c-13.52-2.92-27.36-7-36.61-16.31a139.268 139.268 0 0 1 24.5-28.3zM59.645 332.255l17.29 2.58 14.54 6.84" fill="#50deb6"/><path d="M61.286 334.145c2.419-10.778-3.042-21.181-12.198-23.236-9.155-2.054-18.538 5.017-20.957 15.794-2.42 10.778 3.042 21.181 12.198 23.235 9.155 2.055 18.538-5.016 20.957-15.793zM125.703 348.615c2.419-10.777-3.042-21.18-12.198-23.235-9.155-2.055-18.538 5.016-20.957 15.794-2.419 10.778 3.042 21.18 12.198 23.235 9.155 2.055 18.538-5.016 20.957-15.794zM127.244 350.135s18.81-12.62 30.55-12.62zM57.654 314.865a38.015 38.015 0 0 1 15.06-4.93z" fill="#fff"/><path fill-rule="evenodd" clip-rule="evenodd" d="m75.763 338.705-16.709-2.494 1.18-7.912 17.871 2.666 15.072 7.091-3.406 7.239z" fill="#000"/><path fill-rule="evenodd" clip-rule="evenodd" d="M32.034 327.579c-2.074 9.243 2.743 17.014 9.17 18.457 6.428 1.442 14.105-3.524 16.18-12.767 2.074-9.244-2.744-17.014-9.171-18.457-6.428-1.442-14.104 3.524-16.179 12.767zm7.419 26.262c-11.884-2.667-17.988-15.702-15.225-28.014 2.764-12.312 13.853-21.488 25.737-18.821 11.883 2.668 17.988 15.703 15.224 28.015-2.763 12.312-13.852 21.488-25.736 18.82zM96.451 342.05c-2.074 9.243 2.743 17.014 9.171 18.456 6.427 1.443 14.104-3.523 16.178-12.767 2.075-9.243-2.743-17.013-9.17-18.456-6.428-1.443-14.104 3.524-16.179 12.767zm7.419 26.262c-11.884-2.667-17.988-15.702-15.225-28.014 2.764-12.312 13.853-21.488 25.737-18.821 11.883 2.667 17.988 15.702 15.224 28.014-2.763 12.312-13.852 21.488-25.736 18.821z" fill="#000"/><path fill-rule="evenodd" clip-rule="evenodd" d="m127.244 350.135-2.228-3.322a4 4 0 0 0 4.456 6.644l.007-.004.033-.022.143-.095a106.402 106.402 0 0 1 2.789-1.754 118.242 118.242 0 0 1 7.494-4.195c6.176-3.159 13.045-5.872 17.856-5.872a4 4 0 1 0 0-8c-6.928 0-15.334 3.597-21.498 6.749a126.869 126.869 0 0 0-10.382 5.963c-.281.181-.501.324-.652.424l-.177.116-.048.032-.02.014 2.227 3.322zM76.691 309.51a4 4 0 0 1-3.553 4.402 33.994 33.994 0 0 0-13.474 4.411 4 4 0 1 1-4.02-6.917 42.026 42.026 0 0 1 16.645-5.449 4 4 0 0 1 4.402 3.553z" fill="#000"/><path d="M177.204 283.995s18.35 4.74 24-9.81m16-6.61s18.35 4.74 24-9.81" stroke="#000" stroke-width="2" stroke-miterlimit="10" stroke-linecap="round"/><path d="m13.644 121.575 35.61-9-26.48 40 36.871-10.89" stroke="#3d3d3d" stroke-width="9" stroke-linejoin="bevel"/><path fill-rule="evenodd" clip-rule="evenodd" d="m73.026 162.562-23.836 5.065-1.87-8.804 35.999-7.65 4.471 7.186-18.646 23.682 24.526-6.093 2.17 8.734-37.27 9.26-4.621-7.151z" fill="#608fb5"/><path fill-rule="evenodd" clip-rule="evenodd" d="m105.232 200.59-17.89 4.025-1.976-8.78 29.73-6.69 4.599 7.075-14.448 19.434 18.352-4.831 2.291 8.704-30.77 8.1-4.757-7.037z" fill="#88b0d1"/><path fill-rule="evenodd" clip-rule="evenodd" d="m39.083 119.787-24.336 6.151-2.205-8.726 35.61-9 4.855 6.847-19.663 29.702 25.026-7.391 2.549 8.631-36.87 10.89-5.027-6.8z" fill="#3c81ba"/></svg>