<svg width="268.462" height="310.161" viewBox="0 0 268.462 310.161" fill="none" xmlns="http://www.w3.org/2000/svg"><path d="M240.972 184.896c33.936-59.618 13.53-135.223-45.578-168.869C136.284-17.62 60.858 3.434 26.922 63.051c-33.936 59.617-13.53 135.222 45.578 168.87 59.109 33.645 134.536 12.592 168.472-47.025z" fill="#50deb6"/><path d="M29.469 155.4c-5.15 31.84-17.21 62.15-27.87 92.67-.94 2.69-1.88 5.5-1.52 8.31.36 2.81 2.44 5.65 5.34 5.95 3.1.31 5.67-2.16 7.7-4.46a324.35 324.35 0 0 0 42.64-61.19c6.53-12.17 12.41-25.41 11.28-39.05a136.21 136.21 0 0 0-37.57-2.23z" fill="#50deb6"/><path d="M48.839 184.021c-1.87 32.18-10.76 63.51-18.25 94.91-.66 2.77-1.31 5.65-.66 8.42.65 2.77 3 5.38 5.92 5.39 3.12 0 5.42-2.69 7.21-5.17a322.068 322.068 0 0 0 36.17-65c5.26-12.74 9.75-26.49 7.22-39.95a135.965 135.965 0 0 0-37.61 1.4z" fill="#50deb6"/><path d="M70.009 200.73c4.15 32 .79 64.45-1.08 96.72-.16 2.85-.29 5.81.91 8.41 1.2 2.6 4.15 4.72 7.2 4.18 3.25-.57 5.15-3.67 6.54-6.45a312.561 312.561 0 0 0 25.44-70.73c3.08-13.51 5.16-27.87 0-40.62a152.664 152.664 0 0 0-39.01 8.49zM236.478 154.37c6 31.7 18.78 61.72 30.21 92 1 2.67 2 5.45 1.73 8.28-.27 2.83-2.29 5.691-5.19 6.061-3.08.39-5.72-2-7.81-4.27a324.747 324.747 0 0 1-44.18-60.15c-6.84-12-13.05-25.1-12.26-38.76a136.066 136.066 0 0 1 37.5-3.16z" fill="#50deb6"/><path d="M217.848 183.44c2.67 32.13 12.36 63.24 20.64 94.44.73 2.75 1.45 5.62.87 8.41s-2.86 5.45-5.78 5.53c-3.11.09-5.49-2.57-7.33-5a322.185 322.185 0 0 1-37.81-64.14c-5.58-12.61-10.42-26.24-8.24-39.76a136.443 136.443 0 0 1 37.65.52z" fill="#50deb6"/><path d="M197.098 200.65c-3.33 32.07.84 64.45 3.53 96.67.23 2.84.44 5.79-.7 8.42s-4 4.82-7.09 4.36c-3.26-.5-5.24-3.55-6.7-6.29a313.06 313.06 0 0 1-27.22-70.1c-3.42-13.43-5.86-27.74-1-40.61a152.572 152.572 0 0 1 39.18 7.55z" fill="#50deb6"/><path d="m117.369 121.73 21.11-1.28 18.98 3.49M95.839 139.77c11.355 0 20.56-8.954 20.56-20s-9.205-20-20.56-20c-11.355 0-20.56 8.954-20.56 20s9.205 20 20.56 20z" fill="#fff"/><path d="M175.739 139.77c11.355 0 20.56-8.954 20.56-20s-9.205-20-20.56-20c-11.355 0-20.56 8.954-20.56 20s9.205 20 20.56 20z" fill="#fff"/><path fill-rule="evenodd" clip-rule="evenodd" d="M71.279 119.77c0-13.358 11.1-24 24.56-24 12.703 0 23.305 9.48 24.456 21.775l18.428-1.117 12.478 2.294c.563-12.862 11.432-22.952 24.538-22.952 13.459 0 24.56 10.642 24.56 24s-11.101 24-24.56 24c-10.892 0-20.24-6.968-23.41-16.706l-14.095-2.592-18.562 1.126c-2.673 10.496-12.403 18.172-23.833 18.172-13.46 0-24.56-10.642-24.56-24zm24.56-16c-9.251 0-16.56 7.267-16.56 16s7.309 16 16.56 16c9.25 0 16.56-7.267 16.56-16s-7.31-16-16.56-16zm79.9 0c-9.251 0-16.56 7.267-16.56 16s7.309 16 16.56 16c9.25 0 16.56-7.267 16.56-16s-7.31-16-16.56-16z" fill="#000"/></svg>