<?xml version="1.0" encoding="UTF-8" standalone="no"?>
<svg
   width="268.46234"
   height="310.16147"
   viewBox="0 0 268.46234 310.16147"
   fill="none"
   version="1.1"
   id="svg24"
   sodipodi:docname="standby.svg"
   inkscape:version="1.1.1 (3bf5ae0d25, 2021-09-20, custom)"
   xmlns:inkscape="http://www.inkscape.org/namespaces/inkscape"
   xmlns:sodipodi="http://sodipodi.sourceforge.net/DTD/sodipodi-0.dtd"
   xmlns="http://www.w3.org/2000/svg"
   xmlns:svg="http://www.w3.org/2000/svg">
  <defs
     id="defs28" />
  <sodipodi:namedview
     id="namedview26"
     pagecolor="#ffffff"
     bordercolor="#666666"
     borderopacity="1.0"
     inkscape:pageshadow="2"
     inkscape:pageopacity="0.0"
     inkscape:pagecheckerboard="0"
     showgrid="false"
     inkscape:zoom="0.715"
     inkscape:cx="105.59441"
     inkscape:cy="-50.34965"
     inkscape:window-width="959"
     inkscape:window-height="1058"
     inkscape:window-x="2880"
     inkscape:window-y="0"
     inkscape:window-maximized="1"
     inkscape:current-layer="svg24" />
  <path
     d="m 240.97164,184.89606 c 33.936,-59.618 13.53,-135.222996 -45.578,-168.868996 -59.109,-33.647 -134.536002,-12.5929997 -168.472002,47.024 -33.9360001,59.616996 -13.53,135.221996 45.578,168.868996 59.109002,33.646 134.536002,12.593 168.472002,-47.024 z"
     fill="#50deb6"
     id="path2" />
  <path
     d="m 29.468638,155.40006 c -5.15,31.84 -17.21,62.15 -27.8700001,92.67 -0.94000002,2.69 -1.88000002,5.5 -1.52000002,8.31 0.36,2.81 2.44000002,5.65 5.34000002,5.95 3.1,0.31 5.6700001,-2.16 7.7000001,-4.46 16.519,-18.689 30.826,-39.221 42.64,-61.19 6.53,-12.17 12.41,-25.41 11.28,-39.05 -12.36,-2.478 -25.004,-3.229 -37.57,-2.23 z"
     fill="#50deb6"
     id="path4" />
  <path
     d="m 48.838638,184.02106 c -1.87,32.18 -10.76,63.51 -18.25,94.91 -0.66,2.77 -1.31,5.65 -0.66,8.42 0.65,2.77 3,5.38 5.92,5.39 3.12,0 5.42,-2.69 7.21,-5.17 14.527,-20.197 26.664,-42.009 36.17,-65 5.26,-12.74 9.75,-26.49 7.22,-39.95 -12.541,-1.279 -25.199,-0.808 -37.61,1.4 z"
     fill="#50deb6"
     id="path6" />
  <path
     d="m 70.008638,200.73006 c 4.15,32 0.79,64.45 -1.08,96.72 -0.16,2.85 -0.29,5.81 0.91,8.41 1.2,2.6 4.15,4.72 7.2,4.18 3.25,-0.57 5.15,-3.67 6.54,-6.45 11.294,-22.467 19.836002,-46.215 25.440002,-70.73 3.08,-13.51 5.16,-27.87 0,-40.62 -13.319002,1.11 -26.435002,3.965 -39.010002,8.49 z"
     fill="#50deb6"
     id="path8" />
  <path
     d="m 236.47764,154.37006 c 6,31.7 18.78,61.72 30.21,92 1,2.67 2,5.45 1.73,8.28 -0.27,2.83 -2.29,5.691 -5.19,6.061 -3.08,0.39 -5.72,-2 -7.81,-4.27 -16.989,-18.286 -31.814,-38.469 -44.18,-60.151 -6.84,-12 -13.05,-25.099 -12.26,-38.759 12.294,-2.786 24.914,-3.849 37.5,-3.161 z"
     fill="#50deb6"
     id="path10" />
  <path
     d="m 217.84764,183.44006 c 2.67,32.13 12.36,63.24 20.64,94.44 0.73,2.75 1.45,5.62 0.87,8.41 -0.58,2.79 -2.86,5.45 -5.78,5.53 -3.11,0.09 -5.49,-2.57 -7.33,-5 -15.039,-19.847 -27.728,-41.37 -37.81,-64.14 -5.58,-12.61 -10.42,-26.24 -8.24,-39.76 12.514,-1.568 25.185,-1.392 37.65,0.52 z"
     fill="#50deb6"
     id="path12" />
  <path
     d="m 197.09764,200.65006 c -3.33,32.07 0.84,64.45 3.53,96.67 0.23,2.84 0.44,5.79 -0.7,8.42 -1.14,2.63 -4,4.82 -7.09,4.36 -3.26,-0.5 -5.24,-3.55 -6.7,-6.29 -11.857,-22.188 -20.996,-45.724 -27.22,-70.1 -3.42,-13.43 -5.86,-27.74 -1,-40.61 13.335,0.791 26.507,3.329 39.18,7.55 z"
     fill="#50deb6"
     id="path14" />
  <path
     d="m 117.36864,121.73006 21.11,-1.28 18.98,3.49"
     fill="#ffffff"
     id="path16" />
  <path
     d="m 95.838638,139.77006 c 11.355002,0 20.560002,-8.954 20.560002,-20 0,-11.046 -9.205,-19.999996 -20.560002,-19.999996 -11.355,0 -20.56,8.953996 -20.56,19.999996 0,11.046 9.205,20 20.56,20 z"
     fill="#ffffff"
     id="path18" />
  <path
     d="m 175.73864,139.77006 c 11.355,0 20.56,-8.954 20.56,-20 0,-11.046 -9.205,-19.999996 -20.56,-19.999996 -11.355,0 -20.56,8.953996 -20.56,19.999996 0,11.046 9.205,20 20.56,20 z"
     fill="#ffffff"
     id="path20" />
  <path
     fill-rule="evenodd"
     clip-rule="evenodd"
     d="m 71.278638,119.77006 c 0,-13.358 11.1,-23.999996 24.56,-23.999996 12.703002,0 23.305002,9.478996 24.456002,21.774996 l 18.428,-1.117 12.478,2.294 c 0.563,-12.862 11.432,-22.951996 24.538,-22.951996 13.459,0 24.56,10.641996 24.56,23.999996 0,13.358 -11.101,24 -24.56,24 -10.892,0 -20.239,-6.968 -23.409,-16.706 l -14.096,-2.592 -18.562,1.126 c -2.673,10.496 -12.403,18.172 -23.833002,18.172 -13.46,0 -24.56,-10.642 -24.56,-24 z m 24.56,-16 c -9.251,0 -16.56,7.267 -16.56,16 0,8.733 7.309,16 16.56,16 9.250002,0 16.560002,-7.267 16.560002,-16 0,-8.733 -7.31,-16 -16.560002,-16 z m 79.900002,0 c -9.251,0 -16.56,7.267 -16.56,16 0,8.733 7.309,16 16.56,16 9.25,0 16.56,-7.267 16.56,-16 0,-8.733 -7.31,-16 -16.56,-16 z"
     fill="#000000"
     id="path22" />
</svg>
