<svg width="473.096" height="478.771" viewBox="0 0 473.096 478.771" fill="none" xmlns="http://www.w3.org/2000/svg"><path opacity=".5" d="M463.9 237.636c16.76-30.34 8.77-67-9.2-93.06-17.97-26.06-44.42-44.58-67.71-65.88-25.75-23.54-48.62-51.3-80.49-66.38-40.58-19.2-91.84-14.83-136 5.35s-81.66 54.81-111.54 93.79c-11.46 14.94-22.16 31.12-26.35 48.93-4.33 18.38-1.37 36.87 1.61 54.78 6.06 36.44 12.117 72.85 18.17 109.23 2.18 13.12 4.42 26.43 10.1 38.13 9.37 19.27 27.31 32.51 46.29 42.4 27.07 14.11 58 22.74 89.88 20.68 45.65-2.94 89-27 130.46-50.39 39.78-22.49 81.07-46.29 108.22-83.39 16.07-21.88 23.01-47.75 26.56-54.19z" fill="#9e9e9e"/><path d="M65.51 370.095c9.51 11.2 9.42 27.53 7.39 42.08-.7 5-1.59 10-3.92 14.51s-6.32 8.31-11.25 9.3c-5.61 1.13-11.47-1.65-15.31-5.9s-5.94-9.75-7.52-15.25a103.78 103.78 0 0 1-3.52-38.21c.5-5.18 2-11.15 6.79-13.17 3.77-1.59 8.28.08 11.16 3 2.88 2.92 4.48 6.8 6 10.61 3 7.67 5.83 15.53 6.48 23.73.65 8.2-1.12 16.92-6.46 23.18-5.34 6.26-14.69 9.4-22.22 6.08-10-4.38-12.86-17-13.34-27.88-.36-7.84-.09-15.89 2.74-23.21s8.62-13.87 16.21-15.86c9.76-2.57 20.35 3.09 25.89 11.52 5.54 8.43 6.84 19 6.38 29.08-.48 10.36-3.69 22-13 26.61-9.66 4.74-21.61-.63-28.73-8.71a44.743 44.743 0 0 1-10.22-37.4c1.25-6.55 4.17-13 9.36-17.21 5.19-4.21 12.91-5.6 18.69-2.27 6.06 3.49 8.54 10.85 10.18 17.65a204.283 204.283 0 0 1 4.66 27.24c.59 5.73.89 11.76-1.42 17.05-4 9.16-15.4 13.6-25.19 11.59-9.79-2.01-17.86-9.3-23.1-17.82-5.24-8.52-8-18.26-10.8-27.88" stroke="#45403d" stroke-width="3" stroke-miterlimit="10"/><path d="m66.37 370.186-55.1-12.78" stroke="#45403d" stroke-width="11" stroke-miterlimit="10"/><path d="M296.432 325.515c33.936-59.617 13.53-135.222-45.578-168.869C191.745 123 116.318 144.053 82.382 203.671c-33.936 59.617-13.53 135.222 45.578 168.868 59.11 33.647 134.536 12.593 168.472-47.024z" fill="#50deb6"/><path d="M102.76 283.656c-20.66 24.77-35.64 53.75-51.69 81.81-1.42 2.47-2.92 5-5.28 6.6-2.36 1.6-5.86 1.86-8-.14-2.14-2-2.09-5.7-1.68-8.73a324.138 324.138 0 0 1 18.24-72.37c4.9-12.91 11-26 22.09-34.11a136.281 136.281 0 0 1 26.32 26.94zM181.09 364.236c7.77 31.28 8.58 63.85 10.75 96.05.19 2.84.42 5.79 1.86 8.24 1.44 2.45 4.47 4.24 7.26 3.39 3-.91 4.38-4.18 5.34-7.08a321.866 321.866 0 0 0 15.25-72.83c1.24-13.72 1.45-28.18-5-40.29a136.65 136.65 0 0 0-35.46 12.52z" fill="#50deb6"/><path d="M214.29 373.566c11.45 30.15 15.72 62.52 21.38 94.34.5 2.81 1.06 5.72 2.83 8 1.77 2.28 5.14 3.63 8 2.4 3-1.31 4.15-4.77 4.86-7.79a312.2 312.2 0 0 0 8.33-74.69c-.14-13.86-1.44-28.31-9.44-39.51a153.085 153.085 0 0 0-35.96 17.25zM264 288.936c24.72 20.72 53.68 35.78 81.71 51.91 2.47 1.42 5 2.93 6.59 5.29 1.59 2.36 1.85 5.87-.16 8-2.01 2.13-5.7 2.06-8.74 1.65a324.896 324.896 0 0 1-72.32-18.44c-12.91-4.94-26-11.12-34.08-22.18a135.943 135.943 0 0 1 27-26.23zM133.53 329.516c-2.93 32.1 1.22 64.42 4 96.59.24 2.84.46 5.79-.59 8.43-1.05 2.64-3.77 4.87-6.66 4.45-3.08-.45-5-3.48-6.35-6.2a322.763 322.763 0 0 1-26.13-69.72c-3.31-13.38-5.71-27.65-1.22-40.58a136.032 136.032 0 0 1 36.95 7.03z" fill="#50deb6"/><path d="M167.19 329.826c-3.34 32.07.84 64.46 3.52 96.67.24 2.84.45 5.8-.69 8.42s-4 4.82-7.09 4.36c-3.27-.49-5.24-3.55-6.7-6.29a313.544 313.544 0 0 1-27.23-70.16c-3.41-13.43-5.86-27.73-1-40.61a153.016 153.016 0 0 1 39.19 7.61z" fill="#50deb6"/><path d="m150.85 246.526 21.1-1.28 18.99 3.49M129.31 264.556c11.355 0 20.56-8.955 20.56-20 0-11.046-9.205-20-20.56-20-11.355 0-20.56 8.954-20.56 20 0 11.045 9.205 20 20.56 20z" fill="#fff"/><path d="M209.22 264.556c11.355 0 20.56-8.955 20.56-20 0-11.046-9.205-20-20.56-20-11.355 0-20.56 8.954-20.56 20 0 11.045 9.205 20 20.56 20z" fill="#fff"/><path d="m150.85 246.526 21.1-1.28 18.99 3.49m-61.63 15.82c11.355 0 20.56-8.955 20.56-20 0-11.046-9.205-20-20.56-20-11.355 0-20.56 8.954-20.56 20 0 11.045 9.205 20 20.56 20zm79.91 0c11.355 0 20.56-8.955 20.56-20 0-11.046-9.205-20-20.56-20-11.355 0-20.56 8.954-20.56 20 0 11.045 9.205 20 20.56 20z" stroke="#000" stroke-width="8" stroke-miterlimit="10"/><path d="M45.48 153.826c56 21.59 87.48 28.85 146.75 23.39 58.78-5.41 153.81-52 101-50.59l-70.13 1.85c-5.38-11.35-9.59-52.39-22.15-52.06-15 .4-11.67 30-24.74 29.48-11.42-.48-19-30.37-29-25-11.45 6.15-11.49 45.09-8.13 57.69-27.19 8.24-47.89 13.16-93.6 15.24z" fill="#dbd7b8"/><path fill-rule="evenodd" clip-rule="evenodd" d="m223.833 130.654-3.896.907c-25.919 6.035-45.919 8.449-59.49 9.35-6.786.45-11.964.522-15.47.479a106.293 106.293 0 0 1-3.997-.118 64.254 64.254 0 0 1-1.322-.082l-.08-.006-.024-.003-.012-.001h-.002l-3.985-.35.701-7.97 3.981.351h.006l.042.004.206.015c.191.013.49.032.893.052.808.041 2.041.088 3.691.108 3.3.041 8.268-.026 14.842-.462 13.145-.872 32.715-3.223 58.206-9.158l3.896-.907z" fill="#4f4c4c"/><path d="M284.39 344.596c4.44 8 14.74 10.21 23.8 11.57 17.35 3.88 33-1 35.8-20.08a105.234 105.234 0 0 0-.34-49.37c-12.23-48.53-79.93-24.18-59.26 57.88z" fill="#e6b122"/><path d="M347.5 336.436c-9.87-8.52-22-9.18-33.55-9.6-2.51-.09-5.51.17-6.81 3.25a9.315 9.315 0 0 0 .61 7.43 14.389 14.389 0 0 0 4.41 4.73c11.14 8.39 23.73 13.07 36.32 12.53 3-.13 6.84-1.63 7.12-5.91.26-3.95-2.32-7.45-8.1-12.43z" fill="#50deb6"/></svg>