<?xml version="1.0" encoding="UTF-8" standalone="no"?>
<svg
   width="473.09567"
   height="478.77118"
   viewBox="0 0 473.09567 478.77118"
   fill="none"
   version="1.1"
   id="svg38"
   sodipodi:docname="whip.svg"
   inkscape:version="1.1.1 (3bf5ae0d25, 2021-09-20, custom)"
   xmlns:inkscape="http://www.inkscape.org/namespaces/inkscape"
   xmlns:sodipodi="http://sodipodi.sourceforge.net/DTD/sodipodi-0.dtd"
   xmlns="http://www.w3.org/2000/svg"
   xmlns:svg="http://www.w3.org/2000/svg">
  <defs
     id="defs42" />
  <sodipodi:namedview
     id="namedview40"
     pagecolor="#ffffff"
     bordercolor="#666666"
     borderopacity="1.0"
     inkscape:pageshadow="2"
     inkscape:pageopacity="0.0"
     inkscape:pagecheckerboard="0"
     showgrid="false"
     inkscape:zoom="1.43"
     inkscape:cx="238.11189"
     inkscape:cy="239.16084"
     inkscape:window-width="959"
     inkscape:window-height="1058"
     inkscape:window-x="2880"
     inkscape:window-y="0"
     inkscape:window-maximized="1"
     inkscape:current-layer="svg38" />
  <path
     opacity="0.5"
     d="m 463.90023,237.63599 c 16.76,-30.34 8.77,-67 -9.2,-93.06 -17.97,-26.06 -44.42,-44.580002 -67.71,-65.880002 -25.75,-23.54 -48.62,-51.3004 -80.49,-66.3804 -40.58,-19.1999997 -91.84,-14.8298997 -136,5.3501 -44.16,20.18 -81.659995,54.8103 -111.539995,93.790302 -11.46,14.94 -22.1599,31.12 -26.3499,48.93 -4.33,18.38 -1.37,36.87 1.61,54.78 6.0599,36.44 12.1169,72.85 18.1699,109.23 2.18,13.12 4.42,26.43 10.1,38.13 9.37,19.27 27.31,32.51 46.289995,42.4 27.07,14.11 58,22.74 89.88,20.68 45.65,-2.94 89,-27 130.46,-50.39 39.78,-22.49 81.07,-46.29 108.22,-83.39 16.07,-21.88 23.01,-47.75 26.56,-54.19 z"
     fill="#9e9e9e"
     id="path2" />
  <path
     d="m 65.510235,370.09499 c 9.51,11.2 9.42,27.53 7.39,42.08 -0.7,5 -1.59,10 -3.92,14.51 -2.33,4.51 -6.32,8.31 -11.25,9.3 -5.61,1.13 -11.47,-1.65 -15.31,-5.9 -3.84,-4.25 -5.94,-9.75 -7.52,-15.25 -3.5382,-12.407 -4.732,-25.365 -3.52,-38.21 0.5,-5.18 2,-11.15 6.79,-13.17 3.77,-1.59 8.28,0.08 11.16,3 2.88,2.92 4.48,6.8 6,10.61 3,7.67 5.83,15.53 6.48,23.73 0.65,8.2 -1.12,16.92 -6.46,23.18 -5.34,6.26 -14.69,9.4 -22.22,6.08 -10,-4.38 -12.86,-17 -13.34,-27.88 -0.36,-7.84 -0.09,-15.89 2.74,-23.21 2.83,-7.32 8.62,-13.87 16.21,-15.86 9.76,-2.57 20.35,3.09 25.89,11.52 5.54,8.43 6.84,19 6.38,29.08 -0.48,10.36 -3.69,22 -13,26.61 -9.66,4.74 -21.61,-0.63 -28.73,-8.71 -4.399,-5.068 -7.6016,-11.061 -9.3707,-17.535 -1.7691,-6.474 -2.0593,-13.263 -0.8493,-19.865 1.25,-6.55 4.17,-13 9.36,-17.21 5.19,-4.21 12.91,-5.6 18.69,-2.27 6.06,3.49 8.54,10.85 10.18,17.65 2.167,8.965 3.723,18.066 4.66,27.24 0.59,5.73 0.89,11.76 -1.42,17.05 -4,9.16 -15.4,13.6 -25.19,11.59 -9.79,-2.01 -17.86,-9.3 -23.1,-17.82 -5.2400005,-8.52 -8.0000005,-18.26 -10.8000005,-27.88"
     stroke="#45403d"
     stroke-width="3"
     stroke-miterlimit="10"
     id="path4" />
  <path
     d="m 66.370235,370.18599 -55.0999,-12.78"
     stroke="#45403d"
     stroke-width="11"
     stroke-miterlimit="10"
     id="path6" />
  <path
     d="m 296.43223,325.51499 c 33.936,-59.617 13.53,-135.222 -45.578,-168.869 -59.109,-33.646 -134.536,-12.593 -168.471995,47.025 -33.936,59.617 -13.53,135.222 45.577995,168.868 59.109,33.647 134.536,12.593 168.472,-47.024 z"
     fill="#50deb6"
     id="path8" />
  <path
     d="m 102.76023,283.65599 c -20.659995,24.77 -35.639995,53.75 -51.689995,81.81 -1.42,2.47 -2.92,5 -5.28,6.6 -2.36,1.6 -5.86,1.86 -8,-0.14 -2.1399,-2 -2.0899,-5.7 -1.6799,-8.73 3.2729,-24.745 9.3939,-49.029 18.2399,-72.37 4.9,-12.91 11,-26 22.09,-34.11 9.978,7.719 18.836,16.785 26.319995,26.94 z"
     fill="#50deb6"
     id="path10" />
  <path
     d="m 181.09023,364.23599 c 7.77,31.28 8.58,63.85 10.75,96.05 0.19,2.84 0.42,5.79 1.86,8.24 1.44,2.45 4.47,4.24 7.26,3.39 3,-0.91 4.38,-4.18 5.34,-7.08 7.882,-23.605 12.999,-48.045 15.25,-72.83 1.24,-13.72 1.45,-28.18 -5,-40.29 -12.341,2.519 -24.274,6.733 -35.46,12.52 z"
     fill="#50deb6"
     id="path12" />
  <path
     d="m 214.29023,373.56599 c 11.45,30.15 15.72,62.52 21.38,94.34 0.5,2.81 1.06,5.72 2.83,8 1.77,2.28 5.14,3.63 8,2.4 3,-1.31 4.15,-4.77 4.86,-7.79 5.774,-24.47 8.571,-49.549 8.33,-74.69 -0.14,-13.86 -1.44,-28.31 -9.44,-39.51 -12.688,4.157 -24.777,9.957 -35.96,17.25 z"
     fill="#50deb6"
     id="path14" />
  <path
     d="m 264.00023,288.93599 c 24.72,20.72 53.68,35.78 81.71,51.91 2.47,1.42 5,2.93 6.59,5.29 1.59,2.36 1.85,5.87 -0.16,8 -2.01,2.13 -5.7,2.06 -8.74,1.65 -24.735,-3.348 -49.002,-9.536 -72.32,-18.44 -12.91,-4.94 -26,-11.12 -34.08,-22.18 7.74,-9.953 16.827,-18.781 27,-26.23 z"
     fill="#50deb6"
     id="path16" />
  <path
     d="m 133.53023,329.51599 c -2.93,32.1 1.22,64.42 4,96.59 0.24,2.84 0.46,5.79 -0.59,8.43 -1.05,2.64 -3.77,4.87 -6.66,4.45 -3.08,-0.45 -5,-3.48 -6.35,-6.2 -11.37,-22.154 -20.139,-45.55 -26.129995,-69.72 -3.31,-13.38 -5.71,-27.65 -1.22,-40.58 12.582995,0.621 25.017995,2.987 36.949995,7.03 z"
     fill="#50deb6"
     id="path18" />
  <path
     d="m 167.19023,329.82599 c -3.34,32.07 0.84,64.46 3.52,96.67 0.24,2.84 0.45,5.8 -0.69,8.42 -1.14,2.62 -4,4.82 -7.09,4.36 -3.27,-0.49 -5.24,-3.55 -6.7,-6.29 -11.861,-22.209 -21.003,-45.765 -27.23,-70.16 -3.41,-13.43 -5.86,-27.73 -1,-40.61 13.339,0.814 26.515,3.373 39.19,7.61 z"
     fill="#50deb6"
     id="path20" />
  <path
     d="m 150.85023,246.52599 21.1,-1.28 18.99,3.49"
     fill="#ffffff"
     id="path22" />
  <path
     d="m 129.31023,264.55599 c 11.355,0 20.56,-8.955 20.56,-20 0,-11.046 -9.205,-20 -20.56,-20 -11.355,0 -20.56,8.954 -20.56,20 0,11.045 9.205,20 20.56,20 z"
     fill="#ffffff"
     id="path24" />
  <path
     d="m 209.22023,264.55599 c 11.355,0 20.56,-8.955 20.56,-20 0,-11.046 -9.205,-20 -20.56,-20 -11.355,0 -20.56,8.954 -20.56,20 0,11.045 9.205,20 20.56,20 z"
     fill="#ffffff"
     id="path26" />
  <path
     d="m 150.85023,246.52599 21.1,-1.28 18.99,3.49 m -61.63,15.82 c 11.355,0 20.56,-8.955 20.56,-20 0,-11.046 -9.205,-20 -20.56,-20 -11.355,0 -20.56,8.954 -20.56,20 0,11.045 9.205,20 20.56,20 z m 79.91,0 c 11.355,0 20.56,-8.955 20.56,-20 0,-11.046 -9.205,-20 -20.56,-20 -11.355,0 -20.56,8.954 -20.56,20 0,11.045 9.205,20 20.56,20 z"
     stroke="#000000"
     stroke-width="8"
     stroke-miterlimit="10"
     id="path28" />
  <path
     d="m 45.480235,153.82599 c 55.999995,21.59 87.479995,28.85 146.749995,23.39 58.78,-5.41 153.81,-52 101,-50.59 l -70.13,1.85 c -5.38,-11.35 -9.59,-52.390002 -22.15,-52.060002 -15,0.4 -11.67,30.000002 -24.74,29.480002 -11.42,-0.48 -19,-30.370002 -29,-25.000002 -11.45,6.15 -11.49,45.090002 -8.13,57.690002 -27.19,8.24 -47.889995,13.16 -93.599995,15.24 z"
     fill="#dbd7b8"
     id="path30" />
  <path
     fill-rule="evenodd"
     clip-rule="evenodd"
     d="m 223.83323,130.65399 -3.896,0.907 c -25.919,6.035 -45.919,8.449 -59.491,9.35 -6.785,0.45 -11.963,0.522 -15.469,0.479 -1.753,-0.022 -3.088,-0.072 -3.997,-0.118 -0.454,-0.023 -0.802,-0.045 -1.042,-0.061 -0.121,-0.009 -0.214,-0.016 -0.28,-0.021 l -0.08,-0.006 -0.024,-0.003 -0.012,-0.001 h -0.002 l -3.985,-0.35 0.701,-7.97 3.981,0.351 h 0.002 0.004 l 0.042,0.004 c 0.042,0.003 0.11,0.008 0.206,0.015 0.191,0.013 0.489,0.032 0.893,0.052 0.808,0.041 2.041,0.088 3.691,0.108 3.3,0.041 8.268,-0.026 14.842,-0.462 13.145,-0.872 32.715,-3.223 58.206,-9.158 l 3.896,-0.907 z"
     fill="#4f4c4c"
     id="path32" />
  <path
     d="m 284.39023,344.59599 c 4.44,8 14.74,10.21 23.8,11.57 17.35,3.88 33,-1 35.8,-20.08 3.803,-16.251 3.687,-33.174 -0.34,-49.37 -12.23,-48.53 -79.93,-24.18 -59.26,57.88 z"
     fill="#e6b122"
     id="path34" />
  <path
     d="m 347.50023,336.43599 c -9.87,-8.52 -22,-9.18 -33.55,-9.6 -2.51,-0.09 -5.51,0.17 -6.81,3.25 -0.415,1.214 -0.575,2.5 -0.471,3.778 0.105,1.279 0.473,2.522 1.081,3.652 1.092,1.891 2.6,3.508 4.41,4.73 11.14,8.39 23.73,13.07 36.32,12.53 3,-0.13 6.84,-1.63 7.12,-5.91 0.26,-3.95 -2.32,-7.45 -8.1,-12.43 z"
     fill="#50deb6"
     id="path36" />
</svg>
