<?xml version="1.0" encoding="UTF-8" standalone="no"?>
<svg
   width="431.50931"
   height="404.04382"
   viewBox="0 0 431.50931 404.04382"
   fill="none"
   version="1.1"
   id="svg36"
   sodipodi:docname="work.svg"
   inkscape:version="1.1.1 (3bf5ae0d25, 2021-09-20, custom)"
   xmlns:inkscape="http://www.inkscape.org/namespaces/inkscape"
   xmlns:sodipodi="http://sodipodi.sourceforge.net/DTD/sodipodi-0.dtd"
   xmlns="http://www.w3.org/2000/svg"
   xmlns:svg="http://www.w3.org/2000/svg">
  <defs
     id="defs40" />
  <sodipodi:namedview
     id="namedview38"
     pagecolor="#ffffff"
     bordercolor="#666666"
     borderopacity="1.0"
     inkscape:pageshadow="2"
     inkscape:pageopacity="0.0"
     inkscape:pagecheckerboard="0"
     showgrid="false"
     fit-margin-top="0"
     fit-margin-left="0"
     fit-margin-right="0"
     fit-margin-bottom="0"
     inkscape:zoom="1.0337349"
     inkscape:cx="147.03963"
     inkscape:cy="145.1049"
     inkscape:window-width="1920"
     inkscape:window-height="1038"
     inkscape:window-x="1920"
     inkscape:window-y="20"
     inkscape:window-maximized="1"
     inkscape:current-layer="svg36" />
  <path
     opacity="0.5"
     d="m 0,65.744094 c 10.85,69.789896 41.11,143.999896 87.67,205.729896 46.56,61.73 109.62,110 170.78,126.43 58.77,15.76 114.31,0.89 145.51,-41.27 31.2,-42.16 36.69,-111.2 12.41,-179 -24.28,-67.8 -78.24,-132.109896 -137.14,-160.999896 -63.74,-31.34002 -130.06,-17.6900204 -156.55,35 -26.49,52.689896 -9.23,141.339896 41.57,203.359896 50.8,62.02 130.52,88.87 175.36,57 12.09,-8.59 21.81,-21.26 24.78,-38.48 4.71,-27.35 -8.41,-62.35 -27.64,-91 -20.86,-31.06 -50.87,-57.89 -80.24,-64.43 -29.37,-6.54 -55.63,12 -53.87,44.79 1.76,32.79 37.42,72.72 62.7,64.84"
     fill="#a19ad6"
     id="path2" />
  <path
     d="m 346.824,265.64699 c 33.936,-59.617 13.53,-135.222 -45.578,-168.867996 -59.109,-33.6469 -134.536,-12.5935 -168.472,47.023996 -33.936,59.617 -13.53,135.222 45.578,168.868 59.109,33.647 134.536,12.594 168.472,-47.024 z"
     fill="#50deb6"
     id="path4" />
  <path
     d="m 132.1,263.10399 c 1,32.24 -5,64.3 -9.67,96.29 -0.41,2.82 -0.8,5.75 0.1,8.45 0.9,2.7 3.47,5.07 6.38,4.81 3.09,-0.28 5.15,-3.2 6.7,-5.84 12.652,-21.501 22.782,-44.389 30.19,-68.21 4.09,-13.19 7.33,-27.31 3.61,-40.48 -12.607,-0.074 -25.163,1.602 -37.31,4.98 z"
     fill="#50deb6"
     id="path6" />
  <path
     d="m 143.16,281.52399 c 6.57,31.55 6.13,64.12 7.06,96.39 0.09,2.84 0.21,5.79 1.55,8.3 1.34,2.51 4.3,4.41 7.13,3.67 3,-0.8 4.53,-4 5.6,-6.88 8.769,-23.284 14.81,-47.505 18,-72.18 1.76,-13.67 2.52,-28.11 -3.41,-40.45 -12.435,2.036 -24.527,5.789 -35.93,11.15 z"
     fill="#50deb6"
     id="path8" />
  <path
     d="m 313.15,241.31399 c 16.19,27.9 38.29,51.93 59.16,76.63 1.83,2.18 3.72,4.46 4.39,7.23 0.67,2.77 -0.27,6.13 -2.87,7.45 -2.78,1.39 -6.07,0 -8.79,-1.42 -22.118,-11.583 -42.828,-25.676 -61.72,-42 -10.45,-9 -20.67,-19.32 -24.49,-32.46 10.67,-6.708 22.221,-11.901 34.32,-15.43 z"
     fill="#50deb6"
     id="path10" />
  <path
     d="m 323.72,264.17399 c 2.68,32.12 12.36,63.23 20.64,94.44 0.73,2.75 1.46,5.62 0.88,8.4 -0.58,2.78 -2.87,5.45 -5.79,5.54 -3.11,0.09 -5.48,-2.57 -7.33,-5 -15.038,-19.845 -27.726,-41.365 -37.81,-64.13 -5.58,-12.6 -10.36,-26.25 -8.23,-39.75 12.509,-1.575 25.177,-1.406 37.64,0.5 z"
     fill="#50deb6"
     id="path12" />
  <path
     d="m 302.95,281.40399 c -3.34,32.07 0.83,64.45 3.52,96.67 0.24,2.84 0.44,5.79 -0.69,8.42 -1.13,2.63 -4,4.82 -7.1,4.35 -3.26,-0.49 -5.23,-3.54 -6.69,-6.28 -11.86,-22.188 -21.003,-45.724 -27.23,-70.1 -3.42,-13.43 -5.86,-27.74 -1,-40.61 13.337,0.791 26.513,3.33 39.19,7.55 z"
     fill="#50deb6"
     id="path14" />
  <path
     d="m 259.91,216.03399 18.84,-1.31 16.94,3.58"
     fill="#ffffff"
     id="path16" />
  <path
     d="m 240.701,234.51399 c 10.134,0 18.35,-9.178 18.35,-20.5 0,-11.322 -8.216,-20.5 -18.35,-20.5 -10.135,0 -18.35,9.178 -18.35,20.5 0,11.322 8.215,20.5 18.35,20.5 z"
     fill="#ffffff"
     id="path18" />
  <path
     d="m 312,234.51399 c 10.135,0 18.35,-9.178 18.35,-20.5 0,-11.322 -8.215,-20.5 -18.35,-20.5 -10.134,0 -18.35,9.178 -18.35,20.5 0,11.322 8.216,20.5 18.35,20.5 z"
     fill="#ffffff"
     id="path20" />
  <path
     fill-rule="evenodd"
     clip-rule="evenodd"
     d="m 240.701,197.51399 c -7.52,0 -14.35,6.959 -14.35,16.5 0,9.541 6.83,16.5 14.35,16.5 7.52,0 14.35,-6.959 14.35,-16.5 0,-9.541 -6.83,-16.5 -14.35,-16.5 z m -22.35,16.5 c 0,-13.103 9.601,-24.5 22.35,-24.5 12.028,0 21.255,10.146 22.259,22.298 l 16.07,-1.118 10.642,2.249 c 0.506,-12.646 9.928,-23.429 22.328,-23.429 12.749,0 22.35,11.397 22.35,24.5 0,13.102 -9.601,24.5 -22.35,24.5 -10.291,0 -18.531,-7.427 -21.325,-17.182 l -12.205,-2.579 -16.07,1.117 c -2.359,10.465 -10.9,18.644 -21.699,18.644 -12.749,0 -22.35,-11.398 -22.35,-24.5 z m 93.649,-16.5 c -7.52,0 -14.35,6.959 -14.35,16.5 0,9.541 6.83,16.5 14.35,16.5 7.52,0 14.35,-6.959 14.35,-16.5 0,-9.541 -6.83,-16.5 -14.35,-16.5 z"
     fill="#000000"
     id="path22" />
  <path
     d="m 205.45,284.53399 81.46,0.09 11.09,30.78 -84.63,-19.77 z"
     fill="#4d4d4d"
     id="path24" />
  <path
     d="m 282.17,219.15399 -12.31,86.77 -64.83,-21.43 -0.52,9.81 66.19,22.72 126.62,4.57 17.2,-95.17 z"
     fill="#adadad"
     id="path26" />
  <path
     d="m 374.8,330.33399 c 5,-4.23 6,-26.78 -1.68,-34.48 -2.72,-2.72 -9.1,-0.8 -11.48,2.15 -4.43,5.52 -6.85,17.35 -3.5,23.59 2.12,4 0.74,4.3 5.15,5.13 4.41,0.83 9.21,5.58 11.51,3.61 z"
     fill="#50deb6"
     id="path28" />
  <path
     d="m 345.9,283.10399 c 6.754,0 12.23,-5.476 12.23,-12.23 0,-6.755 -5.476,-12.23 -12.23,-12.23 -6.755,0 -12.23,5.475 -12.23,12.23 0,6.754 5.475,12.23 12.23,12.23 z"
     fill="#f0f0f0"
     id="path30" />
  <path
     d="m 185.11,306.03399 c -1.81,5.56 -3.65,11.3 -3.14,17.12 0.51,5.82 4,11.8 9.6,13.4 4.77,1.35 9.8,-0.66 14.26,-2.83 4,-1.92 7.92,-4.07 10.81,-7.38 2.89,-3.31 4.51,-8 3.1,-12.2 -1,-3 -3.4,-5.27 -6,-7 -7.87,-5.32 -18.46,-6.32 -28.63,-1.11 z"
     fill="#50deb6"
     id="path32" />
  <path
     d="m 232.01,263.23399 c 10.91,2.92 36.66,15.42 37.46,28.3 0.15,2.43 -4.63,5.9 -6.74,5.89 -11.64,-0.06 -35.35,-6.63 -44.84,-14.41 -3,-2.47 -7.68,-12.77 -5.24,-16 3.24,-4.25 14.58,-5.05 19.36,-3.78 z"
     fill="#50deb6"
     id="path34" />
</svg>
