<svg width="431.509" height="404.044" viewBox="0 0 431.509 404.044" fill="none" xmlns="http://www.w3.org/2000/svg"><path opacity=".5" d="M0 65.744c10.85 69.79 41.11 144 87.67 205.73 46.56 61.73 109.62 110 170.78 126.43 58.77 15.76 114.31.89 145.51-41.27 31.2-42.16 36.69-111.2 12.41-179-24.28-67.8-78.24-132.11-137.14-161-63.74-31.34-130.06-17.69-156.55 35-26.49 52.69-9.23 141.34 41.57 203.36 50.8 62.02 130.52 88.87 175.36 57 12.09-8.59 21.81-21.26 24.78-38.48 4.71-27.35-8.41-62.35-27.64-91-20.86-31.06-50.87-57.89-80.24-64.43-29.37-6.54-55.63 12-53.87 44.79 1.76 32.79 37.42 72.72 62.7 64.84" fill="#a19ad6"/><path d="M346.824 265.647c33.936-59.617 13.53-135.222-45.578-168.868-59.109-33.647-134.536-12.594-168.472 47.024-33.936 59.617-13.53 135.222 45.578 168.868 59.109 33.647 134.536 12.594 168.472-47.024z" fill="#50deb6"/><path d="M132.1 263.104c1 32.24-5 64.3-9.67 96.29-.41 2.82-.8 5.75.1 8.45.9 2.7 3.47 5.07 6.38 4.81 3.09-.28 5.15-3.2 6.7-5.84a324.513 324.513 0 0 0 30.19-68.21c4.09-13.19 7.33-27.31 3.61-40.48a136.267 136.267 0 0 0-37.31 4.98z" fill="#50deb6"/><path d="M143.16 281.524c6.57 31.55 6.13 64.12 7.06 96.39.09 2.84.21 5.79 1.55 8.3 1.34 2.51 4.3 4.41 7.13 3.67 3-.8 4.53-4 5.6-6.88a321.898 321.898 0 0 0 18-72.18c1.76-13.67 2.52-28.11-3.41-40.45a136.16 136.16 0 0 0-35.93 11.15zM313.15 241.314c16.19 27.9 38.29 51.93 59.16 76.63 1.83 2.18 3.72 4.46 4.39 7.23.67 2.77-.27 6.13-2.87 7.45-2.78 1.39-6.07 0-8.79-1.42a325.043 325.043 0 0 1-61.72-42c-10.45-9-20.67-19.32-24.49-32.46a136.07 136.07 0 0 1 34.32-15.43z" fill="#50deb6"/><path d="M323.72 264.174c2.68 32.12 12.36 63.23 20.64 94.44.73 2.75 1.46 5.62.88 8.4-.58 2.78-2.87 5.45-5.79 5.54-3.11.09-5.48-2.57-7.33-5a322.339 322.339 0 0 1-37.81-64.13c-5.58-12.6-10.36-26.25-8.23-39.75a136.332 136.332 0 0 1 37.64.5z" fill="#50deb6"/><path d="M302.95 281.404c-3.34 32.07.83 64.45 3.52 96.67.24 2.84.44 5.79-.69 8.42s-4 4.82-7.1 4.35c-3.26-.49-5.23-3.54-6.69-6.28a313.09 313.09 0 0 1-27.23-70.1c-3.42-13.43-5.86-27.74-1-40.61a152.706 152.706 0 0 1 39.19 7.55z" fill="#50deb6"/><path d="m259.91 216.034 18.84-1.31 16.94 3.58M240.701 234.514c10.134 0 18.35-9.178 18.35-20.5s-8.216-20.5-18.35-20.5c-10.135 0-18.35 9.178-18.35 20.5s8.215 20.5 18.35 20.5z" fill="#fff"/><path d="M312 234.514c10.135 0 18.35-9.178 18.35-20.5s-8.215-20.5-18.35-20.5c-10.134 0-18.35 9.178-18.35 20.5s8.216 20.5 18.35 20.5z" fill="#fff"/><path fill-rule="evenodd" clip-rule="evenodd" d="M240.701 197.514c-7.52 0-14.35 6.959-14.35 16.5s6.83 16.5 14.35 16.5 14.35-6.959 14.35-16.5-6.83-16.5-14.35-16.5zm-22.35 16.5c0-13.103 9.601-24.5 22.35-24.5 12.028 0 21.255 10.146 22.259 22.298l16.07-1.118 10.642 2.249c.506-12.646 9.928-23.429 22.328-23.429 12.749 0 22.35 11.397 22.35 24.5 0 13.102-9.601 24.5-22.35 24.5-10.291 0-18.531-7.427-21.325-17.182l-12.205-2.579-16.07 1.117c-2.359 10.465-10.9 18.644-21.699 18.644-12.749 0-22.35-11.398-22.35-24.5zm93.649-16.5c-7.52 0-14.35 6.959-14.35 16.5s6.83 16.5 14.35 16.5 14.35-6.959 14.35-16.5-6.83-16.5-14.35-16.5z" fill="#000"/><path d="m205.45 284.534 81.46.09 11.09 30.78-84.63-19.77z" fill="#4d4d4d"/><path d="m282.17 219.154-12.31 86.77-64.83-21.43-.52 9.81 66.19 22.72 126.62 4.57 17.2-95.17z" fill="#adadad"/><path d="M374.8 330.334c5-4.23 6-26.78-1.68-34.48-2.72-2.72-9.1-.8-11.48 2.15-4.43 5.52-6.85 17.35-3.5 23.59 2.12 4 .74 4.3 5.15 5.13 4.41.83 9.21 5.58 11.51 3.61z" fill="#50deb6"/><path d="M345.9 283.104c6.754 0 12.23-5.476 12.23-12.23 0-6.755-5.476-12.23-12.23-12.23-6.755 0-12.23 5.475-12.23 12.23 0 6.754 5.475 12.23 12.23 12.23z" fill="#f0f0f0"/><path d="M185.11 306.034c-1.81 5.56-3.65 11.3-3.14 17.12.51 5.82 4 11.8 9.6 13.4 4.77 1.35 9.8-.66 14.26-2.83 4-1.92 7.92-4.07 10.81-7.38 2.89-3.31 4.51-8 3.1-12.2-1-3-3.4-5.27-6-7-7.87-5.32-18.46-6.32-28.63-1.11zM232.01 263.234c10.91 2.92 36.66 15.42 37.46 28.3.15 2.43-4.63 5.9-6.74 5.89-11.64-.06-35.35-6.63-44.84-14.41-3-2.47-7.68-12.77-5.24-16 3.24-4.25 14.58-5.05 19.36-3.78z" fill="#50deb6"/></svg>